<mxfile host="65bd71144e">
    <diagram id="tzfBfzJ7TvLigcZZ1hSf" name="ページ1">
        <mxGraphModel dx="3340" dy="2543" grid="1" gridSize="10" guides="1" tooltips="1" connect="1" arrows="1" fold="1" page="1" pageScale="1" pageWidth="827" pageHeight="1169" math="0" shadow="0">
            <root>
                <mxCell id="0"/>
                <mxCell id="1" parent="0"/>
                <mxCell id="3" value="" style="shape=image;verticalLabelPosition=bottom;labelBackgroundColor=default;verticalAlign=top;aspect=fixed;imageAspect=0;image=data:image/png,iVBORw0KGgoAAAANSUhEUgAACD4AAAOgCAYAAADfhiSvAAAAAXNSR0IArs4c6QAAAARnQU1BAACxjwv8YQUAAAAJcEhZcwAADsMAAA7DAcdvqGQAAP+lSURBVHhe7N0JuBxFvffxOt5LEjYjSzYgYdUAKgQMmwEJQQmERSQgRDa9oiTsIouARA2KskNkiYpXLgSRJYgCCeFKACGCELhRhBANW1iSkF2SEBJfz3t+dbqGPp2Z7pmp7umenO/nefqZ6W3mP1XVVXNO1VS3tPTs32oy0GOj7sEzAAA6n/mLlwbPAAAAAAAAAAAAkKWPBI+owkkXX2que+Bxc+51NwdbgOpUW3a++PVT7HFu0Xreain3Lv6r7v2D2few4cFW+KLuaacypbL1kzsnmu132S3Ymg5Xdr/333eaPv22yvS9AAAAAAAAAAAAkC4GPmCt5TqL9dgM1PE65EtHB2vtPnfwEU0xgMB1EkfjBwAAAAAAAAAAAICsMfABa62NNu0ZPCs+/cJ8wKB97fMX/jzVnHnIvuatV/5h/rPLOmb3/Q+y25vBvLfeMP9atTpYQ1puvuRCWyauOPOkYEvn9PjvJ5hvH/F5852jh5mX/+/ZYGs2GvleAAAAAAAAAAAA8NPS0rN/a/A8VT026h48y49+hX7YV0fZzmNZ9O5cs3DuO+bjO+1qn//8++ebObNfL/3S3m2Tb37/MrNxz972uTpyf3/LTebjO3/GfHqPQbZD2nVAajYBbXOm/PZO87tf3his1U9Tq3/1Oz8w66zTxfzxwXvNXgccYtZdf33z/vLl5paffK/UEVfuM7rPVQTucyh2cfEdfOI3bbqF43Vp6bZ136RH2XN1rKb832Lbj9tBAhrgoOei9H/mfyd2yD+JppuP6MwMrjxo8EL4fcPv6T6bjl284N1SmVH86tQO57fKmjpdo+UyjTzNIvYwVx7FfQ74C+eBq3uieZlmGS8qV75Wr15V+qzROkaqqYfD5yntXnz2KTNw8OdL19snBnymw3v16tuvtD539mtm6x0+lfg+8xcvDZ4BAAAAAAAAAAAgS2vtjA/qFDzim2eUBgQ4zz0+xXZyffRjm9iOLfnETrvax+lTH7ed7WdecWOHTvNK1PnuOoGdtG9NoPjVuek69fR49Onn2I7qSp+xKJQO37j4xx06JJWux337u+bJB367Rj64GRqUD9pW6dwwpb8b9CCaNWHTzbYI1tKnDuhwZ7OjTtRouQnnlaNYw2VGz5WP6lTVoAd1qs57c3awN11ZxY7GK5eXyjN15Cs/O4tydYwobeLKZnSwhB416KEaOlaDHgAAAAAAAAAAAFAca+XAB3XWutsG6BfSmiJeyw/+62jz1OT77awPGiygGRzUAbZJ781sJ/zM5581ex/yJduxpfWbLj7HnqfpzqO/XHfnaTaIe38+1h6nX8C7102TflWs19f76P00WGDgkAMqfsaizPagdFB6uPiUnkpXpZvE5UPcueGOXbdfaSTrrr+hWf3BBzYdtE+UL2lMV6/33e5TA+xzvaZLc/0Cv/+uu9lyo1+L/+SUE+2i5+GBHeL26zwXnxt4k6Vmjh0dqX7bfOtt7XOXly7PlI+qwzoLV0+Ey6bSRFQ/hgfuhLkyH67n3XnVcHVyGrP7AAAAAAAAAAAAwN9aOfBBszaoA1yDBJ55ZFKw9UPapn3qPNx50L62A0yd8OoYd7MOzPrb9NiOcvcLfXW6adaF6x54vMOv4dOiOJfMn2efayYAzQggijnuMxaBS0vNFKD0GXXJlTZu5+9/fd4+6jjXERnNh0rnOrr1giiNlBbKE+VNFlyeq7NUM1aE9QhmmdCsCd+58X/sEp5BwVnx3nulgSku9rCs4m9E7GiMcP32j788Z7cpX5Q/nY2rJ95+7ZVS2Zz/zlv2MY4r866+kWrOEzc4CwAAAAAAAAAAAMWxVg58WLpwvnl/+Xul2QSc48+52P4CWLM3zH3zdfuL9l32GdJh8IDr0NWgCPdr4aEjvlrx9hU618344JabL7kw2OtPn+FjPXrZ525wgAY/vDlrVuxnLBI3K4Nb3OwL6jx0szhsvf0n7bFuMIRT6dw8uIEnygPlhSitleZO+JfnWqKzhay34Yb2HC3uV/sqc3+f/pz555KFpfzUfjejR7hTt15Zxo7GKle/KU+UP51NufraDWqoRngGGWYvAQAAAAAAAAAAaF5r5cAHdRKrs1g0C4NmDNCyzY4f3pddHezqOFRHsDqc1fEs+gW1BjO4X7/rvAOOOs7uC3ODJ/QabsYHLd/77ztLHXBp0f3q9drunv76lbJu2ZH0GfPmZtZwsza4xd17XwMY9FmUB7pnvjren/nfiXZf0rm1UPr85M6JHW6RUQ8Xr7g8URnp3XdLO4uCBnGEy42Wky6+1B7vRGdV0GdUmYuW2eh+X1nGjsYqV7+5PCk3o8farFx9rTSR6VMfrzhgyJ2nukezyeg81TUAAAAAAAAAAABoTmvlwAfRrAu6D3tYeKp+dbCro13CHWQa0PCLSy6wHYiOfimvX8xHXXHmSXZGgiypc27aY3+wj6KYx1/1Q/s86TPmTWn5+1tuKsVeTniGh/DMBtWcm8QNnkiT8vyFP08N1trpV+caWHDLT77XodyUo/ISLjN/fPDe0qwKys/wayt2pYHb7yvL2NFY5a591Q3XnXuKzc/OQuUvWl/rutEsPL/75Y3BljXpPJVfR2n3p4fuD9YAAAAAAAAAAADQbFpaevZvDZ6nqsdG3YNnxaSZA/TLd3WYqdO3aJ2Fmp3gq9/5gVlnnS6pdn4DABpj/uKlwTMAAAAAAAAAAABkaa2d8aESDXjQtObuthGz/ja9U/1CGgA6i3Ovu9nW9+Hlqnv/YPY9bHhwBAAAAAAAAAAAANYGnW7GBzfTg2jaf00ZX0TM+AAAzY0ZHwAAAAAAAAAAABqj097qAgCALDHwAQAAAAAAAAAAoDE63a0uAAAAAAAAAAAAAADA2oOBDwAAAAAAAAAAAAAAoGkx8AEAAAAAAAAAAAAAADQtBj4AAAAAAAAAAAAAAICm1dLSs39r8BwAAAAAAAAAAAAAAKCpMOMDAAAAAAAAAAAAAABoWgx8AAAAAAAAAAAAAAAATYuBDwAAAAAAAAAAAAAAoGkx8AEAAAAAAAAAAAAAADQtBj4AAAAAAAAAAAAAAICmxcAHAAAAAAAAAAAAAADQtBj4AAAAAAAAAAAAAAAAmhYDHwAAAAAAAAAAAAAAQNNqaenZvzV43nBbbL2tOe/K682mvfvY9eeefMxcdf5Z9nlRfPuya81n9h5sn69evcr85obrzKS7b7frTviYBXPnmMvPOc289dordj1LO+2+lznjksvNehtsaNcfvOM2c/v1V9nnawN9vlEX/8j8/tZfrpHmjkuDR++/b6347GtDnh501LFm/y8daa696JzMroN6646k84497dvm4BHH2+crlr1nxl58nvnrM0/Z9aRzk/Iurp6IOzcck/P632eYC782wlz6qzvMVp/YIdjaLu0yE5cmceI+b5b5UO+50X3i6nw55tQzzTrrdLHPpZF1PQAAAAAAAAAAAOLlOuPDKaN/aJb9c4n5yqAB5iffGmV2GPAZ22lVFOqM7NK1q41Py8P33GmGnzTSbnfU8bjldv3NeccNt8ecMfyghnSEqZPupPNHmxnTn7Pve9u1V5j9Dj3cdjp3JurQPGnoPmvFoIe1IU91PRx/1rlt1023YEs26q074s5TOiu9le7ar3xQfihfJO7cpLzTcTpe52m/XkevJ9XkuzrZXR2jRYMeHHXeu+1a0rwWktKkkrjPK1nlg8+5jgaOaL+WEwfvXhp0teK9ZaXPo6VRdT0AAAAAAAAAAACS5TbwQYMHNtq0l3li4gN2XR3Y6qT65GcG2vUiUEw/PmtUsGbM4w/eZ1YsW2Y+vftn7bo62fQZbr5sTMM7wD49cE+zTpeu5n8n3GnX1Tn37jtvmR0H7mbX0XyaPU816EHUcZyleuuOpPOUzkpv19GtfFB+KF+Szk3KOx2n43We6HX0enrdIud7XJrEifu8WeaDz7kAAAAAAAAAAABoXrkNfNDggdWrPjAvTHs62GLMS9OeLXWOFdHGPXraTrRF8+badXWyzXrpr6XOvUbSey9eMK/De7/43DQ7+0TSr7HTpl9M/3rq9NKideXhTfdPMad+/8fmfx57xm7X1PfafvPkJ+y6HsN5rbjHTphUep0j/mtksKcyd4771bbeQx3wWtzraFszKFKe1kOzEIRnIshKXN1x2An/ZcuVKw+ufKg8xJ035LDhNp2V3o7yQfmhfEmqr+LyTq+t43S8o9fR6+l1i5rveu+4NNF1pbR1MSrNda3/1zkXxX7erPLBNw8BAAAAAAAAAADQvHK91UWz+cLwozt0nG3Ss5dZ+f77pY58La7DtbPQ59XU8m4KeE0xv2L5MrtvnS7rmP6fHmAu+toIu32nPT5rzrjkcnvPfU3br9kzlKaizlPdX/+NWTNLU8l36drFrLfhBnZ/Lbb6xA6281OvodkH9L7h2wZg7fX6yzPMhJvHmb2HHmw7s/c9+HC7/cYx37WPSM9V559lbxtx9MjT7fW7x36ft7cDmvbHKcERAAAAAAAAAAAAQGMw8KFK+nWz7gcfva3FLnvtbTvyXad/9N78azPX2fno/feVfq2uKeZ/+6uf2eerV602k34z3qaXBossXbiwNP29tmmQgwaPSHS6f/nNTWPtffVr9frfZ5jbr7/KPtftSfS+G/fqbdex9lMZ1K/8NWOIBkC4MtjMNu3dx1w+fkLZAVaf2XtwaXt0FpWs6bYR2+24kznp/NF2EIS77prZwSOOL6VneEYLDcL6zjU3lfY1y0wyAAAAAAAAAAAAnUHhBj4sf2+pWTT/3WAtf+r0UueXOuhPGrpPqYPfCd/HXh2ued+bX52Pjerkjd76I45iUmxz33wz2NKRBiZoNo0i5X1RNDJPm1m47tCgmS223sbeikbXZRydt3TxomBtTZXKrCTVV8q7BXPfCdY6WvXBythrJ5zvC+bOsbOkuNlQwgMMnnvysdL2cnVUFlyaKG2VxkprpXmcpM/rmw9p5aFmiXHpecbwg0p5oEFYbmYbLZrxAgAAAAAAAAAAAMWQ28AHdYCp01yd544GDKhzrCidvO72C39+9A/mwq+NCLZ+aOG784JnjaeOvA0++rHSr5Hlk58Z2NCY1FmowQppzKZQrjxsvuU29nYZnUUR8rQZVFN36BYqSxYusLMRuBkQ4s577olH7UCD3n37BnuMPW+jTXvZ85LeMy7vyl0nmuFk/Q27m7ffeLWw+a7PFZcmbn3L7fp3uG1N0ufNKh988xAAAAAAAAAAAADNK7eBD246+mNGnWHX1UGlW0m8+Nw0u14E+x58uH3U7RLKeWnaszZmd2sLPfbcbAu7PWsuJt1fXxr53o46C3W7Ct3eQ/kniuNLXzvZPq+FOkQ1yMF1nso+ww4x63TtGqyt/YqQp80gqe7QbSDUGX/tRefY2QjccUnn6bYN4etZZVEd+LpNS9K5cXmn60SDp8LXicq2Xk+zMxQ53+PSRAM1dIsLfTbdAkiDTHRc0ufNMh98zgUAAAAAAAAAAEDzyvVWFzeO+a79pbPul657pz96/32Fu0d89N76Wi791R12nzrSJtw8zhxz6pl2ux61ru1ZU+eiOhvVcdfo9w7TdO+63Ye7973iWLlsWbC3euoQHXvxeaXPo+XtN16308t3FkXJ02ZQqe5Qh/cBRx5tO96VnneO+6k9zl2zcXWO0lnrx591rt2vwROXn3OafR2JOzcp73Rc+DoRN4tMkfM9Lk1OGf1De4wGbuj6fXLygzZ25UHc55Ws8sHnXAAAAAAAAAAAADSvlpae/VuD5wAAAAAAAAAAAAAAAE2FgQ9oCvrF/laf2CFYa7d69SrzmxuuK8Qv4wEAAAAAAAAAAAAA+WDgAwAAAAAAAAAAAAAAaFofCR4BAAAAAAAAAAAAAACaDgMfAAAAAAAAAAAAAABA02LgAwAAAAAAAAAAAAAAaFoMfAAAAAAAAAAAAAAAAE2LgQ8AAAAAAAAAAAAAAKBptbT07N8aPE/Vet26Bs8AAOh8Vqz8IHgGAAAAAAAAAACALDHjAwAAAAAAAAAAAAAAaFoMfAAAAAAAAAAAAAAAAE2LgQ8AAAAAAAAAAAAAAKBpMfABAAAAAAAAAAAAAAA0LQY+AAAAAAAAAAAAAACApsXABwAAAAAAAAAAAAAA0LQY+AAAAAAAAAAAAAAAAJoWAx8AAAAAAAAAAAAAAEDTamnp2b81eJ6q9bp1DZ4l++TAPcwJZ19gbr36x+bFaX8OthbD6J/davpt198+/9fqVebun19vHrn3TrvunHbJFWbAZz9nny+cN8dcd+HZ5p3XX7XrWVK6jRx9qVl3/Q3s+uS7bzd3jxtrn68N9Pm+/p3vmwd/fcsaae64NPjjxN+tFZ99bcjT/Y842gw+dLi56QffyeQ6OGrkGWboUcfa5+8vX2bGjbmwqnoj7rzNttrGnHnp1WaTXn3s+vQ//dFcf/G59rkk5UtcHeBzrtLyqG+eZv5znS5l659606IW9b5H3OdKSm+fvKr33Og+cWkuLh+caur6FSs/CJ4BAAAAAAAAAAAgS7nP+KDOsW9dNtast8GGwZbiUIfle0uXmpP238Muf3v2aXPAkSNsB5mjgRF9t/24Gf31EfaY879yeCadvVGKQYNFZv7lefu+d9xwtfncsC/ajtLORB2apx+2/1ox6GFtyFNdDyNOPdt06fphB3GalBZKE6WN0khppTQLX5PlJJ130gXfN8vf+6fdd835Z5j+O+9qO9AlKV90nI7XedpvX6ft9cTnXB1z+Fe/aTvetU+PB3/lq7ZecvvrSYta1PsecZ9L4tI76T2zOtfRwBTt1zLywH1KA01WLFtW+jxaGlXXAwAAAAAAAAAAIFmuAx806EGDBn53y8/N6lWrgq3FoU71a847PVgzZsb/TTPrdOlqNtq0h11XJ9vHNulhZ6podAfYDrvuZmN59Hf32HV1zs2f87bZYZeBdh3Np9nzVIMeRB3HWVFaKE1cZ7TSSmmmtIsTd54GEug6njr5QbtP1706zF26J+WLHnW8m1VAr6PX0+t6ndu2LxyzHpcsnG/2++KRdj26v9q0qEW97xH3uRLTO+Y9szwXAAAAAAAAAAAAzSvXgQ+aYly/ml2xfFmwpdgGDT3YvDrjb6XOPHWYhdcbSe+tTtDwe2tghgaSpPmL72roF9M3P/Ln0qJ1dTJefc8k840Lx5hxDz1ht2ugi7b/9PeP2HU9at1R3Jf9+r7S6xx6wknBnsrcOe5X23oPdcBrca+jbc2gSHlajzEnn2CXrCgNlBZKE0dppTRT2mkgksqUHsWVtXOuuiH2vB3bjlu96gMz4/lng73t6R4egFApXz538OH2uPBr63X0enpdn3PLWfTuPLNxz16JaZGGpPfQdaVrz5VNXYO61o898/zYzxWX3kqTevPK59xwPQQAAAAAAAAAAIDmk/utLoou3KmvTrLwveTVAfnB+++XOvK1uA74zkKfV1PLuyngNcX8yuXL7b51unQx231qJzNm5Il2+6d229OMHH2pvee+bg2yYtl7pV+vq/NU99d/85V/lKaS79K1q1lvgw3s/lr0266/zSu9hmYf0Pu6znCsvfQr/z9O/F3pdjQqW/r1/69/elVwRHNRGe7RZ/MOAzl0a4aiUF2o20Yc8fVRNr0Hfm6IeeS+u830qY8FRwAAAAAAAAAAAACNwcCHBHePG1vqiNevhsO/cJad9hxkO/K1X537GgTQWTrZXWenOpvdL9rV+Xz/bb+0z3X7kofvucPeBkS/sl66aGFp+ntt0yAHDR6R6C0BZMIvbrD31a/V7Fkzbb7J1IcesO/r3gdrN+W3HHPK2WabHT5ly1CzcgM5Rpx6th1UpUFDbzf4ljpJdNsIpfMJZ19gB0G4666ZDT3q2NJAtnB9r0FY37psbGlfs8wkAwAAAAAAAAAA0Bkw8KEGN//4+/Zx0IGH2EcJ38deHZX6hXlaU83XQ52PGlTQCBtt2sMOVtD0+0kUk2Kb9/abwZaONDBB09AvXjA/2AKnkXnarFy5UjppsM0ndtrZPPWHSaVrs5JK5VGWv/debHlUviycNydY62jVB6tir4tqzw0PvDr9sP3tLChJ11vcZ0qLew/Vebrdz+ZbbZM4yCQ5Td4z/1y8KFhbU1Je+ZwbzmfNEuPSXLdicteeBmG5mW20hGf/AQAAAAAAAAAAQL4Y+OChmg7/rKgjb/0NP9ph9gkNuGhkTOos1GCFNGZTUNwaRKHBFE7vflvZ22V0FkXI0yJzg2d6bd432NJ++4ePbdKjQxoNGnqweeeN1+xsJErLpPPKlT2l++pVK+25cflS7hrQ7CXrb7ihmTv7da9zo1zMugVGtWnho5r30HrfbT/e4bY1SZ8rLr2n/+mPdeeVz7n6rAAAAAAAAAAAAGheDHyIcdTIM+zi6F72622woXkp+BW5OiB1z313aws96p782p41N6W/YpJGvrejzkLdrkK391AHoyiOQ4//un1eC3WIapCD6zwVdWB3poEPRcjTotOtFcLXnMqLOtl1KxVxtx8Yc/IJthPcpWXceZq1YMnC+Wb4N061+1SWdaxL97h80TUw7Y9TOlwDKrd6Pc024XNulOLTPsUrSWmRhrj30GAO3eJCn+HWq39sb3mh45I+V2J6++SVx7kAAAAAAAAAAABoXgx8iKFfCO9/+FGle7qrk2zcmAs73Nrivlt+bo765ml2vx617joms6TORXU2KqZGv3eYpnvX7T7cve8Vx4rly4K91VOaKm3d59Ey543X7fTynUVR8rTIlBZ/nPg7M+LUs20aabaB6y4826adBil9arc9bee36NYLSksNhog7T3QbG83MoH0qyzpWt5mQpHzRceFrQDTwQnzOVcf8T3//iN0e3SdJnykNce9x0gXtt/7R4A5dv7q1iD6fBh3EfS6JS2+fvPI5FwAAAAAAAAAAAM2rpaVn/9bgearW69Y1eAYAQOezYuUHwTMAAAAAAAAAAABkiYEPaAqjf3ar6bdd/2Ct3b9WrzJ3//z60q/nAaBIGPgAAAAAAAAAAADQGAx8AAAgAwx8AAAAAAAAAAAAaIyPBI8AAAAAAAAAAAAAAABNh4EPAAAAAAAAAAAAAACgaTHwAQAAAAAAAAAAAAAANC0GPgAAAAAAAAAAAAAAgKbFwAcAAAAAAAAAAAAAANC0Wlp69m8NngMAAAAAAAAAAAAAADQVZnwAAAAAAAAAAAAAAABNi4EPAAAAAAAAAAAAAACgaTHwAQAAAAAAAAAAAAAANC0GPgAAAAAAAAAAAAAAgKbFwAcAAAAAAAAAAAAAANC0GPgAAAAAAAAAAAAAAACaFgMfAAAAAAAAAAAAAABA02LgAwAAAAAAAAAAAAAAaFotLT37twbPG+7Y075tDh5xfLBmzIN33GZuv/6qYK1Ytth6W3PeldebZf9cYi782ojS+qa9+wRHfOi5Jx8zV51/VrCWjkt/dYd58blpa6TPQUcda4459UyzzjpdzOrVq8xvbrjOTLr79mBvcSjOw074urnpkovMX595Ktj6oZ1238uMuvhH5ve3/rKm+HXeGZdcbh69/77Clp1auM+z3gYb2vUiXxOVKK/3/9KR5tqLzjFvvfZKsDU94XpjxbL3zNiLzytbpqLizotez9FrOClfvn3ZteYzew+2zxfMnWMuP+e00mfP8tx606IW9b5H3OdKSm+fvKr33HJ1uqtTxdWzTvQzAQAAAAAAAAAAID+5zfigTqZ+233cnHfccPOVQQPMbddeYfY79HDbaVpE+x58eIcOMXV2nTH8IBu7W/QZli5aZP53wp3BUf6UHv/z2DNmq0/sEGz5kDr41Bmnjjm9/4mDdy/koIcsqUPzpKH7rBWDHnRNnHT+aDNj+nNNcU2UowE6x591runStVuwJV1KC6WJ0kZppLRSmint4iSdd8roH9pBTdr3k2+NMjsM+Iy9viQpX3Scjtd52q/X0etJlufWmxa1qPc94j6XxKV30ntmda6jwSXaryVcp654b1np82hR/c+gBwAAAAAAAAAAgGLIbeCDOox+fNbIUseROpfefects+PA3ex6kajTbJfP7m3eeeO1YEt5+ww7xMx66a+p/eJanXjDTxpp7vufX9pfF4cppj32+7x5+J47O91gh7XVpwfuadbp0rU0cKbI10Q5GvQg6jjOitJCaeLKvNJKaaa0ixN3nmZV2GjTXuaJiQ/Yfbp+1WH+yc8MtOtJ+aLjdLy77vU6ej29bpbn1psWtaj3PeI+V1J6x71nlucCAAAAAAAAAACgeeU28CFKHfkbfPRjZu6bbwZbiuPokaebVR+sNHPefCPYsiYNUlCnmuukTIM67zSbwbOP/SHY8iF15Cmmxx+8L9jSeJrK/tdTp5eW8C+n1cl48+QnSvsGDNon2NNO+T12wqTS/iP+a2Swp51e+8pf/9YeoxkvlL7luNdx763z1AGvxb22tjUDddouXjCv1Fksur3Jltv1t5+z6HQLGC1ZURooLZQmjtJKaaa0UxlRmXNlxZXB7/70F7HnfXr3z5rVqz4wL0x7OthrzEvTni111Mfly5DDhtvjdLyj19Hr6XWzOvcz++wX+5nSkJTeuq507bmyqWtQ1+p/nXNR7OeKS2+lSdx7ZnWu8hkAAAAAAAAAAADNqzADH3QrifU22MC88Myfgi3FoE7U7XbcyfzmprHBlvLSnu0hyca9etuBD5q63XXwu1/cN4I6O3U7A3erEt0rXzNQaLs6Ec+45HLz6P332X06pk/fLc06XdYpnat76b8xa2Zp2vguXbuY9TbcwO53emy2uZn0m/E138JDtwVR56deV7MP7LTHZysOnMDaQ2VEZe6gY46zZewLw4+2v/6/5eqfBEcgTVedf5a9bYQGhim93Qw00/44JTgCAAAAAAAAAAAAaIxCDHzQL4UPOPJoM+HmcQ0bOFANdeapE/XJyQ/GxqWOfs1WkeZsD9UId/BrcIFiaNTsBtFbleiX05pSfuMePe0vq1csW1aajULHaADD6lWr7bpmq9Cx4fTSwBLdQz/sbZ1Xw4AH5/W/zzC3X3+Vfa4Yli5caAeKYO3nytzxZ55b1YAl+NFtI5TOJ50/2g6CcNddMzt4xPGlwWThGS00MOs719xU2tcsM8kAAAAAAAAAAAB0BrkPfNAsBfql8EVfG1FXJ3eWNJtCNZ156ujXcY0etLFg7pwOgwv+/Ogf7FTvrqMuaxqw4joBjz/r3NKMDr379rXp4QZFRGkQgqacXzT/3WAL4sSlJdq5W+S4QTbbD9g1ccCSxN1aZ/l7S2PLqPJlwdx3grWONBvLonlzg7U1+Z47763ZwdqaGnG7IPceqrM1080WW2+TOMgk6XMpvZcuXhSsrSkpr3zODeezZolxM9GcMfyg0rWngVk/+dao0j7NeAEAAAAAAAAAAIBiyHXggwY9LHx3XofOpaLQLA49N9vCzqrgOvc/s/dgu37z5Cc63BP+k58Z2OG+8o2gDkR1JOZFgx40YMXd6uK2a68ozeigTkbNPhEegKHBDm5ghGJ3s0M4m2+5TWl/Z1Uu3VS2dI2gfVCDOv01sMbRdbjRpr06dKjrtjOaLcTdeiXpvHLlcceBu9nrS+fG5Ys6zDWIJzyjiGY0WX/D7ubtN17N7Nxq08JHNe+hdQ220gwvurWIJH2uuPR+7olH684rn3P1WQEAAAAAAAAAANC8chv4cNBRx9oOqUbfHqJa+qX4SUP3Kf26V8tzTz5mb6Og7e6X5Gl3NlbrhWlPmy5du9n764s6R9XR+8asmQ3pxFPnojoZ3XupAzE8sKH7JpuYfQ8+3K672Bx1fupY11Eq6qxep2vXYK1zcrN3uDzVNaLBN7qNCNrp1go7DPiMTRtRGVInu64HcbcfuPBrI2z5dGkZd55mLVi8YJ45ZtQZdp+uaR3rBjPF5YvKv2Za2e/Qw+15orKs11MdkdW5kpQWaYh7D13XusWFPsPNl42xt7zQcUmfKym9ffLK51wAAAAAAAAAAAA0r1xnfIjeM11L+J7qzUAzFWiq9DQ7G6uhzsXLzznN/tpa6Xb5+Al20EOjpl/XgBV1wrp869N3S+NmfFAH429uuM4ccOTRdt+PfnWHmfnC9NJ+dX6Ovfg82+nozn/7jdftVPKdmfJUHcguXY459Uwz4eZxNj3RTmnx6P332VurKI1U/nUdKO00C8lOe3zWdn6Lbr2gtNRgiLjz5MYx37WzK2if6iQd625xk5QvOm7G9OdKdZlo4IVkeW7SZ0pD3HvoVkCiARq6pnVrEcWoQQdxn0vi0jvpc2V1LgAAAAAAAAAAAJpXS0vP/q3BcwAAAAAAAAAAAAAAgKbCwAc0hUt/dYfZ6hM7BGvtVq9eZWeWcL+ABwAAAAAAAAAAAAB0Pgx8AAAAAAAAAAAAAAAATesjwSMAAAAAAAAAAAAAAEDTYeADAAAAAAAAAAAAAABoWgx8AAAAAAAAAAAAAAAATYuBDwAAAAAAAAAAAAAAoGkx8AEAAAAAAAAAAAAAADStlpae/VuD56lar1vX4BkAAJ3PipUfBM8AAAAAAAAAAACQJWZ8AAAAAAAAAAAAAAAATYuBDwAAAAAAAAAAAAAAoGkx8AEAAAAAAAAAAAAAADQtBj4AAAAAAAAAAAAAAICmxcAHAAAAAAAAAAAAAADQtBj4AAAAAAAAAAAAAAAAmhYDHwAAAAAAAAAAAAAAQNNi4AMAAAAAAAAAAAAAAGhaLS09+7cGz1O1XreuwbPKTrvkCjPgs58L1oyZfPft5u5xY4O14tj/iKPNUd88zfznOl3Mv1avMnf//HrzyL132n1HjTzDDD3qWPv8/eXLzLgxF5oXp/3Zrvv65MA9zMjRl5p119/Ars+eNdOMOfkE+zxM8Q0+dLi56QffMe+8/mqwNX2jf3arWfTuPHP9xecGW5C2aJ4X9ZqIk1V5DNcXC+fNMdddeHZVrx93XlJ6x13fm221jTnz0qvNJr362PXpf/pjh2vD51xHsUul13Wi9VIaqo0xKst08Tk3Ka99ykklK1Z+EDwDAAAAAAAAAABAlnKb8UGdVF26rmtGf32EOWn/PWxH0ueGfdF2MBWJOto06EGdiopz5IH7lDoX1cGrmO+44Wq7b+ZfnjcnnH2B/Wxp+OwBB5v7bvm5fW2l0/obfrTUEepoMMKIU89uS8suwZZiUFzRWBtNZenqeybZfGoGKjcqPypHynOVK5WvZolfsiqPug7777yrueb8M2zaLH/vn+akC74f7K0s7ryk9E66vvU69vXa9un19T56P/E5V1R2f/r7RzoMDAtTx7yrO7U8ct/dNt3TvOaSYqwkq3TxOTcpr3Wcjtd52m9fp+31JOlcAAAAAAAAAAAA5C+3gQ/6Je3V551W+kXtS9P+bFavWmV699vKrheBOrwGfm6I7VQs90vqHXYZaObPebu079Hf3WPW6dLV7LDrbnbd1y8uHV16baXTtD9OMX23/Xipo0+dzKJBI2h+KjcqPypHorxX+VI5awZZlkelgTqe3a/7p05+0Hxskx6JA6XizktK77jrW+frdfR6otfX+6RxrvZrdoE/TvydneWlGpp9QB3y2+zwqcQ0qUZSjJVkmS5e51aR1zpe54leR6+n1006FwAAAAAAAAAAAPnLbeBD1H5fPNIsWTi/1KlVBOrwWvXBKjP1oQeCLR/S4AMNQpjxf9OCLe2dbfoMWXWI9dq8r/0lshssottelLv1RVr06/GbH/mzXS779X1mnS7dgj3tn1/b3H79Ol2dhG57v+3621+rj3voCfvL6ErHJ9Evsd05Wlznuii+8Lp7D52j9zz9h1eaj260sf0lvLZrf5Gp3Kj8uM5XUfkKD3YpsqzKo+vUDl9rM55/1qxe9YHZsW2fykE4f5X/KnfHnnl+7Hlx6a2yG3d963y9jl7P0bF6v88dfHjd5+qz6tjTD9u/5luchD+br7gYD/rKifb6Dc+moPTXtZhVuvimaVxe67V1XPi1w2kZd24zXJcAAAAAAAAAAACdQa4DH9Q5rQ5KdWhLlp349di4Zy+zetVKO+V5uY73RlLnnaZiD3fOZUmdyerYc9Ppa7aJPv22DPa2DwqZ9be/2n06ZsWy9+zgFQ3KOP8rh9tfquse++7WIJWOj2MHMBx+VGlq+0q3+yhH7/nT755j/rl4kT1fMbkBI1i7XH/xuXZA0BFfH2U7ot0sLdOnPhYc0TmofCsdNEAqS7P//rK9Bc9enz/I1kuDDjzEbr/5x8m3HgEAAAAAAAAAAACykOvAB3VOq2NcndpS7SwAjaSZCzTYoNaO9zQpTTT1vaZir/VX4PVQ57EGPWiwgxssoPcNT7uvvNOtOETHvPnKP+xAkUpqPV70S+u/Pfu0PVd0XvR2H4Do1gS6zcMJZ19gO/8bcZ10ZromNQvCoSecZAdAPHzPHaW6AgAAAAAAAAAAAGi0wtzqQr/a1n3Tk2YBaLSF8+aUbnUR7njvudkWdls5895+M3jmT7Me6JYN+oW10qgRNtq0h72n/aJ35wVbytPsF24mDN0aIEktx2tggwaZRNNSMSk2xdhZhG9vgg/pNjSujKoj/tUZfzObt5WbCb+4wW6rJHxeOUrvd995K1hbU9z1vfy99+wsI5Uknbt4wfxgrXaVrpk0hWNUOiu9le5ucFIlvumSVZoqr1XHl1NNOeG6BAAAAAAAAAAAKIbCDHwoInV6qfOrHHWMquMrPK28ZmbQveLjOstqoUEPmrZ/zMgTEzsW06SOQt3fPjwjg+tUdTSIQZ9TM2Fo0W0t4tR6vDoUo+nr+HYQF5U6cJXG4dksNOtFWuWpWZUrj7p1yvobbmjmzn7druva04Ck8C1Uks6LS+9y5S98fWuJDsDRubo1jsp2vef6dKS7W064gVo+qolR6bxk4UI704Y+n2SVLr5pGpfXPuUEAAAAAAAAAAAAxZDbwIf9jzjafOPCMcFaeyf/ZltubW8rURQznn/WdOnaxRzx9VF2XR1fGoig2zSoM03T6/ffeVf7WUQdgepA03m+3HuFbzfRKHo/dTLq/V1nnzpVN+nVxz7XNnUEul9aa12dzpXUeryjsvCp3fYspa/OO+DIEWbeW2+UOjN79Nm81OmqfHIxNiPXYe3Kmz63Pl+Rrok8KK91HXxu2BdLeT1o6MH2VgsvTvuzLRe6xYWOufXqH9uOeKVd0nlJ6R13fbtbPQz/xql2n15fx6Zxbj10+539Dz8qtVtOJMWo+lrX8E0/+I6d8cEdl2W6eJ0bk9e+5QQAAAAAAAAAAAD5a2np2b81eJ6q9bp1DZ6Vpw6mkaMvNeuuv4Fd/9fqVebun19vO7CKRJ2qZ156dalDXb88Dt9yQh2AQ4861j7XlOnXXXh2Kh2P0fd1yqWTmxkirfd2NEtDv+362+ezZ820j/qVsz5/+HMrpvlz5hj9unrMySfYbeocPOqbp9nnile/po47vpLw+0g0/cMxvvTcs6bXFlvYTsy7x42129QhrNtqpJk3WQpfF0W9JpJkVR5dXorKoys7KgMaWOPeT++vQQAu7SqdJ0npHS5/0TIUvUYn3317qdyJz7mOmymlUp3jRD9XGirF6K7tR+6726674zRYSjFkmS4+5ybltU85qWTFyg+CZwAAAAAAAAAAAMhSbgMfAABYmzHwAQAAAAAAAAAAoDEY+IBchX9lHVbpF/AA0CwY+AAAAAAAAAAAANAYDHwAACADDHwAAAAAAAAAAABojI8EjwAAAAAAAAAAAAAAAE2HgQ8AAAAAAAAAAAAAAKBpMfABAAAAAAAAAAAAAAA0LQY+AAAAAAAAAAAAAACApsXABwAAAAAAAAAAAAAA0LRaWnr2bw2eAwAAAAAAAAAAAAAANBVmfAAAAAAAAAAAAAAAAE2LgQ8AAAAAAAAAAAAAAKBpMfABAAAAAAAAAAAAAAA0LQY+AAAAAAAAAAAAAACApsXABwAAAAAAAAAAAAAA0LQY+AAAAAAAAAAAAAAAAJoWAx8AAAAAAAAAAAAAAEDTYuADAAAAAAAAAAAAAABoWi0tPfu3Bs9zdemv7jAbfPRj5vJzTjNvvfZKsLUYDjrqWHPMqWeaddbpYlavXmV+c8N1ZtLdt5sttt7WnHfl9WbT3n2CI415/e8zzIVfGxGs+dlp973MGZdcbtbbYEO7Xum1Fd/+XzrSXHvROZmmnfJo4bvzzFXnnxVsQdqief7gHbeZ26+/yj5vFlmXx2NP+7Y5eMTx9vmKZe+ZsRefZ/76zFN2PU7cedFr+bknH+tQzpPy5duXXWs+s/dg+3zB3Dkd6jGfc8P7wnWPU29aVCMpTSpJOs8nH4qahwAAAAAAAAAAAMhXIWZ8UEfp5ltvG6wVizraNOhBHY5fGTTAnDh491LH48Y9epp1unQ1t117hd2nJa1BD7LPsMPMhJvH2dc977jhdmCIOufCNBjh+LPONV26dgu2FIPiisbaaOqsvOn+KbZ8NQN13J50/mgzY/pzNs9VrvY79PCmiV+yLo9KC6WJu+aUVkozpV2cpPNOGf1Ds+yfS+y+n3xrlNlhwGfstS9J+aLjdLzO0369jl5PfM5V+e3StavdruXhe+40w08aabdLvWlRrbg0iRN3nk8+FDUPAQAAAAAAAAAAkL9CDHzYZ9gh5u0MZyqolzq89tjv87bDMfwr67DVqz4wb7/xarCWrhu+f0HpffXL4z8/+gez5Xb9Sx196mQW/foYze/TA/e0A2n+d8Kddl15/+47b5kdB+5m14uuEeVRaaE0cdeF0kppprSLE3eeBhJstGkv88TEB+w+zSCgTu5PfmagXU/KFx2n493MA3odvZ5e1+dcbfvxWaPsdnn8wfvMimXLzKd3/6xdrzctqpGUJpUkneeTD0XNQwAAAAAAAAAAAOQv94EP+qWtZjJ4ZcZLwZbiUIfXqg9W2g7HcjbfchvbIdYovfv2tb9EdtOva3aJNGeYiNKMDb+eOt0uYydM6vArfg2+0Da3/+bJT9hOQrd9q0/sYKeN/5/HnrG/jK50fBKVD3eOFte5LoovvO7eQ+foPb99+XWm+8Yb2xkItN0NGCkqdaQuXjCv1PkqLz43rcNglyLLujwqDZQWShNHaaU0U9opz1Wu3C/xVb60/t2f/iL2PA0k0ACmF6Y9Hew15qVpz5Y6vuPyZchhw+1xOt7R6+j19Lo+50a5GWYWzZubmBa+4tLksBP+y6ZreDYFXV+6FuPO0+etNx98zs0yD5vhugQAAAAAAAAAAOgMch34oA6pvYcebCb9ZrxZuWJFsLU4Nu7V2w580JTn5TreZb0NNzDfueYmuy/LznWllaZiD3f8ZUmDCtSxp1tsaHp3zTax2ZZbB3vbB4XMfGG63adj9Ev0Lww/2g7KOGP4Qeb1v8+w99h3twapdHwcdawecOTRpantK93uoxy951XnnWmWLlpkz1dMbsAI1k7K80fvv88cdMxx9jpU+dIv82+5+ifBEc1NnyfauZ+H11+eYW/Bo7pb9dK+Bx9ut9845rv2EQAAAAAAAAAAAGi0XAc+HDPqDDPrpb/aDsui0swFGmxQruNdcatjX/u0aDaG8668PvXBD+pcPOOSy+1U7Ldff1WwNTuKX4MeNNjBDRbQ+2owg6PPrltxiI55Y9ZMs0nPXna9nFqPF00//9c//6lUPnRe9HYfQJibneX4M8812+24k/nNTWPterNTnaOBTzdfNqYQA3h0TWoWhCP+a2Rp8FoR4gIAAAAAAAAAAEDnlNvAB3XkaRDBneN+GmwppgVz55Q6U5M63tXJ6u45nxbNeqBbNugX1ledf1awNVvhKfXjaPYLNxOGbmuRpJbjlb4qH3PffDPY0k4xKTbF2FmEb2+C8lw5UTqpE377AbuaJyc/2OH2BOVEy1fY8veWmkXz3w3W1qR8WTD3nWCtI80UE3f9VHuurgPNJKNBQicN3Sfx80jcZ/IVThPVd1tsvU1Vg9d03tLFi4K1NSXlg8+5WeYh1yUAAAAAAAAAAEAx5DLwwc0osGnvPuby8RNsR/jBI4636z/61R2le/TnTZ1e6vyqhaaif/uNV4M1Pxr0sMd+nzcXfW1EYsdimtRRqM+hW304biCCo0EMC9+dV5rtQre1iFPr8epQVMdi7759gy0fSurMbFbqwFUahwfVaNYLpRvKlwnNhrLRpr06dFDvM+wQ83bbsbp2lJZJ52mJDqbZceBu9trXuXH5Uu5a0cCn9TfsbusBn3N1jmaQ0WCrC9vqgLBq06JeSWkiuvXGkoUL7Mwaem+JO++5Jx6tOx98zs0yDwEAAAAAAAAAAFAMuQx8UEfUGcMPKnWCa3nwjtvs7AqN7uSPo3vpd+nazRw98nS7ro4vdabqNg36DF/62skdBmno1h3qnKvmV9lJ3HuFbzfRKHo/fQ7XcSy6j78Gpoi2qSNQHYJuXQNZKqn1eEe3GNlpj8+W0ljnHXTMcWbOm2+UOjN7brZFqdNV+eRibEZuZhFX3vS59flemvasXYcxT0x8wN7ywZUJdb6r01rXqrjb0GiggMqwS8u489xtG3T9isqTjlX5k7h8UTnUNbrfoYeXyqEGXuj1VA/4nKtrTtxrRCWlhY+kNNGgLF3D1150jp3xwR2XdJ5PPhQxDwEAAAAAAAAAAFAMLS09+7cGz3PlZje4/JzTbEdUUaizXb+6dh3qmqnA3XJCMWumCuf1v89Y45fZ9Yq+r7N69Srzmxuusx19TlZpp1katvrEDva5PpvoV876/OHPrpjmv/O2/XW1+/zqHDzm1DPtc8WrX1PHHV9JNI3D6S/hGF949mnTp++WthPz9uuvstvUEa7bamhQTdHKVjnqeD3jksvNehtsWDavm0HW13K4TITzVdsPOPLoUpq5tJwx/bk1ymy0PESvNw3EcmVIkvLFlTOJ1gP1nhst+06lY9Iu45XSxF3bD99zp113x2mgieJKSkuffChqHgIAAAAAAAAAACBfhRn4AAAAAAAAAAAAAAAAUCsGPiBX4V9Zh0V/rQ0AAAAAAAAAAAAAQDkMfAAAAAAAAAAAAAAAAE3rI8EjAAAAAAAAAAAAAABA02HgAwAAAAAAAAAAAAAAaFoMfAAAAAAAAAAAAAAAAE2LgQ8AAAAAAAAAAAAAAKBpMfABAAAAAAAAAAAAAAA0rZaWnv1bg+epWq9b1+AZAACdz4qVHwTPAAAAAAAAAAAAkCVmfAAAAAAAAAAAAAAAAE2LgQ8AAAAAAAAAAAAAAKBpMfABAAAAAAAAAAAAAAA0LQY+AAAAAAAAAAAAAACApsXABwAAAAAAAAAAAAAA0LQY+AAAAAAAAAAAAAAAAJoWAx8AAAAAAAAAAAAAAEDTYuADAAAAAAAAAAAAAABoWi0tPfu3Bs9TtV63rsGzyo4aeYYZetSxwZox/1q9ytz98+vNI/feGWzJ12mXXGEGfPZzwdqHFs6bY6678GzzzuuvdvgM7y9fZsaNudC8OO3Pdt3XJwfuYUaOvtSsu/4Gdn32rJlmzMkn2Odh+x9xtBl86HBz0w++Y2PKyuif3WoWvTvPXH/xucEWpC2a55Pvvt3cPW6sfd4ssi6P9V5zcedtttU25sxLrzab9Opj16f/6Y8dynlSvoTrinD9ID7nhvdF68dozNFzfSWlSSVJ5/nkQ1HzsJIVKz8IngEAAAAAAAAAACBLuc740GvzvrYz/6T997DLyAP3KcygB1GnmYtNy+ivj7AdYtP+OMV2iKmD93PDvmjuuOFqu3/mX543J5x9ge2AS8NnDzjY3HfLz0vvvf6GH7Wdc2EajDDi1LNNl65dgi3FoLiisTaaOiuvvmeSzadmoHKj8qNypDxXuVL5apb4JevyWO81l3TeSRd83yx/75923zXnn2H677yr7WSXpHzRcTpe52m/fZ221xOfc1V+1+nazW7X8sh9d5vDv/pNu10GHXiIrYvc/vC5aYhLkzhx5/nkQ1HzEAAAAAAAAAAAAPnL/VYXmkGgWaijUaY+9IB93GGXgWb+nLdLgzUe/d09Zp0uXc0Ou+5m13394tLRpdfWQAt1cvbd9uOljj51Mot+fYzmp3Kj8qNyJMp7lS+Vs2bQiPJY7zUXd54GEnxskx5m6uQH7T7NIKBObpfuSfmiRx3vZh7Q6+j19Lo+52rbNeedbreL6p0Vy94zOwYDHzTjQHjWgfC5vpLSpJLEtGx7rDsffM7NMA8BAAAAAAAAAACQv1wHPmzcs1fwrPg02GDg54aUZnvQugYhzPi/acER7Z1tSxbOz6xDTDNk6JfIbvp13fai3K0v0qIZG25+5M92uezX95l1unQL9rSnh7a5/T/9/SO2k9Bt77ddfztt/LiHnrC/jK50fBL9Etudo8V1roviC6+799A5es/Tf3il+ehGG9sZCLRd+4tM5Ublx3W+ispXeLBLkWVdHpUGcdec8lzlyv0SX+VL6+dcdUPseRpIsHrVB2bG888Ge9vTvdTxHZMvnzv4cHtc+LX1Ono9va7PuVEbbdrDdsBXGiym+lTnLl4wP9hSv7g0OegrJ9p0Dc+moOtL12Lcefq89eaDz7lZ5mEzXJcAAAAAAAAAAACdQe4zPqhz3HVqu460IorO9tBo6rzTVOzhzrksaVCBOvZ0iw1N764BH336bRnsbf8F9ay//dXu0zH6Jfp+XzzSDso4/yuH21uY6B777vYllY6PYwcwHH5UaWr7Srf7KEfv+dPvnmP+uXiRPV8xuQEjWDspz/848XfmgCNH2A5plS/9Mv/XP70qOKK56fNEO/cdfV4NzHrzlX9kXs5n//1lewuevT5/kK2XXN1484/Tu80GAAAAAAAAAAAAUItcBz7o1+Hq0Naizml1chd18IN+9etme2g0dS6OHH2pnYo9PLV9Vtwv68OfV++rwQyOOpl1Kw7RMepwjZvBo9bjRWn+t2eftueKzove7gMIcwOTjjnlbLPNDp8yE35xg11vdhrso4FPt1794zXqIF0LZ156tZ0N5vqLzw22ZkvXpGZBOPSEk+wAiIfvuWONuAAAAAAAAAAAAIBGyX3GB0cdaerkVmd30WjggWYaeCk01XmceW+/GTzzp4EgumWDfmHdqE7NpCn1HU1t72br0MwdSWo5Xp25SvNoWiomxaYYO4vw7U1QnisnSid1wn9ip53NU3+Y1OH2BOXEXavL33sv9rYRypeF8+YEax2t+mBV7PVT7bm6DnQbCQ0SOv2w/df4PLqtx+hx/2MHBGV5mxEnnCYaVLJ5W3yvzvhbaXBSJTpPs69UkpQPPudmmYdclwAAAAAAAAAAAMVQmIEPTlJnex50n3d1coU7HdXhpW29Nu8bbGkfIKF7xaf1GTToQdPXjxl5YmLHYprUUagp9cMzMriBCI4GMehzuhk7dFuLOLUeXy59naTOzGalDlylcXg2Cw0EKuI1kYdqr7lBQw8277zxmr12lJZJ52mJDqZRuq9etdKeG5cv5a4V3dZl/Q03NHNnv+51rs7RTA6VBjVo0MPBX/mqvaVL2jPBJKWJ6NYbSxYutDNrKD0l7jxd8/Xmg8+5WeYhAAAAAAAAAAAAiiG3gQ/qRPrGhWOCtfZOPE3lPuP/pgVbiqNSJ9fUyQ/amBW7xN2Dv1ZKH3Xc5nF7DddR7DqORffx36RXH/tc29QRqA5Bt67bT1RS6/GOysKndtuzlL4674AjR5h5b71R6szs0WfzUqfrEV8fVYqxGbnbNOhziD63Pl8Rr4m8JF1zuiWEaKCAyrBLy7jz3G0bhn/jVLtP5SlcF8Xli8qhrtHPDftiqRxq4IVeTwOlfM7VNSfuNaJ0rGZbSJrVoh5JaaJBWbqGb/rBd2wM7rjEtPTJhwLmIQAAAAAAAAAAAIqhpaVn/9bgearW69Y1eFaeOrH1a2bXUf2v1avM3T+/3nZgFYniHPW9n5jH7p9QNjZ1AA496lj7XFOmX3fh2bYjzVc0fZxy6eRmhkjrvR3N0tBvu/72+exZM+2jBoDolhvhz62Y5s+ZY/TravfLdHUOHvXN0+xzxatfU8cdX0n4fUS//A7f8iMc40vPPWt6bbGF7cR0v4BXR7huq5Fm3mRJHa8jR19q1l1/g8JeE0myKo9OpWtO2/c//KhSmrm0nPmX59cos9HyEL3eJt99e4dZFJLyxZUz0bUSLtf1nhst+447Jlz2w6Kx16tSmrhr+5H77rbr7jgNNFFcSWnpkw9FzcNKVqz8IHgGAAAAAAAAAACALOU28AEAgLUZAx8AAAAAAAAAAAAag4EPyFX4V9Zhaf1qHQDywsAHAAAAAAAAAACAxmDgAwAAGWDgAwAAAAAAAAAAQGN8JHgEAAAAAAAAAAAAAABoOgx8AAAAAAAAAAAAAAAATYuBDwAAAAAAAAAAAAAAoGkx8AEAAAAAAAAAAAAAADQtBj4AAAAAAAAAAAAAAICm1dLSs39r8BwAAAAAAAAAAAAAAKCpMOMDAAAAAAAAAAAAAABoWgx8AAAAAAAAAAAAAAAATYuBDwAAAAAAAAAAAAAAoGkx8AEAAAAAAAAAAAAAADQtBj4AAAAAAAAAAAAAAICmxcAHAAAAAAAAAAAAAADQtBj4AAAAAAAAAAAAAAAAmhYDHwAAAAAAAAAAAAAAQNNqaenZvzV4nouddt/LnHHJ5Wa9DTa06w/ecZu5/fqr7PO8ffuya81n9h4crH1owdw55vJzTrPPz7vyerNp7z72ubz+9xnmwq+NCNb8RNOm0msfdNSxZv8vHWmuvegc89ZrrwRb03fpr+4wC9+dZ646/6xgC9JW5OuhWlmXx2NP+7Y5eMTx9vmKZe+ZsRefZ/76zFN2PU7ceVtsvW2Ha/m5Jx/rUM6T8iVcV7j6wX12n3PD+1avXmV+c8N1ZtLdt9v1aMySZv2TlCaVJJ3nkw9FzUMAAAAAAAAAAADkK9cZH9RB+u3LrzOP3n+f+cqgAXYpUmeSOs1cXFrOO2647RD786N/sB1iG/foadbp0tXcdu0VpWPS6nSUfYYdZibcPK703ht89GO2cy5MgxGOP+tc06Vrt2BLMSiuaKyNps7Km+6fYstZM1DH7UnnjzYzpj9n81zlar9DD2+a+CXr8qi0UJq4a05ppTRT2sVJOu+U0T80y/65xO77ybdGmR0GfMZ2sktSvug4Ha/ztF+vo9cTn3NVfrt07Wq3a3n4njvN8JNG2u2Sdf0TlyZx4s7zyYei5iEAAAAAAAAAAADyl+vAh32GHWL++uc/Nc0vZ/c9+HD7+PiD99lHWb3qA/P2G68Ga+m64fsXlH7drYEWGnCx5Xb9Sx196mQW/foYze/TA/e0Hdn/O+FOu668f/edt8yOA3ez60XXiPKotFCauOtCaaU0U9rFiTtPAwk22rSXeWLiA3afZhBQJ/cnPzPQrifli47T8W7mAb2OXk+v63Outv34rFF2u6jeWbFsmfn07p8NtmRX/ySlSSVJ5/nkQ1HzEAAAAAAAAAAAAPnLbeCDOpQ0g4HrTCo6DTbYY7/Pl2Z7kM233MZ2iDVK77597S+R3fvr191p/sI7SjM2/HrqdLuMnTCpw6/4lR7a5vbfPPkJm6du+1af2MFOG/8/jz1jfxld6fgk+iW2O0eL61wXxRded++hc/Semk2k+8Yb2xkItF37i0wdqYsXzCt1vsqLz03rMNilyLIuj0oDpYXSxFFaKc2UdspzlSv3S3yVL61/96e/iD1PAwk0gOCFaU8He415adqzpY7vuHwZcthwe5yOd/Q6ej29rs+5UW6Gh0Xz5tr1LOufuDQ57IT/sukank1B15euxbjz9HnrzQefc7PMw2a4LgEAAAAAAAAAADqD3AY+qNNu1QcrzcFfObHUqV3kzulysz3IehtuYL5zzU2Zx6/OO03FHu74y5IGFahjT7fY0PTuGvCx2ZZbB3vbf0E984Xpdp+O0S/RvzD8aDso44zhB5nX/z7D3mP/xMG7219IVzo+jjpWDzjy6NLU9pVu91GO3vOq8840SxctsucrJjdgBGsn5blum3PQMcfZ61DlS7/Mv+XqnwRHNDd9nmjnfqPqn7DXX55hb8Gz99CDbb3k6sYbx3zXPgIAAAAAAAAAAACNluutLnpstrkd/KBObS3h+6oXjaZCD8/2IOpoVcd+OP7zrrw+9c5HdS6eccnldir2RtwWRPFr0EP48+p9NZjB0WfXrThEx7wxa6bZpGcvu15OrceL0ly3QtG5ovMUE7+0RiVuYNLxZ55rtttxJ/Obm8ba9WanwT4a+HTzZWNK12Sj6p9y9N6aBeGI/xppB0BM+s34UlwAAAAAAAAAAABAo+U68GHFe8s63OoifF/1IlE8mmnghWf+FGwpT52smnpesxukRbMe6JYN+oX1VeefFWzNVnRK/Uo0tb2brUO3tUhSy/HqvFWaz33zzWBLO8Wk2BRjZxG+vQnKc+VE6aRO+O0H7GqenPxgh9sTlBMtX2HL31tqFs1/N1hbk/Jlwdx3grWONKAr7vqp9lxdB5rJQYOEThq6T+znyaL+iQqnid5vi623MbNe+mtpcFIlOm/p4kXB2pqS8sHn3CzzkOsSAAAAAAAAAACgGHIb+PD2G6/aadubge7zrk6upE5U0WfSZ0uDBj3ssd/nzUVfG5HYsZgmdRTqc2zcq3ew5cOBCI4GMSx8d17p1+a6rUWcWo9Xh6LSvHffvsGWDyV1ZjYrdeAqjcO/2NesF0o3lC8TGpSkwVLhDup9hh1i3m47VteO0jLpPC3RwTQ7DtzNdnzr3Lh8KXetaODB+ht2t/WAz7k6RzM4aJaTC9vqgGqkVf8kpYno1htLFi6wM2u4wWpx5z33xKN154PPuVnmIQAAAAAAAAAAAIoht4EPGkSgjqxjRp0RbGnvsNT06dUMMGikSp1cX/rayeago44N1oz9LPpMacSvTjZ13EZvr9EIrqPYdRyL7uO/ae8+9rm2qSNQHYJuXbefqKTW450Xn5tmdtrjs6U01nkHHXOcmfPmG6XOzJ6bbVHqdD165OmlGJuRu02DPofoc+vzvTTtWbuO9llhdMsHVybU+a5O6xemPW3XdUsI0UABlWGXlnHnuds2uLpI5UnHqvxJXL6oHOoa3e/Qw0vlMFyP+Zyra07ca0RlWf8kpYkGZekavvaic+yMD+64pPN88qGIeQgAAAAAAAAAAIBiaGnp2b81eJ4LzQSw1Sd2sM9f//uMqn/Z3CjqbD/rR1eaR357j+1cC1Pn38Ejjg/W0o1f76tfe0c78levXmV+c8N1HWJxM0Ncfs5pthMvLdG8EQ0A0S03wp9dMc1/523762r3+dU5eMypZ9rnile/po47vpJoGmumiPAtP8IxvvDs06ZP3y1tJ+bt119lt6kjXLfVWDB3TurpkwV1vJ5xyeVmvQ02LJvXzSCr8uiEy0Q4X7X9gCOPLqWZS8sZ059bo8xGy0P0envwjttKZUiS8sWVM4nWA/WeGy37jjsmuj/N+kcqpYm7th++50677o7ToAu9f1Ja+uRDUfMQAAAAAAAAAAAA+cp94AMAAAAAAAAAAAAAAEC9GPiAXIV/ZR0W/bU2AAAAAAAAAAAAAADlMPABAAAAAAAAAAAAAAA0rY8EjwAAAAAAAAAAAAAAAE2HgQ8AAAAAAAAAAAAAAKBpMfABAAAAAAAAAAAAAAA0LQY+AAAAAAAAAAAAAACApsXABwAAAAAAAAAAAAAA0LRaWnr2bw2ep2q9bl2DZwAAdD4rVn4QPAMAAAAAAAAAAECWmPEBAAAAAAAAAAAAAAA0LQY+AAAAAAAAAAAAAACApsXABwAAAAAAAAAAAAAA0LQY+AAAAAAAAAAAAAAAAJoWAx8AAAAAAAAAAAAAAEDTYuADAAAAAAAAAAAAAABoWgx8AAAAAAAAAAAAAAAATYuBDwAAAAAAAAAAAAAAoGm1tPTs3xo8T9V63boGz8o7auQZZuhRxwZrH3p/+TIzbsyF5sVpfw625Gv/I442R33zNPOf63Sx65Pvvt3cPW6sfS7hz5F27J8cuIcZOfpSs+76G9j12bNmmjEnn2CfhynGwYcONzf94DvmnddfDbamb/TPbjWL3p1nrr/43GAL0hbN82h5awZZl8d6r7m48zbbahtz5qVXm0169bHr0//0xw7lPClfTrvkCjPgs5+zzxfOm2Ouu/Ds0mf3OTe871+rV5m7f369eeTeO9eINywae72S0qSSpPN88qGoeVjJipUfBM8AAAAAAAAAAACQpdxmfFCn0Un779FhUcf+zL88n9rAAV/q7Dr8q980j9x3t43vjhuuNp8b9kXbsSt61Lq2a79iP+HsC2wHXBo+e8DB5r5bfm5fe/TXR5j1N/yo7ZwL02CEEaeebbp0bR+YURSKKxproyn/rr5nUim/ik7lRuVH5ahceWsGWZfHeq+5pPNOuuD7Zvl7/7T7rjn/DNN/511tJ7sk5YuO0/E6T/vt67S9nvicq/K7TtdudrsW1UOqj7RdHfLnf+Xw0j4teu1/Ll5kHv3dPfZ8X3FpEifuPJ98KGoeAgAAAAAAAAAAIH+FudWFOpE+tkmP1Drt0tC731Zm9apV5qVgIMaM5581K5a9Zzbu2cuu77DLQDN/ztv2F9ii2Nfp0tXssOtudt3XLy4dXXptdXRO++MU03fbj5c6+tTJLPr1MZqfyo3Kj7sGlPcqXypnzaAR5bHeay7uPA0kUN0zdfKDdp8GXqmT26V7Ur7oUce7AVt6Hb2eXtfnXG275rzT7XaZ+tADtv7ZsW1fOYOGHmxenfG3VAaOJaVJJYlp2fZYdz74nJthHgIAAAAAAAAAACB/hRn4kGanXVo00GH1qg/Mfl880q67DjANhNDgAw1CmPF/0+w+UexLFs7PrEOs1+Z97S+R3fTruu1FuVtfpEUzNtz8yJ/tctmv72v77N2CPe2/gtY2t/+nv3/EdhK67f2262+njR/30BN2UEul45Pol9juHC2uc10UX3jdvYfO0Xue/sMrzUc32tjOQKDt2l9kKjcqP+FrQOUrPNilyLIuj0qDuGtOea5y5X6Jr/Kl9XOuuiH2PA0k0HWu693RsaWO75h8+dzBh9vjwq/t6g29rs+5URtt2sPWP7rdTFTaA8fi0uSgr5xo0zU8m4KuL12Lcefp89abDz7nZpmHzXBdAgAAAAAAAAAAdAaFGPiQdqddWjTAQPd5VweXOt01zfwvf/L9Dh1gjaLOO03FHu6cy5IGFehz6xYbmt5ds0306bdlsLd9EMisv/3V7tMx+iW6Boi4Kfh12xLdY3/kgfvYX0hXOj6OHcBw+FGlqe0r3e6jHL3nT797jp36X+crJjdgBGsn5fkfJ/7OHHDkCNshrfKlX+b/+qdXBUc0N32eaOe+08iBY7P//rK9Bc9enz/I1kuDDjzEbr/5x+23hgAAAAAAAAAAAAAarRADH/SL2qLN9iDq1DvnyhvMw/fcYTvex4250IwcfWnpl86Nojj0vpqK/e5xY4Ot2XG/rNdgBzdYQO+rwQyOOpl1Kw7RMW++8o/SLUDKqfV4Ubn427NP23NF50Vv9wGE6XYQcswpZ5ttdviUmfCLG+x6s9NgHw18uvXqH68xgEf1gwYENXLgmK5JzYJw6Akn2QEQqiOjcQEAAAAAAAAAAACNkvvAB3Vg99piy4bNZFAL/cJanXuu410DM/SLcnXIx5n39pvBM38aZKFbNugX1tdffG6wNVtxU+qHaWp7dwsK3dYiSS3Hq1yoMzealopJsSnGziJ8exOU58qJ0kmd8J/YaWfz1B8mJQ6mirtWl7/3nlm8YH6wtibly8J5c4K1jlZ9sCr2+qn2XF0Huo2EBgmdftj+ZT+Pbseg12vEwLFwmmhQyeZt8WnQmqsjK9F5mn2lkqR88Dk3yzzkugQAAAAAAAAAACiG3Ac+6BYIUm769iJTh5c6vnpt3jfY0v7La92yI2nAQLU06GHg54aYMSNPTOxYTJM6CjWlfnhGBjcQwdEgBn1OzYShRbe1iFPr8eXS10nqzGxW6sBVGodns9Agm7TKU7Or9prTbR/eeeM1e+0oLZPO0xIdTKN0X71qpT03Ll/KXSuq09bfcEMzd/brXufqnDMvvdrOcjLm5BOCI9ak10t74FhSmkj7wLCFdmYNpafEnadrvt588Dk3yzwEAAAAAAAAAABAMeQ/8CHUOVU06kzs0Wdzs/8RR9t1dbR9btgXS52MUyc/aKefd/vj7sFfK3WyqeM2fLuJRtH7qZPRdRyL7uO/Sa8+9rm2qSNQHYJuXbefqKTW4x2l86d227OUvjrvgCNHmHlvvVHqzFT+uE7XI74+qhRjM3K3adDnEH1ufb4izoaSl6RrTreEEA0UUBl2aRl3nrttw/BvnGr3qTzp2NJ1HpMvKoe6RlUvuHKogRd6Pc3A4HOurjlxr1GOzktzsJWTlCYalKVr+KYffMfO+OCOS0xLn3woYB4CAAAAAAAAAACgGFpaevZvDZ6nar1uXYNn8TQTgDqQ7h43NthSLOrkOuqbp5n/XKeLXdcvj8O3nFAH4NCjjrXPNWX6dReebTvSfKmTX7/2jnbk/2v1KnP3z6+3HX2Omxkirfd2lDf9tutvn8+eNdM+qoNVnz/8uRXT/DlzjAawuF+mu3QTxatfU8cdX0n4fSSa/uEYX3ruWdNriy1sJ6YrT+oI12010sybLKnjdeToS826629QNq+bQVbl0al0zWn7/ocfVUozl5Yz//L8GmU2Wh6i19vku2/vUCcl5YsrZ6JrJVyu6z03Wvad8DG6zgYfOtwOQEg7rSulibu2H7nvbrvujtNAE8WVlJY++VDUPKxkxcoPgmcAAAAAAAAAAADIUu4DHwAAWBsx8AEAAAAAAAAAAKAxGPiAXIV/ZR0W/bU2ADQbBj4AAAAAAAAAAAA0BgMfAADIAAMfAAAAAAAAAAAAGuMjwSMAAAAAAAAAAAAAAEDTYeADAAAAAAAAAAAAAABoWgx8AAAAAAAAAAAAAAAATYuBDwAAAAAAAAAAAAAAoGkx8AEAAAAAAAAAAAAAADStlpae/VuD5wAAAAAAAAAAAAAAAE2FGR8AAAAAAAAAAAAAAEDTYuADAAAAAAAAAAAAAABoWgx8AAAAAAAAAAAAAAAATYuBDwAAAAAAAAAAAAAAoGkx8AEAAAAAAAAAAAAAADQtBj4AAAAAAAAAAAAAAICmxcAHAAAAAAAAAAAAAADQtBj4AAAAAAAAAAAAAAAAmhYDHwAAAAAAAAAAAAAAQNNi4AMAAAAAAAAAAAAAAGhaDHwAAAAAAAAAAAAAAABNi4EPAAAAAAAAAAAAAACgaTHwAQAAAAAAAAAAAAAANC0GPgAAAAAAAAAAAAAAgKbFwAcAAAAAAAAAAAAAANC0GPgAAAAAAAAAAAAAAACaFgMfAAAAAAAAAAAAAABA02pp6dm/NXjeUP+e93LwDEDWZs+ebfr16xesFQ/x+SE+P8Tnh/j8EJ8f4vNDfH6Izw/x+SE+P8Tnh/j8EJ8f4vNDfH6Izw/x+SE+P8Tnh/j8EJ8f4vPT2eJjxgcAAAAAAAAAAAAAANC0mPEBAAAAAAAAAAAAAAA0rU4748Mjzy81X/nh303fo58NtqSvEe8BAAAAAAAAAAAAAEBn1ikHPvzkjrfM1y77h/nczh81T9+wc7A1XY14D6BaukdOkRGfH+LzQ3x+iM8P8fkhPj/E54f4/BCfH+LzQ3x+iM8P8fkhPj/E54f4/BCfH+LzQ3x+iM8P8fkhPj+dLj7d6iKPJS9/eG5Ja98vP9s6e97KYEv6GvEeQC3aLvVCL4MHD+7wfPny5UHk7bQePqbRC/H5LcTntxCf30J8fgvx+S3E57cQn99CfH4L8fktxOe3EJ/fQnx+C/H5LcTntxCf30J8fgvx+S3E57cQn99CfH4L8fktxBe/bLrppq2jRo1qPe+88xqydLoZH345cZ658LgtTN+eXYMt6WvEewC1aKu7Cr08+uijpefrrruumThxYhB5O61re/icRi7E57cQn99CfH4L8fktxOe3EJ/fQnx+C/H5LcTntxCf30J8fgvx+S3E57cQn99CfH4L8fktxOe3EJ/fQnx+C/H5LcTntxBf/PKDH/zAHHnkkeaCCy5oyNLpBj488cJSc+heGwdr2WjEewBrq2HDhplJkyYFa+20ru1FQHx+iM8P8fkhPj/E54f4/BCfH+LzQ3x+iM8P8fkhPj/E54f4/BCfH+LzQ3x+iM8P8fkhPj/E54f41vTGG2+YXXfdNVhrgHK3oWjEkhez35PBs+w04j2AWixZsiR4Vkzvv/9+8Ky1ddasWa29e/cO1tr16dPHbs8L8fkhPj/E54f4/BCfH+LzQ3x+iM8P8fkhPj/E54f4/BCfH+LzQ3x+iM8P8fkhPj/E54f4/BCfH+KLp9tPLF68uGFLp5vxAUCxbbvttqatojVTp06163psq4jt9iIgPj/E54f4/BCfH+LzQ3x+iM8P8fkhPj/E54f4/BCfH+LzQ3x+iM8P8fkhPj/E54f4/BCfH+LzQ3z5Y+AD0Al07949eNbRwoULzYgRI8zMmTODLfno1q1b8KzdQQcdVLrPkB617uP22283LS0tpUXrtcg6PqX/gAEDSvG5RqdaWccXprQbOXKkef/994MtybKO75JLLumQv1q0rVpZx6fr7MADD6wrNskqPuWh8jKcbm5Reay2Xmj09VG061fXazjtinL9Kt1Uv6v8hdWanlmmn9670vUQty+s0emnuML5nVf6VZu/SeWx0fGFKe2S2pNGx1dre9Lo+LReS3vSqPjqbU/yvj6Kdv3W2p6kHV+0/EffP+/0S4rPUboqfSuVO6fR8eXdftSav0Urf2F5tB9J8UX3a9G2ShodX97tR6X4itJ+JKVf0es/rcftj0o7vvD7l8u3vNMvKT4nr/YjKb68249a87do5S8sj/YjKb7o9a0lro5udHx5tx+V4itK+5GUflrXdndM0a7f8H4tWo+TdnxhKlvR8pV3+oWVi8/Jq/0IKxdf3u1HWLn4ovlbtPIXlkf7EVYuPq2H81dL3GdodHzR9qMWL774YuKSqNxtKBqx5IVbXQDtFixY0Dp06NDWnXfeufXll18OthbDk08+2brLLrvY53p84okn7PN6jB8/3n5OfV5xn1vb65VmfEp75YFe060fcMABXnmSZnxhLtaTTz65dcWKFcHW2qUZn+JQPD75GZVF/rr4ilb+olx6jhkzJthSuzTji6ZX9HqpR5rx6bXavkqV4nHx5h2fS6dw3SdppGca8YliUNqVK2tx+5JkmX6KK7wtmp7VyDK+aH5qvdb2JMv4wtwxtbYnWcaXRnvSiPx18RWt/EXV055kGV80vdxxes9qZRmfXtu3PfGJT/kUvh6j6ZN3+iXF57g4tU/H1CLL+JRu4TyPpmc1soyv3Hoj249q81fcvvDx1cgyPm3X/lryMyrL+Ny6i69o5S/KpafOq1aW8RW9/tNjnu2HzlU8isutx9V3jU6/pPgcF2f42GplGZ/SLS49q5FlfNH81Hoj24+k+MJcrOHrqRpZxufqu1ryMyrL+FyaufiKVv6iGt1+JMUXTS+XnjquWlnGp/U8248wF0s47/JOv7By8TkuznBaVyvL+JRu4fyOpmc1sowvmp9az+P/V1IuvjAXayPbj7By8eXdfoSVi8+lmYtP5a/aW13o9c4444zWcePGtQ4ZMqS0aF3bL7nkktJS7ny3MOMD0AksXbo0eNZOI+g23XRT01bvmF69egVb87Ny5crgWbtBgwaZuXPnmkcffdQ+7r333sGe2mgUXlulbY4//nizySab2G161Lq2x43SC8sqPpk2bZoZPny4fU3p37+/fT1tr1aW8TlKq2uuucZsv/32wZbqZRlfW0NvXn/9dbPVVlsFW2qXZXx33XWX2XPPPc0RRxxh14tW/qLuvfdem56nnHJKsCVZlvG1fVGyjxohKro+zj33XHPbbbcVIv2mTJli2r7Y2dcU5e/FF1+ca3wahazrtNy1+tBDD9lrxZXHatIz7fj0PholfcUVV5i2P2qCre3i9lXSqPRTbPW0J43M33rak0bG5yitqm1PGhlfPe1JI+Orpz3JI3+datqTRsZXT3vSyPjqaU/Sik+/xNDfBipP6667rt2m9FF9orgkz/ajmvik1r9vGhWf0ifP9qOa9Muz/ag2f0Vp1ej2o5r48mw/qonvrhzbj1ry12lk+1FNfHm2H9XEp8e82g/R+ys9FJfsuuuu9lpw6Zb33x9J8YnSOI/2Q+LiU/rk2X5IUvrl/fdHNfkrSqs8/v5Iii/vvz+S4suz/ZBq89dp9N8fSfG5x7z+/kiKT/vzbD8ctXXXX3/9Gv8DKsL/r6RSfJJn++GUi0/pk3f74VRKv7zbDycuf0Vpldf/r6RSfEX4/5VUiu+uMu1HLXbccUdz9NFHB2vttK7t++23nznttNPstriZHxj4ADTQ5GeXmJYhU0vLqGtfMctX/j9z8AUv2edhWg9vG3vvnA7nar0eqrD1JeHJJ580Y8eODbYWj6bXuemmm7ym2dE/B8aNG2eOPfbYYEt60ohPFJu+WEa9+uqrwbP6pBWfc+WVV5rNN9/cHHroocEWP2nFt2DBAvsFU18005RGfLrW3n77bbPPPvuU/lElynOVy/C2WqWVfmGaYkwdziqPtX4hicoivjSlEZ/L32222SbY0k5lUYPN9CW0XvXGpy+cDzzwgP1D9vTTTw+2fkj1iq7jcNkbOHBgzfH6pN/zzz9vH5966qk1vlTH7atFFumXZnuSRXySVnuSVXyOb3uSVXxptSdZxJdme5JV+oX5tCeNiM9HFvGl2Z7UE5/ySP9YdP90KifP9qOa+NL6+yaL+PJuP6pJvzzbj2ric/JoP6qJL8/2Iym+vNuPWvJXGt1+1Bqfjyziy7v9EOVVufpN/4yXvP/+SIovz/ZD4uLLu/2QpPTTPh0T1ai/P5Lic/L6+yMpvrz//oiLL+/2Q6rNX8nj749a4vORRXxFaD9EcVx00UXmkEMOWeN/QHm3HxIXX97th1SKrwjth8Sln2JTGY1qVPshcfE5ebUfEhdf3u2HVIpP28u1H740yGH+/PnBmjE9evQInpXHwAegQTTo4cDzXzQPXfZJ0zplkJk7YXfz2PSl5pcT3zVDd9vIPp+3eLU9Vo9aP3xQ+5c1DXK45LY3zfRfDLDn6lHres1qdO/ePXj2YePXiD/uqxW9x5Cown3sscfqqnjjqPLV6Mbol6c4jYxPo0UnTJhgvvzlLwdbkmUdn2LSUsssAGFZxqeG/uGHH7YjL6u5n1U5WcWnL+L6g6Jnz54d7j1YlPii7gpGY2oUeC2yjM+NqNU//EQdR/rDopYvT1nFp/dXPRL9Uq4yOWPGDPtYjTTj0x/4d9xxR2lEf5j74hn9w1YWLVpUMd60009tT6V/lMTtq6RR6VdONe1JnvFV0540Or5a25NGxldPe9Ko+OptT/Iqf9W2J42Mr572pFHx1duepBlflNJH16rajKK0H2Hh+ERpWOvfN42ML6rR7UdUUnza18j2I6pcfFrXkkf7ERWNL+/2IyocXxHaj6i48ndXDu1HVDS+vNuPqHB8RWw/3C+u9QvnIrYf4fikaO1HNL6ovNuPpPhUNvNsP8rFp5i0FKH9iMZXtPYjHF8R24+48leE9iMaX9Haj3B8RWk/FJO4X4U7RWk/KsUnRWg/4uKLyqP9qCW+PNqPpPjybj/i4itC+1EpvkrtRz1UHtzyt7/9zQ52SBrw4DDwAWiQ+6YuNCMP622G7vYxu95ro3XMjFt2NWcc0cfsu/NHzYKl/zLTZy23+9zjgO3WtzNCTH52sbn4+L5m523Xt9v1OP+3u5dea22077772lFcekyTRuqp8q23E99JOz6NTh4wYIAdIaepnqrpWIiTVnz6Yq6Gs55R03HSik95ufPOO9tfUGqkoxpXfTlOauyTpBWfaCq2b33rWzY+fTHRl6YixSfuH2ia9qzSF+BapBWfypymBtcfh/qSpJGslUat1yKt+IYMGWJGjx5t0070h4Ri9ZVWfFkhvnb1tidZx+fbnmQVX1rtSVbxpdWeZBWfpNGeZBmf+LYnWcWXVnuSVXxptSdpxKf31i83wlPLpoX42uXZfsTFV4T2o1x8RWo/ysVXpPajUv4Wpf2IK39FaD/KxVek9qNcfEVpP/T+Sp/jjjuuw9TaaSG+dnm1H0nx5d1+VIqvKO1HpfiK0n7E5W8R2o+k8pd3+1EpPj0Wof2oFF/e7YfqjVtvvdWWrzT+D1kJ8bVrdPtRbXx5tR9J8eXdfiTFl3f7UU3+RtuPeuj2FtFFAyqqwcAHoAE0eGH2vA/MDv3WC7Z0tN3m3czu229gB0eIHgcP6G4HRyx7/9/m1TkrTf++yY1YJZoGqsii9xiSxx9/3I7g0mNaVPlr9OB1111XU6PViPjUsE+fPt02BqIRcfrSWY0s47vxxhvt6NVaRrBGZRmf/mBQurkvRmps9UVe+axGuBpZ5+8NN9xQik/lTl+aihSf6IuSbB+MSK9FlvHpD7D999/fXrPui5z+ECvK9aHrQtPa6Qu6/pDca6+97CjZau7t5zQif30QX3nVtid5xFdLe9LI+OppTxoZXz3tSaPzt9b2JI/yV0t70sj46mlPGhlfPe1JFvEpLfTPCf0j5Uc/+lHFf2JUg/jKx5dn+5EUX97tR6X4itJ+VIqvKO1HXP4Wof1IKn95tx+V4itK+1EpvqK0H4rDpY9+UVrrP97DiK98fHm2H0nx5d1+VIqvKO1HpfiK0n7E5W8R2o+4+CTv9qNSfEVpPyrFp+15tR/6/Ndcc4054YQTSuUrDcRXnvK8ke1HLfFpf6Pbj2riy7P9qCa+PNuPavM32n40GgMfgAJYv9t/mDOO2Mze3uKvry7vcJuLzmrSpElm8ODB9jENrpG/8847YyvlaqUdX5im73nttdfM7Nmzgy21SyM+N2paI4D1JViLRgj/7Gc/s1+IKzWk1cgy/TSKupaO53I6W3xTpkyxX+bS+iKSRnz6IqU/CjVCNPxFTv/wK8L14bg/IrXoS6fyV9eKHuuVZnyO0q7cVIay8cYb1xRvFvGlKev4fNuTRqZfPe1JFvGl2Z40Mv3qqa87e3y+7UkW8aXZnmSZfmm0Jz7xKZ1cp5p+nebysCjtR6X40pR1fHm2H7WmX6Pbj0rxFaX9qDX9Gl0/rw3x5dl+VIpP24vQfiSlX97tR5jSR/9413WrTrai/f0Rjk/1S1qyjq8of39Uk355/v0Rju8f//iHfSzS3x/VpF+j6+ewcHy6nUA5RYkvnH5F+fsjHJ9+eV20vz/KpV9e7Yc+/9NPP22vSXd96lrV4m61kmf7kRRfpeu3HlnHl0f7UW/6Nar9SIov7/aj3vRrVP2cFF+l9qPRGPgANIAGNvTr1dXMmL0i2LIm3dZi4w3/09z/p8Wlddlg3Y+Ybfp0MzPfLD/arRrdu3cPnhVTuXsMqcIdNWpUTRVvJWrk1WA98sgjdTXyWcan2LT4yCo+/dGge9G5L8Faxo8fb04++WTz1FNPVZ2WjU4/TZ+kRrfaL8JZpp/+iNA/qMKKEp+jf6Tpj7Jy986rRtbx+coyPv3jMToaudY/uhuZfspj5XU43mnTptk2Yr31ys9I1Jnzt5xa25NGxldPe9Ko+OptT/JOv6T6upHpV0970ujro9b2pNHx1aqR8dXTnqQZn95X/4iV3/72t2u8Z97tR1J89Wh0fHm2H0nx5d1+xMWn53m3H/WkXyPr56T0y7v9qOb60DF5tR/VxFerRsaXZ/uh99R7K4ZK8mw/qomvHo2OL6/2o5r48mw/kuJT52ie7Ue96deo+rma9Muz/aj2+tBxebQf1cZXq0bGp306Rsc6jWo/dP1poEX4+hwzZoxddN3q/fNsP6qJrx6Nji+v9qOa+PJsP5Li+/jHP24fw/sb2X7Um36Nqp+rSb9y7UejMfABaBDN4HDP4wvNX15ZHmwxZtS1r9hFdFuLnbZd33z3v98o3eZCNGhi6G4bmZt+P8fMW7zabtOtMw6+4CUz9t45dn1to0a5d+/eZr/99rOPmnqrXvoip9fTY71fTKLSjK/cPdU0XZCmGqvUkCZJM74spJ1+GrnqRltq1KMafo1irje/04xPo1V1z6tofHF/SCRJO381klpfRnSv2DSkFZ8bjX7FFVeU0s9dH1tvvbXp16+f3VarNNNv4MCBdpTr888/b9f12iqPyvd6pZ2/YRp5q7y+99577brSVemrdFZ6VyPL+NKQZXxptCdZxpdGe9KZ8zeN9iTL+NJoT7LOX9/2JKv40mpPsky/NNoTn/h0z1dRmpRrD/JuP5LiS0OW8eXdfiTFl3f70ez5m3f7kRRf3u1HNfmbZ/sRF5/W824/ktIvz/ZD8eyzzz4d0ida/vNsP6qJLw1Zxpdn+1FNfHm2H2tD/ubZflQTX57tR7X5m1f7kRSfZivQY3h/I9uPatIv778/kvD/Kz95//2RJO+/Pxoh6/TL8++PJOXaj0Zj4APQIEN3+5gZf+EnzIBvTDctQ6baRW46a1v7KO72FtHbXJxxRB8z6rA+pvfwZ+x5Gwx72g6G0PZqLF26NHhWTNF7DE2cONHeV0z0WMuoszBVqppabPLkyXa0m0a9uUVfoKqtdLOKT/QHgxoWNeyKS6NW9QVZ982rVpbxpSHr9NM9o3QvPzeqUY287nVVrSzj05e1sWPHmqOPProUn2IuUv5qRKhGZ1YaEZqkkfnrro9x48ZV/YdO1vmr+Nz1e+qpp9Y8fVzW+RumL7+6p5/+WFS8SldNvah0rqSR8dWjUfHV2540Mv3qaU/I3w/V0540Mr562pNG52+t7Ume+VtNe9Lo/K21PUkrPv0zQv800dSdShe9v1vcr8DybD+qia8ejYpPv1TLs/2oJv3ybD+aPX9d+uXVflQTX57tR7X5m1f7UU/+6rhGtR/V5m9e7YeonKs9qFT+8/77Iym+ejQqviL8/ZGUfnm2H5IUXz0anX55tR+SFF+e7YckxSd5/v2RFF+e7YckxZd3+5GE/1/Vj/9f5aPR6Zdn+5GkXPtRi5deesnWR3GLjonV0rN/ax5LXsx+TwbPstOI98Da6aFnFrduf+JzrXMXrQq2pGPJkiXBs2Jq+4M9eNZul112aW1r/OxzPWo9T8Tnh/j8EJ8f4vNDfH6Izw/x+SE+P8Tnh/j8EJ8f4vNDfH6Izw/x+SE+P8Tnh/j8EJ8f4vNDfH6IL955553Xunjx4sRl5syZNp5qlnLnu4WBDxlg4APqNfKaWa3XTXgnWOucZs2a1dq7d+9grV2fPn3s9iIgPj/E54f4/BCfH+LzQ3x+iM8P8fkhPj/E54f4/BCfH+LzQ3x+iM8P8fkhPj/E54f4/BCfH+LzQ3xrqnbgQ1oLt7oACuAvryw3Pb70jJk97wPz9WE9g62dk6bVGTZsWLDWrgjTFTnE54f4/BCfH+LzQ3x+iM8P8fkhPj/E54f4/BCfH+LzQ3x+iM8P8fkhPj/E54f4/BCfH+LzQ3x+iC9/DHwACmDnbdc383+7u3nwxzua9bv9R7A1PUuXLg2eFVP4HkPh+ws5Wtf2vBCfH+LzQ3x+iM8P8fkhPj/E54f4/BCfH+LzQ3x+iM8P8fkhPj/E54f4/BCfH+LzQ3x+iM8P8fkhvoIpdxuKRix54VYX6IzaLvVCL4MHD+7wfPny5UHk7bQePqbRC/H5LcTntxCf30J8fgvx+S3E57cQn99CfH4L8fktxOe3EJ/fQnx+C/H5LcTntxCf30J8fgvx+S3E57cQn99CfH4L8fktxBe/NPpWFy0ahND2xg3373kvB88aq2XIVNM6ZVCwlo1GvAcAAAAAAAAAAAAAAEV0/vnnmwsuuCBYyx63ugAAAAAAAAAAAAAAAE2LgQ9AJzB79uzgWTERnx/i80N8fojPD/H5IT4/xOeH+PwQnx/i80N8fojPD/H5IT4/xOeH+PwQnx/i80N8fojPD/H5IT4/ece35ZZbmueffz5Yyx63usgAt7pA0ahi69evX7BWPMTnh/j8EJ8f4vNDfH6Izw/x+SE+P8Tnh/j8EJ8f4vNDfH6Izw/x+SE+P8Tnh/j8EJ8f4vNDfH6Iz0/e8c2dO9fce++95o033gi2ZIuBDxlg4AMAAAAAAAAAAAAAAI3BrS4AAAAAAAAAAAAAAEDTYuAD0AloKpsiIz4/xOeH+PwQnx/i80N8fojPD/H5IT4/xOeH+PwQnx/i80N8fojPD/H5IT4/xOeH+PwQnx/i80N8fjpbfAx8AAAAAAAAAAAAAAAATaulpWf/1uB5Q/173svBs8ZqGTLVtE4ZFKxloxHvAQAAAAAAAAAAAAAAmPEB6BRaWloKvey3334dnq9YsSKIvJ3Ww8c0eiE+v4X4/Bbi81uIz28hPr+F+PwW4vNbiM9vIT6/hfj8FuLzW4jPbyE+v4X4/Bbi81uIz28hPr+F+PwW4vNbiM9vIT6/hfj8lrTjY+AD0AksWbLEtLa2FnaZNGlS6fm6665rJk6cGETeTuvaHj6nkQvx+S3E57cQn99CfH4L8fktxOe3EJ/fQnx+C/H5LcTntxCf30J8fgvx+S3E57cQn99CfH4L8fktxOe3EJ/fQnx+C/H5LcTnt6QdHwMfABTKsGHDbEUXpnVtLwLi80N8fojPD/H5IT4/xOeH+PwQnx/i80N8fojPD/H5IT4/xOeH+PwQnx/i80N8fojPD/H5IT4/xOcnlfhaevZvzWPJi9nvyeBZdhrxHsDaatasWa29e/cO1tr16dPHbi8C4vNDfH6Izw/x+SE+P8Tnh/j8EJ8f4vNDfH6Izw/x+SE+P8Tnh/j8EJ8f4vNDfH6Izw/x+SE+P8TnJ434mPEBQKFsu+22pq0iM1OnTrXremyr6Oz2IiA+P8Tnh/j8EJ8f4vNDfH6Izw/x+SE+P8Tnh/j8EJ8f4vNDfH6Izw/x+SE+P8Tnh/j8EJ8f4vNDfH7SiI+BD0AnsHTp0uBZRwsXLjQjRowwM2fODLbkY+XKlcGzdgcddFDpPj561LqP22+/3bS0tJQWrdci6/iU/gMGDCjF5yr1amUdX5jSbuTIkeb9998PtiTLOr5LLrmkQ/5q0bZqZR2frrMDDzywrtgkq/iUh8rLcLq5ReWx2nqh0ddH0a5fp976NOv4qP/SyV+h/qsd9V+61wf1X22o/9LJX6H+q13Rr1+Vt3DaFaX8Kd1Un6heCas1PbNMP713pbIWty+ss5c/h/ajPtH8pf2oDe2HX3y0H/Wnn96b9sMvPof2oz7R/KX9qA3tR33xKa5y9XOt10uj46v1eml0fGHVXC+Njq/W6yX1+MrdhqIRS1641QU6oyVLlgTPPrRgwYLWoUOHtu68886tL7/8crA1H22VcvCs3ZNPPtm6yy672Od6fOKJJ+zzeowfP95+Tn1ecZ9b26uVZXxKe+WBXtOtH3DAATXlSZbxhblYTz755NYVK1YEW5NlGZ/iUDy15GdUI/LXxVe08hfl0nPMmDHBlmRZxhdNr+j1Uo1GpJ9PfZplfEo36r90rg8XK/Vf9Vyaufio/2pD/ecXn9KN+i+d68PFSv1XvaJfv3otY0wpHhdv3vG5dApfu1JPemaVfopBaVeurYjbF9WZy5/j4lRsirEWWcandAuXwWh6ViPL+KL5qXXaj+rRfvjFp9ei/agv/RQD7YdffI6LU7EpxlpkGZ/SLVwGo+lZjSzji+an1mk/qkf7UV98Lo7wtSH1XC+NjC+aflpPul4aGV+YOybpemlkfPVcL2nHx4wPQCfQvXv34Fk7jVDbdNNNTVsdYHr16hVszU+3bt2CZ+0GDRpk5s6dax599FH7uPfeewd7atNWYZq2StEcf/zxZpNNNrHb9Kh1bdf+amQVn0ybNs0MHz7cvqb079/fvp62VyvL+Byl1TXXXGO23377YEv1soyvrSE1r7/+utlqq62CLbXLMr677rrL7LnnnuaII46w60Urf1H33nuvTc9TTjkl2JIsy/geeughm7cu/XR9nHvuuea2224rTPr51qdZxUf9l971Qf1XH+o/v/io/+qPj/ovveuD+q8+L7/8sn3UjDdStOt3ypQpZsyYMaXyp+vj4osvzjU+/UpJ5axcWaunPkw7Pr2PfkV1xRVXmAMOOCDY2i5uXyVZ5i/tR/3xKX1oP/zzV5RWtB+1o/2oPT7aj/Tyl/aj/viUPrQf/vkrSivaj9oVsf2oVD/Xe700Kj6p53ppZHxOLddLI+Or53pJOz4GPgA5m7d4tdnhq8+bH41/y/T40jOmZchUu0x+dklwRLux984p7dOi9XqoQlSj9+STT5qxY8cGW4tH09fcdNNNdU+zI+uuu64ZN26cOfbYY4Mt6UkjPlFs+kMx6tVXXw2e1Set+Jwrr7zSbL755ubQQw8NtvhJK74FCxbYP3j0h0+a0ohP19rbb79t9tlnH1sWHeW5ymV4W63SSr8wTU2lP7hVHt0Xz3qlFZ+uA5W7cFoNHDjQ3r5HX6LqlVZ8WdWnacRH/Zfe9UH9VzvqP//4qP/qj4/6L73rg/qvWNKIz9XP22yzTbClndIyr/pF06I+8MAD9h+2p59+erD1Q2nVhz7p9/zzz9vHp556ao1/usXtq4VPfGG0H/XHR/vhH59D+1EsacRH+1Ff+tF+pBcf7Ydf+tF++MVH+1FbfHH1c5rXSxbxSVrXS1bxOb7XS1bxpXW9+MTHwAegIK6d8I75w5WfNK1TBpmHLvukOe7Sv5u/vLLc7tMgh0tue9NM/8UAu1+PWo8OjqhEX1Id17i4EWtFEL2Hj6hCe+yxx2qu2JLoi7JGD0a/zMdpZHwavTxhwgTz5S9/OdiSLOv4FJOWWn4FG5ZlfGpIH374YTu6sJr7RZWTVXz6w1CjG3v27GlH8Rctvqi7gl9n77rrrsGW6mQVX6V/rMiiRYts3lcjy/RLoz5tVP4K9V/tqP/qQ/3nFx/1X7r5K9R/taP+q5/71Yt+OSn6x4v+UR8dDBYnq/j0/roOov+0U5rOmDEjl/pFA87uuOMO+0uqqHrrw7TTT3Wd6rxy+Re3r5Ks8pf2wz++KNqP2tF+1I/2o7b4aD/a+cTn0H74xxdF+1E72o/6Fa39iKufy6nmeskzvmqul0bHV+v10sj46rle0o6PgQ9AQVx8fF+z87br2+dDd/uYOXLfTcy4++ea5Sv/n5n87OIO+/U4/7e72+PWVvvuu6+ZP3++fUyTRsKpM6beL1FO2vHp16YDBgywo7w1lVK1DW8lacWnL0pqmNL4FWxYWvEpL3feeWc7wlAjCdXZpj/Wav3yGZVWfKKpxb71rW/Z+NTw60tJkeIT5bPi0rRitfzRXUna8aWts8ZH/Vcb6j///KX+K57OGh/1X22o//ziU5pp6k/9s1H/5NEvXZSWvr9qSiu+IUOGmNGjR9u6T/SPRsXqK634skJ8fjprfLQftaH98IuP9iOd6yNtxOens8ZH+1Eb2g+/+IrefiSp93rJOj7f6yWr+NK6XrKKL63rxSc+Bj4ABdG/b8d/tu/Qbz0ze94H5t0lq82rc1ausb8W3bt3D54VU/QePvL444+bHj162Me0qHLV6LzrrruupkahEfGp4Zw+fbptDES/kNUfkdXIMr4bb7zRjqb2GVGdZXz6Aqd0c1881Gmlzivls76cVCPr/L3hhhtK8anc6UtJkeITfRGR7YMRwrVoRHw+iK8d9V/tqP/885f6L1/E1476r3bUf37xqUNo//33t2XO/aNH/4QsSv4qXzVNtP6Bp3+M7rXXXvZXNLXcK7sR14cP4vNDfO1oP2pH++EXH+1HOteHD+LzQ3ztaD9qR/vhF1/R24841V4vecRXy/XSyPjquV4aGV8910va8THwAUAhTZo0yQwePNg+psE1onfeeWep0vWRdnxhmjbptddeM7Nnzw621C6N+NyvYDWiX3/UajnuuOPMz372M/sHbrVf7MrJMv00qrWWP7zL6WzxTZkyxX5ZquUPsjhpxKcvReWm0pSNN97YpmO90k6/tKUdH/Vf7aj/Ok981H/FknZ81H+1o/7zi0//CNM/GTXjTfgfPZr9pgj566je0z/wtOifUko/5XXR6pc068Ms4ktTGvHRfqQXH+1H7Wg//OKj/Ug3f2k/akP7kV58tB+1o/3wi69Z2o9yfK+XrOMLq+d6ySK+NK+XRqZfPdeLT3wMfAAKYuabHUeLzZi9wvTr1dX0/Ng6Zps+3dbYX4ulS5cGz4qp3D18VKGNGjUqlYpXjagahEceeaSuRjTL+BSbFh9ZxadOIN0bzP1Rq2X8+PHm5JNPNk899VTVadno9NN06rX84Z1l+umfApreKawo8Tn6gqzppsrdy7EaWcanmBRbeDTttGnT7Cw26623XrAlXtbp5yvr+Kj/6kP9559+1H9+8VH/+cdH/Vcf6r+1//rQNLjRXyvVOgiskelXT33YmfOX9sM/PtqP+tB+rP3XB+3H2p2/tB/+8dF+1If2o3NcH1G1Xi+NjK+e66VR8dV7veSdfknXS9rxMfABKIhLbnvT/OWV5fb55GeXmHseX2hGHtrbrN/tP8zQ3TYyN/1+jpm3eLXdv3zl/zMHX/CSGXvvHLu+tlGj17t3b7PffvvZR02lVy/9YabX02O1f4glSTO+cvdIvOaaa+zUgfV8SZY048tC2umnkaFuNKNGPaph1fRJ9eZ3mvFpNOitt966Rny1/GMgKu381fRn6pzcaqutgi1+0ozvwAMPtLHde++9dl3peMUVV9j81ejlenSm64P6b+3OX+o///yl/lt7rw/qv7U7f4tc/+n6VBy6Xl18Ln+33npr069fP7utVmmm38CBA83TTz9tnn/+ebuu11Z6qt6uV5blL436MMv40pBmfLQffvHRfqzd+Uv74Zd+tB9r9/VB++EXH+3H2p2/tB/p5m8a10uW8aVxvWQZXxqyTj/f68U3PgY+AAVx1vDNzOfPedG0DJlqjrv07+YPV37S7Lzt+nbfGUf0MaMO62N6D3/G7t9g2NN2MIS2V0Ojc4sseg+fiRMn2vsEih7rHXWmSlVTPU2ePNmOJtOoMrfoC732VyOr+EQdQKq41XAqLo2i1vRyug96tbKMLw1Zp5/uIa97s7tRg2pEdS+pamUZn74MjR071hx99NGl+BRzkfJXIy41OrTaEcpRWcanL0O6x5u+vCv9lM+auk1pWK3Oen1Q/63d+SvUf/75S/23dl4f1H9rd/5K0eu/aHwuf8eNG1d1x0GW8al+Vnyu/J166qk1Ty/byPJXT33Yma8P2o/646P9WPuvD9oPv/hoP9bu64P2o/74aD/W/uuD9iO9/K33emlk+avneunM10dUPddL6vG19OzfmseSF7Pfk8Gz7DTiPbD2mLtoVev2Jz7X+tAzi4Mt2GWXXVrbGhf7XI9aLxLi80N8fojPD/H5IT4/xOeH+PwQnx/i80N8fojPD/H5IT4/xOeH+PwQnx/i80N8fojPD/H5IT4/xOfHNz4GPmSAgQ+oRSMGPixZsiR4Vkzvv/9+8Ky1ddasWa29e/cO1tr16dPHbs8L8fkhPj/E54f4/BCfH+LzQ3x+iM8P8fkhPj/E54f4/BCfH+LzQ3x+iM8P8fkhPj/E54f4/BCfH+Lzk3Z83OoCQKFo2pphw4YFa+2KMB2QQ3x+iM8P8fkhPj/E54f4/BCfH+LzQ3x+iM8P8fkhPj/E54f4/BCfH+LzQ3x+iM8P8fkhPj/E54f4/KQRHwMfgJz12mgdM+OWXc3Q3T4WbElf9+7dg2fFFL6HT/j+PY7WtT0vxOeH+PwQnx/i80N8fojPD/H5IT4/xOeH+PwQnx/i80N8fojPD/H5IT4/xOeH+PwQnx/i80N8fojPT+rxlbsNRSOWvHCrC3RGbZd6oZfBgwd3eL58+fIg8nZaDx/T6IX4/Bbi81uIz28hPr+F+PwW4vNbiM9vIT6/hfj8FuLzW4jPbyE+v4X4/Bbi81uIz28hPr+F+PwW4vNbiM9vIT6/hfj8FuLzW9KOr0WDENqeNNy/570cPGusliFTTeuUQcFaNhrxHkAtZs+ebfr16xesFQ/x+SE+P8Tnh/j8EJ8f4vNDfH6Izw/x+SE+P8Tnh/j8EJ8f4vNDfH6Izw/x+SE+P8Tnh/j8EJ8f4vPT2eLjVhcAAAAAAAAAAAAAAKBpMeNDBpjxAQAAAAAAAAAAAACAxmDGBwAAAAAAAAAAAAAA0LQY+AB0ArpHTpERnx/i80N8fojPD/H5IT4/xOeH+PwQnx/i80N8fojPD/H5IT4/xOeH+PwQnx/i80N8fojPD/H5IT4/nS0+Bj4AAAAAAAAAAAAAAICm1dLSs39r8Lyh/j3v5eBZY7UMmWpapwwK1rLRiPcAAAAAAAAAAAAAAADM+AAAAAAAAAAAAAAAAJoYAx+AToB7DPkhPj/E54f4/BCfH+LzQ3x+iM8P8fkhPj/E54f4/BCfH+LzQ3x+iM8P8fkhPj/E54f4/BCfH+LzQ3x+Uo9Pt7rIY8mL2e/J4Fl2GvEeQC3aLvVCL4MHD+7wfPny5UHk7bQePqbRC/H5LcTntxCf30J8fgvx+S3E57cQn99CfH4L8fktxOe3EJ/fQnx+C/H5LcTntxCf30J8fgvx+S3E57cQn99CfH4L8fktxOe3pB0fMz4AnUBb3VDo5dFHHy09X3fddc3EiRODyNtpXdvD5zRyIT6/hfj8FuLzW4jPbyE+v4X4/Bbi81uIz28hPr+F+PwW4vNbiM9vIT6/hfj8FuLzW4jPbyE+v4X4/Bbi81uIz28hPr+F+PyWtONj4AOAQhk2bJiZNGlSsNZO69peBMTnh/j8EJ8f4vNDfH6Izw/x+SE+P8Tnh/j8EJ8f4vNDfH6Izw/x+SE+P8Tnh/j8EJ8f4vNDfH6Iz08q8ZW7DUUjlrxwqwt0RkuWLAmeFdP7778fPGttnTVrVmvv3r2DtXZ9+vSx2/NCfH6Izw/x+SE+P8Tnh/j8EJ8f4vNDfH6Izw/x+SE+P8Tnh/j8EJ8f4vNDfH6Izw/x+SE+P8Tnh/j8pB0fMz4AKJRtt93WtFVkZurUqXZdj20Vnd1eBMTnh/j8EJ8f4vNDfH6Izw/x+SE+P8Tnh/j8EJ8f4vNDfH6Izw/x+SE+P8Tnh/j8EJ8f4vNDfH6Iz08a8THwAWiAv7yy3Gx/4vP2MQ1/fXW5mbd4tXn//ffNyJEjTUtLyxrLgAEDzMyZM+3x3bt3t4/lRF9Dz7UtTJVL+LVdpZOWbt26Bc/aHXTQQaX7+OhR6040lvByySWXBEfFu/322zucp/U41cZXbX5Ua+HChebAAw+MTW995iuuuCJYaxeXfpJ1fkZf/7nnngv2tEuKz9HnHzFiRM3ppjRx76300+uE1RtfWvmbFF9ULddHWNHSzylq+Usjf+upT2tJv+i54YX6r11c+kk0DeNevx4++RtWtOuX+q+db/4WtfxR/5VH/Vcbn/wNK+r1G6ayU225c/R5VB7c+6dV/lx5CX82t7h0qFRGwzFkFZ8oreLSq5r4wrQ9WsdE4z/rrLM67I+LL0yvo/IXLT9R0c+UlH7Rz1hrfEW9fivlnZZq67/oa0TzVnyu3+i54aXa61j5GT4vresjjfQLc/VBXPnQZ6b96Ehp4t6b9qN9of2g/ahWvddHpbzTUm39F32NaN6Kz/UbPTe8VHsdKz/D56V1faSRfmGuPogrH/rMtB8dKU3ce3em9iOqnvSr5vp19Lp6/eXLO/arJcUXvv7KXRe1pk9U9DNUWz+7682dF17C5Sgpvlrjrzd/XfpHy3ctFFtcHssbb7xhhg4dWsqnauOrWP7K3YaiEUteuNUFmt1Dzyxu3f7E51rnLloVbOloxYoVrSeffHLrmDFjgi2VuWO16LmMHz++w/rLL7/cuvPOO7c++WR7udaj1rU9K3qPXXbZxT7X4xNPPGGfV1JLTPp8bZVo64IFC+y6HrWu7dWqJb5a8iNK57RV06W0j9J27Y++dlx87hz3mu7zV3qPWlVTXrQtKf1cXLWWtWj+Km1qLc/VxOfUmr9J8VWjmdNP+5qh/Dm15K87NpxeSs8006+ccq9RSTR/Xfpre7WySr8onUP9V12+Ollfv1G15m9SfNVo5vTTPuo/6r9q6Bzqv+ry1cn6+g3Te5VL/zjR8haNpxrVxifR90vK76zjU1rFpVdSfGEutrj8lWgZiIvPca+jWBRTnPBnqib9wvGUqx/i4tM+2o/04pNyr1GJ4gmXiWh+VyOr9IvSObQf1eWrE81fpU1W5U/vRfuxprj4lFZx6ZUUX5iLLS5/JVoG4uJz3OsoFsUUJ/yZqkm/cDzl6oe4+LSP9iO9+KTca1SieMJlIprf1cgq/aJ0Du1HdfnqRPNXaZNV+dN7FbX9qCf9qrl+HRd3OK2duPj0euGY9HjAAQeU1nVuuHy696klfcJ57j5TOI+qST8nml9J8TUqf93rlkv/arnXKJe/YToumkdJ8cWVP2Z8ANYy9957r3n99dfNKaecEmwxZunSpcGzjmbPnm1ee+01861vfcusu+66dtsRRxxhH59//nn7eNddd5nhw4ebQYMG2XU9al3b07Jy5crgWTu9x9y5c82jjz5qH/fee+9gz5o0qksjHs8991zTv3//YGt5GlXWVkma448/3myyySZ2mx61ru2VRp35xFcuP6qhUaFtFbxpq7iDLR3pc19//fWmrUEw//rXv4Kt7eLimzJlimlrhEv5qc9/8cUXm9tuuy121F21ypWXL37xix3KS1L66bNvuummpq2NMr169Qq2JiuXv0p3pb8rz9OmTTN77rmn2XXXXe16PfGF1ZK/yjOls9K7Unzl1Fr+6k2/auLzzd9mKH9hteRvvfWpT3zUf9R/DvVfO+o/6r9yqP+o/9Ko//Q++pWKfumm9K/Fyy+/bB/1Cx5RmVXZjUt/n/J34403mq222qp0HS5YsMCmq9K3nIceeqjD8VnHF5UUn6NYrrnmGrP99tsHW9pF81eUv6qXVD9JUnz6FZJeN/ra1UhKP/36SNe1qyO1qIxqm/tlUlx8tB+0H9Wg/aD9cGg/1qRYaD9oP3zjo/2g/XDK5W9nbD/qTb9qrl+J1q8ffPCBfXQqxefyJ3yt6vGEE06w6a/9Sodw+dR+lSeV22r41s9R4fa3mvga0f76tG+OYinX/pZTbf46SeWPgQ9AA4RvdaFbVOzw1efNLQ+9ax9bhky1y9h75wRHGzP52SWl7VpGXftKafuB579oXp79vuk9/Bm7HqaKVY2hvki4hlcWLVrUYQodN22O/kjQeviPBFXUm2++uW2sVTm9/fbbZptttgn2thsyZIjdXqkiTYOmr7npppsqTmPjRP8wc1Q5u8+rRev6bOPGjTPHHntscFR5Sptweh122GF2W1g18VXKj+jru/xwdJ4at9GjR9v7F0Up3S+66CJzyCGHVGw0y8VXKT+V/xocs2LFCrseF59iC0+jpEVf/KXS6w8ePHiN8lIp/XSMGml9URg7dmywtaOk9EtDpfjCas3fcn+U6zw15LreRJ8/PE2WllrKn0/6JcXnm7+Vzi9S+QurJ3+1Xmt9Wm98Qv1H/RdNvzRUii+snuuD+q/Y5S+snvzVOvVfu1rTz9F51H/Frf/cP+GeeuqpiulfrvxVK/r56i1/+gfQhAkTOvwjsdw1Gvbqq6/a69UdLwMHDuxQPvS6LjYtOjb6+eLie++99zrU8a78SFJ8zpVXXmnjPPTQQ4Mt7XRt6xoPx19OpfiUzg888ID9B/Hpp58ebO1I8brY9Tn0eZyk9Cv3+fr27Wu23npru88pF18zXL9htB/t59J+0H6E0X7QfrjYaT8qlz/aj/ZzaT9oP8KK3H74pF/S9Ss6Lql+lXLxqXzpdXS9hmld5UP9ZNqv/q0wXT9anHD9rUXlUeVSfOrnqGj76+KPiy/r9rea9I++frmyV6n9leg1rsEqUZXiq6b8MfAByMllv3nLPHbNp03rlEHmocs+aS657U07MELLmde/aqb/YoDdN3fC7uax6UvtIIehu33MHrt9v3Xtdq2H3XXXXWuMVlZFNWrUKPvPe/1TX4ue64vLBhtsYNfDFbL78qAKtFJDIdruKlJf0XsMiSq0xx57bI2KLUwVpBoGjbAMV/SqaPWFT5WzPp8eta4KOUqfVxWrayyUXvpiGk6vffbZx6aXjnWqia9SfkRf3+WHXl+LRsJpFGKl0XAaxSvuy/Z//ud/2sewcvHp8+lzKm/DlP8zZsywj3HxqVyceeaZ5oYbbijtUwOjL8hK20rlpUuXLmuUl0rppxj1x4Hes5y4+ER5pYZPx4lGQIpLS30JePrpp0tfHlWGfve7363xZaJSfGG15q/STw15+EuR4/LEfSFw5ypPPvKRj9g/sMKySL+k+HzztxnKX1it+VtvfVpvfNR/1H/h+IT6j/qP+o/6r1x8zVD+fK5faUT9p/dTjOEyFxZX/lwcLi7FqXgVd5rlT8fqdfVrIPfrJlE+TJ482dZxquu0uH9M6RzlcfQfx6J/Cqp8KL30T3H32bSMHz/efj7tc+Li07G6ZnWuXlPp4mKIi8/R8Vqq/RXjCy+8sEa9Xik+dRDccccdHdIsTLHovRW3yxt9Hqkm/dz1sd566wV7Pvz7V/uccvE1w/Ubdhfth11oP2g/wvR+tB+0Hy5v9HmkmvRz1wftx5rx0X50VGv66fW10H7QfoQ/Xy3lzyf9kq5fKVe/du3aNXj2oXLxqc5U2VBZCNO6lrfeesu+v4QHZoTbDz1XPCpLOlaPusZ0zShWV/7qqZ/D9FrR9lfpEhefS6ss299q2jcNDHGx6lGfI5yGKodayrW/Kh+6xjVLhTv//vvvN/PmzQuOaFcpvmrKn2np2b81jyUvZr/q73NSr0a8B5rL9FnLWvuf8Jx9nLtoVev2Jz7Xet2Ed4K9raVtDz2z2C6bHv5ne2w52q9jdU5YWwVh72nT9kUg2NJO65Xuw9NWadv764TvsaPj2+oHe0+iel4zLe+++66NQ4+V6D5G0fsDuc/k7nGURJ8z/Fmq/WxJ8dWbduHPVO412hqsDvc7UvxaoirFp9fSdveaLr12Du6FlBRfVDjGWj5zUvpJ9LNKNfEpDfXaWqLlQ/R6+rza7z53VFJ8tXxWp9K+SnnolNufRfolxVfLZ64Un47VdvcaRS1/tbyW4z5LuMzpeL1PWukXRv1H/VcO9V+7WtMvKb5aPnOl+HSstrvXKGr5q+W1HPdZwmVOx+t90kq/MOo/6r9yGlH/OdH0r6b8uXRyMYbTq5rPJ0nxlUs7iZZ3F4virRR7pddyyu2vFF+58hr+zHHxhdddmml7uTx2dFw0jSUp/SSaF9H3Fpdmirua9CsXb7nzKsUX/TzuXNqP2uKTavMiTrS8xn2+sCzST8KfqdxrRK9Vxa8lqlJ8ei1td6/p0ov2o6Nq4pNo+ldT/lw6uRjD6VXN55Ok+MqlnUTLu4tF8VaKvdJrOeX2V4qvXHkNf+a4+MLrLs20vVweOzoumsaSlH4SzYvoe4tLM8VdTfqVi7fceZXii34edy7tR23xSbV5ESdaXuM+X1gW6Sfhz1TuNaLXquLXElUpPr2WtrvXdOlF+9FRNfFJNP2rKX8unVyM4fSq5vNJFunnYg+nmY7X+5QrY3GvVSk+pUs4zV1aaHn66aftvvBruryKS8/wNRN+7pTLk6T0K5d2LpZK8ZV7Hyn3WmHl9ifFJ9H0d++v7WHh41x6u2Oi6VUu/XRsOM+kmvjKfS69FjM+ADnp37f8aL29P72h2X37DcyAb0zvcJuLJG0Xt32MjtLUKLPNNtuswwg0R6OjNFJNtF+jx9w9uBopeo8hefzxx02PHj3sYzka3aaRsm6kotNWYZZG3SXRyDSN2L3uuutKU4GVG7FXT3xx+RF9fUcj7m699dYOUwuG6TO70bjhEXfRe6xJpfg0Eq6t8rdTZCm/99prLztqzt0LKS4+R3G4qQY1Cl4j7OOsWrUqePahpPSrJC4+F5dGh7a1cXbRaGwd60Zba+ShRhQ+8sgjdr8eNWWTmy7NSYqvnvytheJ0Izo1ojkqi/SrVy352yzlr578rbc+rSc+6j/qvyjqv2RpxRdG/deO+u9D1H8fWhvrv0qSyp/i2H///W2Z0/vreP0iRnEr/rTKn+4lrOlV+/XrF2xppylR9WsvV971qDRSDPpVULX0yxn3qyOV8egvcuLii/4iSWVIabFgwYLY+PSemvlHZVhLEqW1yvmvfvWrNY5PSr9yFJ/iVLyOrlP9itFHLflL+7Em2o92tB/J4uJzcdF+0H4I7Ud5jbh+aT/8rl/ajw/RfnyoUe1HJXHpV+/1+8EHHwTPPlQpPs02odkEdF3o9bWuGdEdlcPw9ahyruNd++EoHXW+luOOOy7YWl6a7W9cfI1qfytxZc9d227RupPU/uracbPfOBtuuGGpfnDqiU8UHwMfgIJZv9t/mAd/vGPpFhjjfj+3qgEQaiBUmbgKsVqqYDQ1jGuozznnnNJ0OWp81Eipsoiq1HilZdKkSfbeXHosZ/bs2ea1116zU0fVw33pvPPOOzt8iatWUnz15Icau4cffrjUKLsvdWo4FK8+s6bJUkPrGhV1CumLgRqxcMMcF5/icvk9ffp0+z7u/eK4xlL5rsZJ5+uPuaFDh9r9tZSXpPSrh6YP03uHp1DSZ1X6KD8Uv74g6I9jly96vOCCC+wXmWrTT+rJX6WvS7Mo98e88ll5oTjdH8rlOv6ySL+k+NLK32Yof3nXp0nxUf9R/0VR//lJii+t/G2G8kf9Fy+L9KP+89PI+q8e+sei3l//qHJlTteL/tGssqz8rVZcfHqfcv+Ur0R5I5qSVfmqfz5FbbzxxrZ86J/juv+qnuufuioDf/nLX9b4x1Sa6efi0z/2lE8q867861r42c9+Zv+BrtgcHafrZvz48eaYY44Jtn4ozfgcpXVS+rnrQ/8kjHKfU+Lio/2g/SiH9sMP7Uc72g/aj3JoPz5E+0H7EUX74S/u+q1FXHwa7OBeX4Pkli1bZsuHuyVFlPY57gc5p556qh1cpNdQG+G48udTPzdr+6trce7cuXZgk0tftyidpdr2N0k98TkMfAAKbOhuHysNgHhs+lIzb/HqYE9HqigrNQ6qFN95552yFbH7IqHKyAl/oav0RVyNuLZXUylXo1yDowpNI/EqVWyqZMt9WYr78uPoS5w+s0ZbRr90lmu4ao0vKT8qNYzhBlmL+1KnhkRflhSrviiGj9GXKi3hUe5SKT413G50pxP+khwXnxtFrLgUj3uuxk4qlRfFHy0vcekXJy6+eukecFFx8dWbv+4LvtLM0TWosqjz3HOll8tPvVd0NKZkkX5J8aWRv81Q/urN33rr03quD31u6j/qvzRQ/7Wj/mtXb/5S/7WrN/2o/5LFxVevWuu/ONWUvzhplD+dq9fQa4Upz5X3KgNh7ljFrjKrshsuH/qHePfu3e1+Pdc9bfUeKq/y3nvvrVFHx8UXLR/uWtY9fuPi22KLLWw5D5d//dPx5JNPNk899VTpWta1rX/Wq9wpxnr+viynXPvgrnUnKf30Goo7/BrvvvuurSPDdVml+Gg/aD8qpR/tR7K4+OpF+0H7UQ3aD9oPof2g/Qhb29qPOHHpl3T9VtK1a9fg2YcqxadrT4ujcugGGXziE5+wsyyoTIUpXsWt613Hqs3QdeCu3XB5862fRWnj3jNMsz/Exdeo9rcSfb7evXvbeMrR9Z3U/paLP634ROnEwAegYCY/u8T0+NIz5i+vLA+2GHPf1IVm8IDuptdG65jeG6/TVmEYM3fRh9M3VaooRaM3RRWOo4ZFDYzoC4dGAaqi0aKphvSl31XqX/7yl+3IVNcY6VHr2p4VvYcq0P32288+6otLVLiyD9OXGzVi+kxqSEWfy/1BpEWvr8fwFzUnLr3c6yXFV29+uNf3FRefvkBo1K5Gp4qODednXHxLly61XzJdw6t4NW2XRgw61ZSXuPiSxMWn9Nai6ZQc7dMIwyFDhtj81ihHffFxaa1Hrbsv3pIUn8/1Fn1/xarX2XXXXe26hL84XHnllXZEZFhW6SdJ8fnmbzOUv7zr06T4hPqvsrj4qP+o/6Te+Hzzl/qP+k/iXt9XXHzUf/71X5y48nfvvffa97/iiitKv25x14ib1jSN8qf80T+Vov+ULxeb4lA8ikv79T4qu4q13H7RfpVx0X79+iksKT7lh44Rl/56ff1zOim+JC4evafytJx687dc+VE6hdunpPRTPaj6UHleqY6Mi4/2g/ZD4l7fV1x8tB+0H7Qf9eUv7Ue7uPiE9sPv+qX9oP3Is/2IE/f6knT9ViMuPuWDyoP7/EoTXSt6f6VdNH9c/as0de1HeKCDrmPlr+NbP0tc+5sUnz5HXPsh2u/T/lbiyne4fIniVflTWiSJxu+ujzDv8tfSs39rHktezH5PBs+y04j3QHOZPmtZa/8TnrOPcxetat3+xOdaH3pmcbC3dY1t1014x5Yjtwz7zouty97/l92nR61ru46Tl19+ufWAAw6wj+W0VdStQ4cObW277u2i522Vq93XVgG2nnzyyaV9Y8aMsdvD2iqW0n4tWk9TW4UYPGt34YUX2iX6PExxlovVGT9+fIeYta7PHE6H8BJOk+hxX/jCF0r7JCm+pPyIvn74vcPccXHprTRoa3iDtXZJ8YXzc+edd14jzrj4oun68MMP2/ITzotoeZkyZUqwp11SfE6ldIyLL1qey32+6Gf41a9+FexplxRfpbicuPhEaVVpn15TMbv9OlbxhY9Lis+pFKdPfOKbv0Uvf5XSzYmLr576tJ7rQ69b7rUd6r/K8RW9/DmV0jEuPuq/D1WK0yc+8c3fope/SunmxMVH/ed/fTjuOKVXJUoD6r/K5S+L+i+sUjksV/6caPpEz49+vlrLn14/nCZR0dii5UvpFa6Dw7GL4nX7dJzyV+/njouLT+eee+65HfIo+vpJ8YXpWL2W8l3CsUUX9zpx8YVVSsdwfHpvfZ5wHialX7SMnnTSSaX4JSk+xeXOLeL1q3hoP+q/fn3SL8wd58p9OUoD2o/K5a/c54t+BtoP2o9yKqVjOD69N+1Hx/gUD+1H/devT/qFueNcuS9HaUD7Ubn8lft80c+wtrUfThrpV+6zOfocOvftt98OtrRLii+cNuH3dqLpE067aOyKVWUwnM9p1M/l4nLi4hPFEdd+KE3dPh1XS/sbVinOcPpqUVqEP3+Yjo3uj6bx9ddf36EcVRtfpfLHwIcMNOI9gFosWbIkeFZM0YEPu+yyi61URY9azxPx+SE+P8Tnh/j8EJ8f4vNDfH6Izw/x+SE+P8Tnh/j8EJ8f4vNDfH6Izw/x+SE+P8Tnh/j8EJ8f4vOTdnwMfMgAAx+A+s2aNau1d+/ewVq7Pn362O1FQHx+iM8P8fkhPj/E54f4/BCfH+LzQ3x+iM8P8fkhPj/E54f4/BCfH+LzQ3x+iM8P8fkhPj/E54f4/KQR30cMABTIpEmTzLBhw4K1dgcddJDdXgTE54f4/BCfH+LzQ3x+iM8P8fkhPj/E54f4/BCfH+LzQ3x+iM8P8fkhPj/E54f4/BCfH+LzQ3x+iM9PGvEx8AHoBJYuXRo8K6aVK1cGz4yZOHGircjCtK7teSE+P8Tnh/j8EJ8f4vNDfH6Izw/x+SE+P8Tnh/j8EJ8f4vNDfH6Izw/x+SE+P8Tnh/j8EJ8f4vNDfH5Sj6/cbSgaseSFW12gM2q71Au9DB48uMPz5cuXB5G303r4mEYvxOe3EJ/fQnx+C/H5LcTntxCf30J8fgvx+S3E57cQn99CfH4L8fktxOe3EJ/fQnx+C/H5LcTntxCf30J8fgvx+S3E57cQn9+SdnwtGoTQ9qTh/j3v5eBZY7UMmWpapwwK1rLRiPcAAAAAAAAAAAAAAADc6gIAAAAAAAAAAAAAADQxBj4AncDs2bODZ8VEfH6Izw/x+SE+P8Tnh/j8EJ8f4vNDfH6Izw/x+SE+P8Tnh/j8EJ8f4vNDfH6Izw/x+SE+P8Tnh/j8dLb4GPgAAAAAAAAAAAAAAACaVktLz/6twfOG+ve8l4NnjdUyZKppnTIoWMtGI94DAAAAAAAAAAAAAAAw4wMAAAAAAAAAAAAAAGhiDHwAOgHuMeSH+PwQnx/i80N8fojPD/H5IT4/xOeH+PwQnx/i80N8fojPD/H5IT4/xOeH+PwQnx/i80N8fojPD/H5STs+Bj40uUeeX2q+8sO/m75HPxtsSV8j3gMAAAAAAAAAAAAAgHq0tPTs3xo8b6h/z3s5eNZYLUOmmtYpg4K1bDTiPeQnd7xlbrxvrrnwuC3MoXttbDbftEuwJz2NeA8AAAAAAAAAAAAAAOqmgQ95LHkx+z0ZPMtOI97jD88tae375WdbZ89bGWxJXyPeA43RdqmzsOS2DB48uMPz5cuXByWzndbDx7CwpLlQ/ljyXCh/LHkulD+WPBfKHwtL8y5cvyx5LpQ/FpbmXbh+WfJcKH8seS6Uv2It3OqiSf1y4jw7C0Pfnl2DLelrxHugMZYsWWLa6tfCLu+//37Z7UVZiM9vmTRpUun5uuuuayZOnBiUzHZa1/bwOY1cyF+/hfLnt5C/fgvlz28hf/0Wyp/fQv76LZQ/v4X89VuIz2/h+vVbyF+/hfLnt5C/fgvx+S1cv34L+eu3UP78FvLXb6H8+S2dLX8Z+BAxb/Fqs8NXn7e3q0hadJyOz8MTLyy1t57IUiPeA0DnMmzYMPtFIEzr2g5kjfKHPFH+kCfKH/JE+QOaF9cv8kT5A5oX1y/yRPlDnih/+WvRbSeC5w3173kvB88aSwMWWqcMCtbiLV/5/8yXfzDTnHHEZmbobh8Ltiar5T3qtba8B4DO5ZVXXjF77723mTNnTrDFmM0228w88cQTZttttw22ANmg/CFPlD/kifKHPFH+gObF9Ys8Uf6A5sX1izxR/pAnyl/+mPEhxrL3/21enbMyWAMA+FLj3qdPHzN16lS7rsfevXvT6KMhKH/IE+UPeaL8IU+UP6B5cf0iT5Q/oHlx/SJPlD/kifKXPwY+xOi10Tpm1GF9zNh737GzPyA/uqXIX19dHqwlG3XtK6XbkXz1sn/YdWfsvXPsvh5fesb85ZXqX7Mcd2uUyc8uCbY0hj5P+DMlWbp0afCsmFau9BtgpMajpaXFLgMGDDAzZ84M9rTTura7Y26//fZgT7uk/b7xZa3Z4jvooINK97nSo9bzlHf6hcufyp4WPXdl+Xvf+55dP/DAA83ChQvtoueuvF5yySXBK7WLnq/94fOj674of36Kln6ufLjl0UcfDfa0861P00b585N1+qk8jBgxYo26xrcc6d5/I0eOLO3Xc20Lc3WhFlcfOuF6VGU+/H46L7peCeXPT9HT75ZbbimVoXJlwZUxV76i61mj/PlptvRLm8oo9XN+uH79FC39kr4/h/9focX9E9xJuq7SRvnz02zpl5ZoOa+1HCftp/2oDtevn2ZLv6TrptEof36Kln5J31+Syl+jyyflz09a6RcuN+Xa6vD+cn0Plb4Xl4tPZcq9R/R7QnhROVR5FFcuGfgQQ53aN/1+jpn458Vmg2FP287y8KIObx2DbCmNB3/rBTNnYXVprcEMj/7fUjP9FwPMjFt2Nbec/3Fz01nto6lcnj502SfN/N/ubnbedn27Hc1LleOpp55qXn75ZdPa2mpuuOEGc+aZZ5YqVT1q/dxzz7X7ddwVV1xRqlST9iN94ftc6THvhj9vd911lxk+fLgtf/pCcNttt5knn3zSTJ8+3e7/05/+ZMvlQw89ZBYsWGD2339/c/zxx9vjta6y6r5cqjxHz9fz8Pnh9U022cQe05lQ/irTl9O3337brFixolQfnnXWWVXXl9SnyTpT+dMfG0cffbRZvHhxsKVdLeVIf9iUK0dXXnmlfVRZ1SJum6gsqy5Unaf30GvpNfXaovpvq622sudefPHFHerhY489do31tQX1X/XUrv76178ulSE9qkxVam833XTTDuv9+/e3x+FDlL/ioH5Grbh+K0v6/qxHTXWs9kH7VfZ1Trnryp3P9+eOKH/5K1fO9X+4assx7UfnxfVbP9oHf5S/ypK+v9RSr1M+y1sby1+03Gy++eYd2mr9v0RlwLXVgwYNMhdddJFt+0V/h+r7g/terEetu0ELYdqmMuWsu+66Zty4cfY8tyiOk08+2bbv7n8wrr1n4EMMzfigjvPWKYPKLtqnY1AscxetNi0txvTeuEuw5UNzF61quyi0r3PlW/fu3YNnxdStW7fgWe2mTJliG1lXue266672jx01uOL++DniiCPsuo7T8fqDSZVu0n7xia8Rmi0+NXpz5861I0n1qH8E5SnP9FMZ0xeGbbbZxq67LwbqQHHr//Ef/1FaV+O95557lsqrBi5oEITuEabXKne+Rj5WWk8D5c9PUdJPf7Toy6nKk75MiurDI4880tazkkZ9mjbKn5+s0k9/7Gy//fZ2iaqlHCm+6H798aM/jr71rW/ZsqpFz7VN+7RMmDDB/sPTDe7SoDJx3w1effVV+weaztVrhuvh6Hocyp+foqafyoDa1RNPPLFUhqppb8PrjUD589Ns6ZcW6udiaLb4uH7Lq+b7sx7HjBlj01BU9nUNlLuuJHpdZYHy56fZ0s9XpXKuToV6/k5UfLQf9Wu2+Lh+axOOL4/2IQnlz09R0o///2VjbS9/KjcvvfRSqa2WL3/5y3ab9mlR/ofb6lNOOcW8/vrr5vnnn7frdwWDEtz3Yj1qXdvD8akMXXPNNWX/Zg2799577evrfSTc3jPwAYXmZnt4efb75sDzXyzd4iF8mwrdhuTgC16yy5V3vW2P0/G9hz9jb2vhztHtKAZ8Y7qZ+eb79tHdKkKvo9dzM3m47bWYNnNZh9eI3vpCr+n2RW+x4eJ3+7VEZxMJn69jly7j1iuOKtNyo7VV6Un4jx9n4MCB9vYfGhWWtB/Z0CjHm266qVOPttUXgi996UvmZz/7mTnuuOPsgAY16A8//LB9POqoo+yXosmTJ9uOlF/96le28d5nn306lFeVf4141JeIuPP1JSC87n612hlR/takL6X6w8V9+SyH+jQda3v5U932wAMP2H9Cnn766cHWD/mWo3IDuPr162e23npru0+L7p0Y/gPJlW8NjtTUeKNHj7bLpz/9aXPAAQeU6mHNqHPIIYeU1stNy9fsqP+SqeypXa30a8CnnnqqQ3v7jW98o8O6fgWB8ih/+aJ+hg+u3zUlfX8O//M1TNdItdcV2lH+8tOIvxNpP9ZuXL/1oX1IB+VvTY2o19FubSp/Kjd33HGHHeQStmjRolJbHf0xiM5ROVM/XaXvxUOGDLHbwwNmNIuEytehhx4abFmTBkVqRgg30EJte7ifhYEPMdTxrA7oaCe2aBu3usieZtR47JpPm+37rWtvT6FbVlw5ciuz+/YbmAtvfsMOGvjlxHfNq3NWmv8+7+PmnC9vbo/T8XMn7G7OOKJP8ErGDN3tY/b2F/37rmsf9VpuMMT4Cz9hZ/HQOY9NX1rz4Ifxf3jX/O2/d7Gvofc/7tK/28ENblCDuJlC9F6fP+fF0uCHc8a9bvr16lrarxjk+/8z2z5q8IZi0nbtH7rbRuaOKfPtvmqp0SmyNO/R5EZ66Y+ZShWqqFJ+6623YverwpZmu4dU0ZSLTw3+Y489VoiGP6/0U6P829/+1k7JNH78ePP000/bf0Trj3Q93n333fYXDl/4whdsWTzssMNs2e7Zs2eHe1q5DhZ9kSh3/tChQ+35N954Y4f1tKZ3pPz5KXL66Uujft2sOjKt+jRtlD8/WaRfpT+GpNZyFI7PlSPVg/plwXrrrRfs+ZD2uf0aDObqSXe/P/1Rrg5t/fJSywsvvGA7q109/Mgjj9hOQbeufwbo81RC+fPTTOmnsqv6UH986w/zcHv7i1/8osO6/vBuBMqfn2ZMP1/Uz8XRjPFx/VYn/P1Z5VrthjoHwnS9zJgxg+/PFVD+/DQiPpVz/VpYZZf2o7GaMT6u3+q5+JKuq6zahySUPz9FTj/+/+evs5U/lRPNyqAfWervS+W72ufwwAdH34U1IMa151Ha7m7DqO8XWtwsDpXcFcyKrQGQorY93M/CwAc0nfW7/Ye59KQtzTMvL7ODBs68/lVz7anb1HXbkfumLjQjD+ttB0WIXkOvpYEGtQxqGXVYn9L7D9hufbNp9/+0t9yY9fZKs2TZv8z3T+xn94ne68h9NzHj7p9r1zUAQ4uj1xk8oP3WFIrhpt/P6fD5vj6spxm2x0b2OT6kClGVq0Z0aaqmuD9kkL99993XzJ8/3z6iNpo6TNNKaRSlvlSo7PPr0tpQ/pLpC6zuw7bllluWpq5DOih/2dMIbw0mUz2pRfWm7mevf452dpS/+ugXB/pjPOmPb8Sj/IH6uXlx/SYr9/1Zg+X0K3T9zSY6RtMAozaUv+Jw5VwdF438O5H2o3lx/SJPlL9k/P8vO2tr+VM/hAYrql3W7S7SogE4eu3w7TLKcQMww7driWLgQxn6hb1uKaBbJbhbLLjbDLhF29Q5XU9nO/ztvO365uLj+5pxv5/bYeBCLTQbw+x5H5gd+nUcUayBCxtvqIELq4ItyTSLRDka/PCnF9+zZSlcfhR3lCt34f2Koe37vOm98YflTAM/NENELbp3bx9IUVRp3KNJv3bXHz8aPaYRiml2BDfbPaSKplx8jz/+uOnRo4d9zFvR0+8jH+nYVN9www2lX+rpS4C+DOh+l3n9wU/581PE9NMfPRpco06+n/zkJxW/RBYB5c9PM6ZfNTTC+5xzzgnWjP3jXSPBNSI8TZQ/P82SfvpOqXb2uuuuK9TAWsqfn2ZMvyKpNz7q53bNGB/Xb7xK35/1fwrNuqdfw+mHGnvttZf91V+vXr3s/jxQ/vw0Y/qlJVzOf/SjH9X1d2K98dF+tGvG+Lh+q0d8fih/teP/f+npTOVPfRHqh7vzzjvtIEQ3wNdH165d7WzV+u6sJY5m2pTtQ7fAimLgQxm6PYK75cAn+q5rdtt+A3PdadvYbcsm7ml/ba/18K/00XgzZrffL0iDFzSIIS0abLDwn/8K1vzMfPP90m033K0s3OLKj26rocEOmtnBHafBHKiPGmiN9lKFq0EQ5aaWlI033thsscUWsfvLTc2DdEyaNMkMHjzYPsKPymme/zhrRpS/ysJ/9Nx+++2lTj7VrdSn6ejM5S+NcqRfl6l8lrtvZLkp88S9L6j/auUGPegP+nK3B0BtKH/FRf2MJFy/lVX6/uy4H2lomT59ur1eNAiC78/Vo/zlL8u/E2k/1m5cv7VLuq5oH6pH+auM//9lb20vf/ofyfDhw82UKVNsvuu7brlbnei2KJohwrX3UdquW3GoP08zpel7spvZXTM+aeBw+Aefej99v477YQoDH2JoNochu3Q3PbqvY28vIPq1/X+f93HbSa1f6CMfk59dYmdF+FVbXrw6Z6X55cR3gz3VczMnuAEUjmZpaLuuTO+NuwRb6qeZIBYs/VfF2SN0KwvdVuOhyz5pZtyyqy1zbiYKUQyKRTE54f3VWrp0afCsmOq9x5Aa6JEjR9rGuRJVrLrvlI51pk2bZmfBUIWbtF+a8R5SRVIuPjX4o0aNKkTDX/T0+/e//20f1ZirUY9+QYi7h1YjUP78FCn93B89ovuiqcyF40ujPk0b5c9PHulXSzly8YX3l/tjavbs2ea1116z+wYOHGi/94T/carX0mvqtdNE+fNT9PT73ve+Z//w1r2hizjogfLnpxnTL2vUz43TjPFx/ZanMhz3/Vn/q9D/LMLXVfiftUnXXRYof36aMf18lSvnYbQfjdOM8XH9Vi8cXx7tQxLKn58ipV+5er2W8pdH+aT8+fFNPw08GDp0aMUZp9Veq38i3Ja7W1JoYEOlATX6XqztKoMPPfSQ/T7glvHjx9sZn5566qnS/2Sqbf8Z+BDDdUqf8f/Zuxs4Kap7z/+nNUQGvBl5EGZEiRmMg3G5EFaNWXQdyL2C48ZXRKM3UVbjNauEiLoviTfmb5IriYkXX5cHg+gm15iA69UoZs2VB/eKuDIbA4ZgXOOgMtFRMjORp0l4iij953emaqhpevrpV111qvvzfr3Oq6tOd1d/u+pU9dPpOtNPsD+S++TH6QWzGszqDTtDPdMAsju25ijTUD/Qnj1ByHa5aXGbPevG1dNG2G0xd+nb5qUte+z1xfjcpGG2A4V0pBD+ssMaxuSccX9lzhp7rLntR2/1thV5jNOu3tin44z/3MQt971pVvxqp52WDDMvqreZ5H5COnn411c7OWCee+65Zt68eb0HXX8sIDnrgxwwp02bZn8oXr58ub1ebie398cAync9wicveHV1dWby5Mn2Uk79icLIuFk//elPj2jv+Xo54jDaX/9kDHsxf/78rMc/jqd6tD99O5IPO3K6aGmn8oFHikxLnVwn5ROf+IQ9RZ5PliVjD8qXptWM9lc4+aFKPlwH//kCHdqf+zg+oz/sv/3L9/5Z2ra08Y0bN9p5WZdyJiF/PGTeP+dH+4tfuT8n8vpRudh/S8frgx7tr398/1d+ldb+Ro8ebT72sY/1vlaL4Pta+d5Etr/8TiG/Vwh53ZZODxMnTrTzcju5vdxPBO9fKOkEKW2vvzNC+ej4oCBnGti9r+efuCgf6XQy9cwh5sYftJlpt75irvr+a7YjhH8WjqlnHmcuPW+Y+bu5m3s7BxRK7rvphxPMlXe+ZoebqLtkve30ENYwJpL90W/19EY6tvmF3seQzgwypIp0bPjX2xttxw25ToqQTh3S6Uaej9xObi/3k+ulw80Xphxvb1co6W3nMs0YQ1dccYWZM2eOHdPH/9e7HGSlXshBV8ZklhdfuV5uJ7eXH4oLuV4kcQwpl2TmW7FihR3XVMhl3L0eXV9/Rx11+KVaPvAvWrTIjp/lt3dpqzK2VlxofzqurD/5kCJvNuUUYtI7W9qXFPnA4v9LLYzjadhofzpxrL9i2pG0v2ztyB/fV9qq/2+C4Ji//jHRb8eyrHIMVUD703F1/cmH9KVLl5r//b//d++/FvwiX/D4H+LjRvvTSdr6iwLH5+iw/+q4sv4Kef8sbXvx4sX2B1y5btasWX3aPO+fj0T70wk7X3/tXEopnxN5/dBh/9VJ0vqL4/UhH9qfjivrj+//yqPS25+0D+n0IPx2k/m+Vn6Pkzbgf48iHRu++93v2vuKzPfFcinzUl9oPjmjhJwNQh4jl1RqRGPam47Uwa5Wbypa8sNxek1hO6D8Q/+yf9xsf3SXH5+D5N/68gO0/KgdPBuEKOYxSlUpjwGg+kgvv3vuuce+EMoL4A033ND7Dxig3Gh/iBPtD3Gi/SFOtD8gudh/ESfaH5Bc7L+IE+0PcaL9xYszPuQgHRpkmIvMYRRkWuoyh8AAXCVj4bksiWM0uSRJ+bZs2WI6Ojrsi76Qy87OTlsfF7avDu1Ph+2rQ/vTYfvq0P502L46tD8dtq8O+XSSlI/9t3jk06H96ZBPh3w6wXzsv8Ujnw7tT4d8OrQ/nbDz0fEhDxkKYdltp5oJX95kz4AgRaalTq5D5Vq9YVfvNu+vyG0AFE5O69Tc3OzN9XDhdE+oDrQ/xIn2hzjR/hAn2h+QXOy/iBPtD0gu9l/EifaHONH+4kfHhwJIBwcZ8iFYktTpQYbs6Np5wJtDobJt98ySlHZQW1vrTbkpaWM0uSZJ+YLjW/lkXurjwvbVof3psH11aH86bF8d2p8O21eH9qfD9tUhn06S8rH/Fo98OrQ/HfLpkE8nmI/9t3jk06H96ZBPh/anE3q+1IjGdBwlLmbyOm+qfFx7jM4d76XHXvXr9MLH/+DVHLZ73/vp6+e/YW+TKYrngWgc2tUplNhKU1NTn+k9e/Z4LbOHzAdvQ6GEWWh/lDgL7Y8SZ6H9UeIstD8KJbmF/ZcSZ6H9USjJLey/lDgL7Y8SZ6H9uVVS0gnh0ETkDna1elPRkuEJ5J/65eTiY8iQDNNufcU0f2qIefRbjWbwwKN768aOrjFr548zI4cM8G7dI4rngWi0t7eb0aNHe3PuIZ8O+XTIp0M+HfLpkE+HfDrk0yGfDvl0yKdDPh3y6ZBPh3w65NMhnw75dMinQz4d8umQT6fa8jHURZWQIRk6Hz/LtHXsN8c2v2A7NUinh+svqjOvPjjxiE4PAAAAAAAAAAAAAAAkAWd8KAOXH+OlLXvM39zyitnWfcAs/GqDmT293rvmSJzxAQAAAAAAAAAAAADgOs74UCX27P/AXPj135kJX95kLj1vmFl11+nmxh+02Tq5DgAAAAAAAAAAAACAJKLjQxXo2nnAnHH9S2Z9626z6YcTzJKbxvQZ+kKuk9ugcskYOS4jnw75dMinQz4d8umQT4d8OuTTIZ8O+XTIp0M+HfLpkE+HfDrk0yGfDvl0yKdDPh3y6ZBPp9ry0fGhSsz42xHm3SfOMuPHDPZqjBk5ZIB59cGJ9joAAAAAAAAAAAAAAJIolRrRmPamI3Wwq9WbilZqSotJr5nkzZWHa48hZ3Nouvlls2BWgz3TQ9DqDbvMTYvbzNr542xHiKAongcAAAAAAAAAAAAAABqc8QEAAAAAAAAAAAAAACQWHR8q2KLlHfasDXWXrDet7fvMtFtfsfPBInVNE2qPONsDKgtjDOmQT4d8OuTTIZ8O+XTIp0M+HfLpkE+HfDrk0yGfDvl0yKdDPh3y6ZBPh3w65NMhnw75dMinE3o+GeoijhIXM3mdN1U+rj1G54730mOv+nV61fqdXk1hongeiMahXZ1Cia00NTX1md6zZ4/XMnvIfPA2FEqYhfZHibPQ/ihxFtofJc5C+6NQklvYfylxFtofhZLcwv5LibPQ/ihxFtqfW4UzPlQBOZvDqw9ONFPPPM6rQbU5dGylUGIrzz77bO90TU2NWbFihdcye8i81AfvQ6GEVWh/lDgL7Y8SZ6H9UeIstD8KJbmF/ZcSZ6H9USjJLey/lDgL7Y8SZ6H9uVXo+AAAiExzc7NZuXKlN9dD5qUeKDfaH+JE+0OcaH+IE+0PSC72X8SJ9gckF/sv4kT7Q5xof/Gj4wNQBbq7u70pN+3fv9+bchP5dIL5LrjggiN6PMoLv9THhe2rQ/vTYfvq0P502L46tD8dtq8O7U+H7atDPp0k5WP/LR75dGh/OuTTIZ9OMB/7b/HIp0P70yGfDu1PJ+x8dHwAAERmzJgxpr6+3rS0tNh5uayrq7P1QLnR/hAn2h/iRPtDnGh/QHKx/yJOtD8gudh/ESfaH+JE+4sfHR8Qi9+27TFdOw94c7nJ7U67eqNJTWkxV9/1up1evWGXd60xMxdssddJfaHLdJn/fIPPUau2ttabctPAgQO9qXBt3rzZfOELXzDbt2/3anrI/LRp00wqlbJl7ty53jXZlStfWJKWL9jrUS7j7O0okrL++mvP0n79tlxomw4T7U8n6e0v6KGHHjLXX3+92bdvn1dTfrQ/naS3P6mfMGFC77HP/1AZFdqfTtLbnxzzgq+9Mh8l2p9O0tafa4L5pO33994z13XlxPbVyczH/lscP1+h7194/eiL9qeTtHzy/j34firq9/OZ2L46mfnYf4uTmS/u14tMtD+dpKw/+U5PvtsLHpv9Iu1R2mUcaH86SVt/8v65mN/vMtHxAZGTH/Qvv6PwA+Qjz24zDfUDze4VZ5sHb/24efXBiWbqmcfZ617assc8+5tus+mHE2z9yCEDbH2SyXMIPkeURl6EL7/8crNz506vpofUf+YznzEzZsww6XTabNu2zX6wivvNYzUJjnMV92mekqK/9ixvRrdu3WqWLVtm27Nfbr/9du8WyET7K15/7S9IbjNv3jxvDv2h/RUv1+u51C9evNge91pbW80dd9xh65Ed7a94/bU/ed+4dOlS+z7Sfz8p87yf7B/trzJJm7/yyiu9ub5yXYdkYf8tXn+vH/Il7o033mjmzJnT+/5F3kPH/WOvy2h/lUva/TnnnGPWrVvX+35Kfthgf6gc7L+l4/VCj/ZXmpqaGnPffffZdueXvXv3muuuu85ccsklprGx0bslcqH9lU7eR2t/v6PjA5z3avteM3rkMWbwwKO9msM6dxwwqZQxdUM/7NUgm+7ubm/KTWGP4SMHwbFjx9qS6dFHHzVnn322mT59up0fNmyYPYg+//zz/f5LudrGQApbZr5JkyaZzs5O8+yzz9pL+aAbJ9fX34MPPthve5Y3nm+++aY5+eSTvZro0f50ktz+fHLsnD9/fs7blAvtTyfJ7e/FF1+0H7plnQr58C3rU+qjQvvTSWr7k2OevG+U94/yPlIU8n4ybLQ/naStP9fIj7nyTzD5Av7888/3anvIPtDfdVFh++qw/+rkev+yatUq+9nN/z5C3r/Ij1rSeY7Xjx60P50k5VuzZo3tuOy/n5f3U/Injij3h0xsX53MfOy/xQnmk44OQv7xLOJ4vchE+9NJ2voLWr58uf3++Stf+YpXEz3an06S1l8pv99louMDIiVne5h26yumtX2fqbtkvZ2XoSqOv3i9PXuD2LP/A3Ph139nbyflvic7bZHbrPlNd+8wEIuWd/RZlswLuU6GvvCLX18IyTDpht+aW//Hm/a+kkPySL08vr9MyeyT68ZetdF8d9k7vdf7w274w3Bku09wecHrM4e6kHq/+Lf1c+FI0iP23/7t3+wbxBtuuMGr7SEHRvl3/Lnnnmt7L/quuOIK25MxWIfykl6OS5YsobdjHtKe5XRY2dqz8P9pOnz4cK8GhaD9FSZf+/PdfffdZtSoUeazn/2sV4NcaH+Fydf+5LU729lt2travClkQ/srTK725/8DRtogikP7qxybNm2yl7/85S+P+BJv48aN9jLbdUgu9t/C5Hv/Iu9T5H1z8LuHM844w/5ZRTq1IzvaX+Xxv59raGjwanrIdxvsD5WF/Rdxov3pyb/vpUOzfP/id/xHYWh/xQvr9zs6PiBSMnzDqrtON2NH15jOx8+y83dff7I5a+yx5rYfvWV/zP+XFX80bR37zU/+4VR72+svqrPl3SfOMqefPMhbkjGzp9f3WZbMSyeHK+98zQ59kV4zyV7OXfp2UZ0fXntnv/nT3g/s/Z/63ifMupf/bP7mllfMv999uq2TITfau/7SpyPD9j+9b/7vK3+y10mRoTmkM8bnJg3rzfHYc9ttZwbp2PB3czebZbedaq+TIs9DOnf4nR0yyXX+suS5yvqR9VSo2tpab8pNYY4xJC/ADz/8cNbTLvn/jh8xYkSfsaryjRGUtDGQXJMtn7zgr1271okXfpfXn7TnRx99tN/TiEnHh6efftr+m6jUMa+0aH86SW5/Qk41JiWuXt+0P52kt78gaYePP/64ueyyy7ya8qP96VRS+5MP5/Lvg8wfs8qJ9qeTxPXnksmTJ/f7xZP8uynuTuVsXx3239Llev3o74desWPHDvvZLgq0P50krj+X+PnkNULeN2V2Wpb94NVXX41sf8jE9tXJlo/9t3DBfP5Zg+RMQUI61snZHjJ/DIwS7U8nietPyPsa+ff9xIkTvZp40P50krL+Sv39LhMdHxA7GcLizms/ata37ja33PemufEHbWbBrAYzcsgA7xaFkU4TqzfsNLfPOMmMHzPY1smlzEt9MWdIkE4Gvp+3bO+zTD/vs7/p7j1LhZg9/QR7nZSpZw4xzZ8aYs4Z91f2OhmKY3jth+y0PK9XH5xoO334Jpwy2Hbg6E9wWXL/pgm1dggQlEZODXbzzTf3GSMo6h+Lq915551n3n33XXuJ0skbgfHjx9t/FPljrsmXabTn3Gh/4ZAP3tLW6PVdHNpfuOTfBxMmTLD/Kma8yfxof+UhZ76J+9SfSUD7A5KL/Rdxov1VpilTpphvfvOb9js5IZ2D5IddVBb239LIdywylLPsE/Kjn5wNRb574axzxaH96cj3fnKMlmEG4uzUnFS0v9Jpf7+j4wOc4HdQkDMbyNkdgp0CCrV730F7JoTGk/oehM8b/xGza/f79vpCDPvIh0zd0J5OF9JZQs7uIJ0xgsNSTPjyJnuWB1/wPoWSZcuQFbI8OTuEDNnRn9Ejj7EdKkolp4lzWdRjDC1evLj3hxF5IylvHOVfovLjSTZJG0PKNdnyPffcc+b444+3l3FL8vaVDzxyqmG/PcubUHkzmqs9h432p5Pk9nfvvffaf3VKiQvtTyfJ7c8nxz85DsqHISE9wuVL0yjQ/nQqof0J+fAtr7sLFy6MtBMY7U+nUtpfXMink8R87L+FI58O7U8nSfnkc+S6detsB2b5YffTn/60/VfsyJEjvVtEj+2rky0f+2/hgvnkR77PfOYz9jOG/0cn6QQR5efdTLQ/nSSuP/mjnRjrnYEkTrQ/naStv2J/v8tExwc4wz+DgXQ0KObsDPl07jhgdvz5cCeFYvidKRZ+taF3WAq/yNAb/lkgiiFDXZx29UZzbPMLtkODP3xFrjM+oLyk12ycH6yq0cqVK01TU5O9RLhoz/nR/vT8Xt/yDx3/tGNXXnmluf/+++0XVlF1vEki2l/5yDAXv//97017e7tXg0y0v3D5nR4eeeQRzjZSANofkFzsv3r9ndpfDB061H6OQ3a0v8olnR/kR10p0plZ9gP/3+2oDOy/xfPPfiL/eA7+0Un+/czn3eLQ/nTWrFljj9Oc5bU0tL/wFPt7Bx0f4ITVG3bZsz38+Gsftx0N/mXFH71rCndszVGmoX6g2fx2316PMi/1cn2x/GWGOazEpjd6hseQzg5LbhrTM73jPbOtu7TOGYWora31ptwU1RhD8iItL9ZyKuIgOV1Org9WSRxDyiXZ8skL/syZM5144U/y9pUfXDJP85SvPYeN9qeT1PYnx1MZa9L/kkrKsmXLzHXXXWd++ctfRvYDIO1PJ6ntT2Q7/kWN9qeT5PYnpP1JB7Bnnnkmlk4PtD+dpLe/uJFPJ4n52H8LlytfQ0ODHZow+G/dF1980X5nM2jQIK+mvGh/Oklufy4I5pPT+Gf+ez3uH9nYvjrZ8rH/Fo58OrQ/ncx8cmyW9yzy3sUFtD+dpKy/Un+/y0THB0ROhoRIp3t+7BdyBoSbFrfZsypcPW2EWTCrwcxd+rZ5aUtPB4FCyVAQU88c0ue+cinzUl/KUBFyn9nTT7CdMqRzhm/R8g571gbJXgrp5BB8/n83d/OhutKWheLIv0F/+tOf9v4b2R+jnt6L0ZEfCerq6szkyZPtpZzaEKWRMTGDp3ny27MMd0F7zo72hzjR/sKTbUzg+fPn21Pl8s/77Gh/4ZEv6mV9yiWvt4Wh/QHJxf4bnmnTptkvcpcvX27n5XPcvHnzGDs7B9pf5TrjjDPMCy+8YDZu3GjnZVvL9xvyvR0qA/tvafxhbOX1wf++z/+8+7GPfcyMHj3a1iE32p+ODK8i71lOPvlkrwbFoP2VLozf7+j4gMidMmqgGXPCQDPhy5vM3Y/8wVzzT6/bsyr8ffMIe/3UM48zl543zHYGKLZjwezp9WbZbafaZaemtNjL22ecZOtLJXlW3XW6mXbrK3aZUpY82WHWzh9nRg4Z4N2qcLI8yeRnrLtkvfnONR81zZ8aYn7est27Vbi6u7u9KTdFOcaQ/BiyaNEic/nll/f2EpODpowT1J8kjiHlksx8K1assOM2CrmMu9djkrevtF0Z80rGWvPbs3w4uuKKK7xblB/tTyfJ7c8FtD+dJG9fOf7JB0d/TGD5l6ScPjrX63nYaH86SW1/8qFbTj27evVq+7or7c8v8oOWXB8F2p9OUtufK8ink7R87L/FyZVPvqyV8drlxyx53ZDPcXIqc3lfExXan06S258Lgvnk+zn5PsN/Pz9r1qzYhw9j++pk5mP/LU4wX+b3ff7n3fvuuy+2jnK0P52krT/5h72c3TWqMwrnQ/vTSdL6K+X3u0yp1IjGtDcdqYNdrd5UtOSH5vSa8n6g4DHgGun44PJwF3Jgc/l0O+TTycw3ceJEc88999gXLOn9eMMNN/T28I8D21eH9qfD9tWh/emwfXVofzpsXx3anw7bV4d8OknLx/5bHPLp0P50yKdDPp3MfOy/xSGfDu1Ph3w6tD+dsPNxxgdHyNAJ0tEgWKQOCIPLnR6EywddQT6dYL4tW7aYjo4O+6Iv5LKzs9PWx4Xtq0P702H76tD+dNi+OrQ/HbavDu1Ph+2rQz6dJOVj/y0e+XRofzrk0yGfTjAf+2/xyKdD+9Mhnw7tTyfsfHR8cIB0cJChEzofP8ueYUGKTEtdnJ0fTjz+w2brtve8ueSbuWDLEZ1LguW0qzcWPbQGgOLIaZ2am5u9uR4unO4J1YH2hzjR/hAn2h/iRPsDkov9F3Gi/QHJxf6LONH+ECfaX/zo+BAz+aFdOjgsmNVgRg4Z4NUaOy11cl1cP8afO67W/OKXO7y55Fty05jejiXZyqsPTuyzDSqJDHXhMjmVjcvIpxPMFxzfyifzUh8Xtq8O7U+H7atD+9Nh++rQ/nTYvjq0Px22rw75dJKUj/23eOTTof3pkE+HfDrBfOy/xSOfDu1Ph3w6tD+d0POlRjSm4yhxMZPXeVPlU8xjdO54Lz32ql+nV63f6dUcJnVyndwmUxTP499/vSt90mUb0u1d+70aJNWhXZ1Cia00NTX1md6zZ4/XMnvIfPA2FEqYhfZHibPQ/ihxFtofJc5C+6NQklvYfylxFtofhZLcwv5LibPQ/ihxFtqfWyUlnRAOTUTuYFerNxUtGdJA/t1fTsU+hj/Uxdr543rPOCBneWi6+WUz86J6M3t6va0LiuJ5iO8//I659+ed5rYrTzSf/fRQM2r4h71rAAAAAAAAAAAAAACIH0NdOEA6NkgHh7pL1tsODVJkur9OD1H6hy+caH5868fN/3npT+bsWS95tQAAAAAAAAAAAAAAuIGOD46QDg5yBodgibvTg+8zE2vN//z/TjVvP3KmV4OkaW9v96bcRD4d8umQT4d8OuTTIZ8O+XTIp0M+HfLpkE+HfDrk0yGfDvl0yKdDPh3y6ZBPh3w65NMhn0615aPjQwxkGIvTrt5oVm/Y1WcaAAAAAAAAAAAAAAAUJ5Ua0Zj2piN1sKvVm4qWDCMhZ1Mop3yPIZ0dmm5+2SyY1WAmnDK4d3rqmcd5t8gviucBAAAAAAAAAAAAAIDr6PhQBoU8xqLlHebGH7R5c/0bO7rGrJ0/zowcMsCr6UHHBwAAAAAAAAAAAAAAGOoiNrOn19uOC52Pn2U7N6y663Q7n1lefXDiEZ0egGIxxpAO+XTIp0M+HfLpkE+HfDrk0yGfDvl0yKdDPh3y6ZBPh3w65NMhnw75dMinQz4d8umQT4d8OmHno+NDzKRTg3RuKGaYi6g9s7HbfPE7r5mTLt/g1QAAAAAAAAAAAAAA4AaGuiiDfI/RtfOAabr5ZbNgVoOZcMpgO93avs+7tq+4h7r4/sPvmHt/3mluu/JE89lPDzWjhn/YuwYAAAAAAAAAAAAAgPjR8aEMKuUx5EwPX7rrddNyzzhz0ohjvFokUSqV8qYAAAAAAAAAAAAAoLIw1EUM5IwPp1290azesKvPtGv+ZUWXPdMDnR6S76233jLpdNqW1157zXzrW98ymzdvLrpOpku9b666tWvXFnS7fHUyXep9c9WFlS9bnUxrl1fOfGHURZ1Ppou5rwvrT6b7u50L6y9bnX/fUvLlWl4pdbmWF8yX7Xa57puvLtt9s9XlWl4p+bLVafJlqyOfLnO2fGEsL19dtvtmq8uWL9ftCl1e2LcrZftme4xCH7fQOk2+bHXkC2d5pdw3W53r+fy6sPKVq458ujry6erIp6sjn66OfLo68unqyKerI5+ujny6OvLp6sinqyOfri5fvmzfC0RRJ9NS52o+v66U7ZtreUbO+BBHiYuZvM6bKp98j9G547302Kt+nV61fmef6WJE8TxOvGx9+p13/+LNIcneeuste3noIJA+tOPbS9+hg0FBddnum62u0OUF66ohX7a6sJZHvtx1LuUr5XZxr79sdZp82W5XaF0py8uVL1td1JmLzRdFXaHbt9C6cq5TF9dfsC7J+aLeF3zBumLXX9iZ89W5uH3ZP8KrI5+ujny6OvLp6sinqyOfro58ujry6erIp6sjn66OfLo68unqyKerI5+uLle+bN9VFVqnWV7wvi7mC9YVu33zLY+OD2VQyGMsfPwP9nb5inSKkM4RmeS6coviMRCdUg4Qvmz3zVZX6PIKfYxKycfyolletjqX8kVxO02+QuvCfh6F1oW9vGx1Scwcdp3r6yCJ6zSJdUncbrQN1oGgjjpBHXWCOuoEddQJ6qgT1FEnqKNOUEediKIu2/c0hdZplpftvtnq4spX6PKy1RWyPDo+lEExj+HyGR/o+FA5sh0gstVpDjjZ6qI4qBV632x1UeRjeSxPFFpXyfnirpPsvmy3K/a5Rb28YutKWV6uzJW4POoqpy5X28hWF3Z7cWF5udZBJT7fXHWuL4866qijjjrqBHXUCeqoE9RRJ6ijTlBX2XXy/UIhddnum62u2Pvm+34jiny5lhdWPjo+lAGPkUx+JxR53ld9/7UjOqRcP/8Ne11/Z+EolizjpS27vbncMjvISBYphXrkkUf67PiFHjSy3U6m58+fn/d2hR6EpO6b3/xmScvLdjuZdiVff3Xk0+eTS592eXGsv2x1lZyv0DpNvmx1fma59OW6XSHLK7X95bpdvuUVWldovv7um61Otm+Yy3MlX7Y6P18p981Wly1zoffNVkc+/e1KbX/Z6vzHDXN5Sdg/wlye1FVbvlLuG1VdmOvPrwtzedW4/sKsS0K+Qm4XV1015nN9/yVf6cuTOtfzhVlHPl1dEvK5/vpGvtLr2D90ddWYj9ff0pcnda7nC7Mujnyyfgutk3z5tke2+2a7nV9XyvL6qys1X391hXx/Vczy6PhQBjxGMsnwI83/8Ep69773vZrDNr2xO934X39tL8NQ6pk+fMV2fPDHyBHZDhpR1OU6MK1du9ariSZLtrqw8+VaXr77ZqsjH/lEGMvLd99sdWHni7KOfPnrwt6+uZaX777Z6sLOF2Ud+XR15Mtfx/5Rvjry6erIp6sjn66OfLo68unqyKerI5+ujny6OvLp6sinqyOfro58ujry6epKyZfr+5x89y22zoV8uZYXdj46PpQBj5FMuToTSAeFsM70IKLu+OAr9KARdl2ug1C++0ZRF3Y+lsfyRLb7ZqurtuVR51ad6+0l7OVRR52olDr2D+oEddQJ6qgT1FEnqKNOUEedoI46QR11gjq36lz/PifsfFEvj44PZcBjxE/OzPCfvvpS+mv3/94+DzmTw7XzXk8P/9yves/aIGd2kPqpX/t/tsjtpMhtntm4q7djgpwJwr9OiswLWY7c1q8vtCOC3+kh837yWH6dX/zH0g51IbIdIOKq0xzUoqgLOx/LK9/y5Dpftvtmq2P9Hb6dC+svyrpSnm+uukpcXq7tW4nLy1VXbcurtrpK3L5ynzCXl6uO5emWRx111FFHHXWCOuoEddQJ6qgT1FEnqKu+OvnOodyPoakLO1+u5ZXy/Uvm8uj4UAY8Rvz8TgnBzgF+Rwd/OAvpVBA8i0OwM0FmRwO5DN7W76TgX+/fvtDOCJnLl7yZQ2lIPr+jRubtg1kLIaeKKeQAEUVdtoNaJefLdRAvpY58h28n1/my3TdbHevv8O1cWH9R1Pn5Snm+uerCWp5L+XJt37CW59/OhXy56sJaXlLylXLfKOrKla8St6/cJ7OO/UO3vHLlC6uuWvePsOqSsv5KuW+uOtfzhVVHPl2dn8/1/Zd8pdUlJV8p942ijny6unLlc/31jXxu1JFPV5eUfLz+llaXlHyl3DeKOk0+Wef93S7s43Mpyws7X7blhZ2Pjg9lwGPEz+/44HcU8AU7RAQ7LohgZ4J8HR+ydTzIvE0umcvPJtgZQtvx4ZFHHsl7gCimbv78+QXdLrMu20FI6r75zW/mvW8xda7k62955NPnk0ufdnmsv3jyZavz85Vy32x1fuZSnm+2Oj9fmMuTOhfy+Vky62T7hrk8V/Jlq9Pky1bnZ3Y9Xyn3zVbn5yvlvtnqypUv7PUX5vLYP3TLq6Z85agrR74wlyf5CrldXHXVuH3DrEvC9i3kdnHVlSOf6/sv+UpfntS5ni/MOvLp6pKQz/XXN/KVXsf+oaurxny8/pa+PKlzPV+Yda7kk3WerU7yhbk9pK6U5YWdr7/lhf39Mx0fyoDHiF+w00Amf+iKzI4Dwc4EuTo++GeO8Ieh8Ml1MrxGtsfM1F/HB79e8kkJ64wPQYUeNKKoy3ZgKvS+UdSFnY/lsTxRaF2Uy5PrfNnum60u7HzUHa4rZXvkqgt7+1bi8nLVVdvyqq2uErev3CfM5eWqY3m65VVbHeuPOuqoo446QR11gjrqBHXUCeqoE9S5/3172PnKtTw6PpQBjxG/XB0fpMOAPDd/yAuftuNDrsfMlLl8uY90cpBc/nKDywur40OhB4go6jiIszxRaB3LK9/y5Dpftvtmqws7H3WH60rZHrnqwt6+lbi8XHXVtrxqq6vE7Sv3CXN5uepYnm551VbH+qOOOuqoo05QR52gjjpBHXWCOuoEde5/3x52vnIuj44PZcBjxK+/TgjScUCe149XdtmOBMHOC4V2fBDZOh5k3iaXzOVLjsyOGHJdWGd8eOuttwo+QERRl3lQq/R85X5RqOZ8cp0v232z1bH+Dt/OhfVX7rok5Stle+SqC3v7hrE84d/OhXy56sJYXpLy5bqdiKOunPkqcfvKfYJ17B89ir2vX1fOfGHUVfP+EUZdktZfrtuJYutczxdGHfl6lFoXzOf6/ku+4uuSlC/X7UQcdeTrUWpdOfO5/vpGvvjryNej1Lok5eP1t/i6JOXLdTsRR502n6zz/m4X9vG5lOWFnS9zeWHno+NDGfAY8cvW8cHvPOB3dgh2LBDBzgSZHQ3kMtipQeZl/fjX+7cvtDNC5lkj5DK4fMkk2cLq+LB27dqCDhBx1ZFPV1et+Up5EcxWx/rTLS/J6y+sdeDXlbI8P1+2+2ryhb19XVhX2eqiXH+lLC8p+fLdLq66cuULe/2Ftbww7husY//QLa9c+cKqi3L/KPS+wbpc6y/ffaOoS8r6K+W+uepczxdWHfl0dX4+1/df8pVWl5R8pdw3ijry6erKlc/11zfyuVFHPl1dUvLx+ltaXVLylXLfKOrKlS/b9ihlG5Vr+4a1vLDz0fGhDHiM+GV2fPA7GmQb3sLvcBDsTJDZ0SCz44PwOyfIepJSTEcEIZ0d5H5+Jrm/vyxZrv+Ycjttx4dnn322pANEf3Xz588v6HaF1MnBLMzlybTL+VheOMuTS1+h981Wx/oLZ3ml3Le/unIsL9vzLXUdJHV5hdw3s06Wk9TllfoY1bi8Qm5XSctzfXuUet/MOllOUp9vtS2vkPv2t7xCblfM8sLO5/rzLeR2xSyv2rZvIbdjecldHu1ZtzzysTyWF93y2N90y+N4wPIqaXnsb7rlcTxwY3myHfrbHqVuo/6WV8h9M+ty5ct332x15VgeHR/KgMeAy3IdIMI6uBRaJ49X7sfQ1IWdj+WxPFFoXaUtT27vy3W7Qus0y3MpS7a6sJdXSp1kSOrysq0/zTqttuVlq6vk5YW9/sJeXil18nj93c7151tty6OOOuqoo446QR11gjrqBHXUCeqoE9RVX518v9Df7Vz4PiJXvlLqyrU8Oj6UAY8B18gYOSLXASLqg2SwrpB8cdaRT1dHPl1dJeQL+/hSzPIy88WZxResK3c+bV3S2l+29adZp9rlJS1ftttp8mWrcylf2OtPuzxfWHXsH27n09YVsn/EWUc+XR35dHXk09WRT1dHPl0d+XR15NPVkU9XRz5dHfl0deTT1ZFPV1fufGF/v9Hf7XxR14Wdj44PZeDaY8gwCsEhGgpFx4fSBIesyFYyh8yIghw4ch0M4vzSVuTLl60uysyl5IuyrprzhdEOol5/xWZO+vYNe1/NtrxcjxHMV2iWKG9Xznxh1CWp/WVbL4XW+csTYS4vSfn8OpHrvoXmy1bnUr5C71tovjCWJ8KsKyWff1+Rqy6M55uk/SOM5Ykw6/LtH5q6MJ5HvvWX676i2LpiHyPq9Uc+XR35oq0L5iv2uYly1yU9X9yZk5Qv2+3Il7suX76468qZL4x1H3W+YjNXc75sdeSLti5J+Ypd96LcdUnPF3fmfO3P9XyaukK3R651UM7tG8byws5Hx4cycO0x5Ed2+bF94eN/8GoOk04R8kN9th/io3geiEaug4HmoBZXXRIzUxd+HW3X/bqwn2+25Wnq5NJXacvLdt9KrotrPSdxeVE8huvLc71OLn1h1GkeV/M8qMteJ5c+F+vCzhzFOnBpPbveDgrNxzotvM71fNnqCs1XKc8jrjrX20ah+ZKYOdt9o6hzPV+2OtfzFVqXxPXsUmbX82WrY52GX+d6vkLrWM+6ukppu5XSDgp9blHUyaXP9eWlpBOCicHBrlZvKlqpKS0mvWaSN1ceLj7G6g27zLRbXzHNnxpiHv1Woxk88OjeurGja8za+ePMyCEDvFv3iOJ5IBqpVMqbAgAAAAAAAAAAAIDKQseHMnD1Mbp2HjBNN79sWtv3eTXGXH9RnVly0xhvri86PlSO9vZ2M3r0aG/OPeTTIZ8O+XTIp0M+HfLpkE+HfDrk0yGfDvl0yKdDPh3y6ZBPh3w65NMhnw75dMinQz4d8ulUW76jvEtUATmjw7/e3miG1/ac2WHhVxv67fQAAAAAAAAAAAAAAEAScMaHMnDxMfbs/8Bc9o+bzYpf7bRnefjcpGFHDH2RiTM+AAAAAAAAAAAAAABcxxkfqoAMcXHG9S+Z9a27zaYfTrBneZh65nGm8/GzTFvHfnud3AYAAAAAAAAAAAAAgKSh40OVmPG3I8y7T5xlxo8Z7NX0DH3x6oMT7XWobDJGjsvIp0M+HfLpkE+HfDrk0yGfDvl0yKdDPh3y6ZBPh3w65NMhnw75dMinQz4d8umQT4d8OuTTqbZ8dHyoAsfWHGVa/t+fzOoNu7yavm674kTbCQIAAAAAAAAAAAAAgKRJpUY0pr3pSB3savWmopWa0mLSayZ5c+Xh2mPIMBZNN79sFsxqsENcFCqK5wEAAAAAAAAAAAAAgAZnfKgCcjaHmRfVm0XL/2D27P/AqwUAAAAAAAAAAAAAIPno+FAF5IwPS57sMCt+tdMc2/yCPZNDsJx29UZ7G1QuxhjSIZ8O+XTIp0M+HfLpkE+HfDrk0yGfDvl0yKdDPh3y6ZBPh3w65NMhnw75dMinQz4d8umQTyfsfAx1UQY8BlyTSqW8KQAAAAAAAAAAAACoLHR8KAMeAwAAAAAAAAAAAACAaDDUBQAAAAAAAAAAAAAASCw6PgBVoLu725ty0/79+70pN5FPh3w65NMhnw75dMinQz4d8umQT4d8OuTTIZ8O+XTIp0M+HfLpkE+HfDrk0yGfDvl0yKcTdj46PgAAAAAAAAAAAAAAgMSi4wOc17XzgDnt6o0mNaXFXH3X63Z69YZd3rXGzFywxV4n9XLbpPOfb/A5atXW1npTbho4cKA35Sby6ZBPh3w65NMhnw75dMinQz4d8umQT4d8OuTTIZ8O+XTIp5OZb/PmzWbChAkmlUrZ8tBDD3nXxIPtq0M+HfLpkE+HfDrk06m2fHR8gPMeeXabaagfaHavONs8eOvHzasPTjRTzzzOXvfSlj3m2d90m00/nGDrRw4ZYOuTTJ5D8DkCAAAAAAAAQKG2b99ubrzxRjNnzhyTTqdNa2urmTdvnmlpafFuAQAAUHno+ADnvdq+14weeYwZPPBor+awzh0HTCplTN3QD3s1yKa7u9ubchNjIOmQT4d8OuTTIZ8O+XTIp0M+HfLpkE+HfDrk0yGfDvl0yKeTpHyrVq0yJ598spk+fbqdb2xstJ0gli5davbt22frosb21SGfDvl0yKdDPh3y6VRbPjo+IFJyhoZJN/zW3Po/3rTDU1z49d+ZL9/9hjn+4vX2OrFn/we2ftqtr9hy35Odtsht1vymu3cYiEXLO+z1re37TN0l6+28kOXIbWX5UmQojEJlyyd5ci1Trht71Ubz3WXv9F7vD7vhD8OR7T7B5QWvzxzqQur94t/WzwUAAAAAAAAAQW1tbWbUqFGmpqbGqzHmjDPOsH+O2rt3r1cDAABQWej4gMi99s5+86e9H5j0mknmqe99wiz46sfMWWOPNbf96C37Y/6/rPijaevYb37yD6eaVXedbq6/qM6Wd584y5x+8iBvKcbMnl5vrx87usZ0Pn6WnZfOAhO+vMksu+1Uu3ypX7upu0+ng3wy8617+c/mb255xfz73afbOhlyo73rL32Wuf1P75v/+8qf7HVSZGgO6YzxuUnD7H1kKI7Hnttu80nHhr+bu7k3oxR5HtK5w+/skEmu85clz0nWj6ynQtXW1npTbmIMJB3y6ZBPh3w65NMhnw75dMinQz4d8umQT4d8OuTTIZ8O+XSSkk/O6LB161bT0NBg54N27Nhhtm3b5s1Fi+2rQz4d8umQT4d8OuTTqbZ8dHxALORHfJ8MYXHntR8161t3m1vue9Pc+IM2s2BWgxk5ZIB3i8L9vGW77SQx9czj7LwsQ5YlnR+kw0GhgvlkmbfPOMmMHzPYzvt5n/1Ntz1zg2/29BPsdVKmnjnENH9qiDln3F/Z62QojuG1H7LTkunVByf2ZhQTThlsO3D0J7gsuX/ThFo7BAgAAAAAAAAAAAAAVDs6PiBywz7yIVM3tG+nBulUIJ0L5MwGwY4LxZCzRciZGE4bffisEEI6FQz9qw+Zzh3veTW5BfP5y5TOGMFhKeSsEnKWB1+255SPLFuGrJDlydkhZMiO/oweeYztUFEqOY2dyxgDSYd8OuTTIZ8O+XTIp0M+HfLpkE+HfDrk0yGfDvl0yKdDPh3y6ZBPh3w65NMhnw75dMinU2356PgAZ/hnMJCOBtIpICzS4SHYSaEYu/cdtMNKLPxqQ++wFH6RoTf8s0AUQ848cdrVG82xzS/YDg3+8BW5zvgAAAAAAAAAAPnU1NSYUaNGmba2Nq/msKFDh5rhw4d7cwAAAJWFjg9wwuoNu+zZHn78tY/bjgb/suKP3jWFkzMiSEeCzCEgOnccMKlUz3ATxTq25ijTUD8w1GElNr3RMzyGdHZYctOYnukd75lt3aV1zihEbW2tN+UmxkDSIZ8O+XTIp0M+HfLpkE+HfDrk0yGfDvl0yKdDPh3y6ZBPJ0n5GhoazNatW82+fYfPMPviiy/a7wgHDep7ttyosH11yKdDPh3y6ZBPh3w61ZaPjg+InZwB4abFbfasCldPG2EWzGowc5e+bV7a0tNBoBifmzTMdqCQjhTCX3bThFozckhxQ1EI6Uwxe/oJfZYpFi3vsGdtkOWXQjo5+ENvyDL+bu7mQ3WlLQsAAAAAAAAAfNOmTTNvvvmmWb58uZ3fvHmzmTdvnpkxY4Y9IwQAAEAlouMDYiVDWlzzT6/bsyr8ffMIWzf1zOPMpecNs50Biu1YIPfd9MMJ5so7XzOpKS2m7pL1ttODf2aFUsgyV911upl26yt2mVKWPNlh1s4fV1JnClne7TNOMhO+vKk343eu+ahp/tQQ8/OW7d6twtXd3e1NuYkxkHTIp0M+HfLpkE+HfDrk0yGfDvl0yKdDPh3y6ZBPh3w65NNJUr5hw4aZhQsX2s4OqVTKjB071syZM8dMmjTJu0X02L465NMhnw75dMinQz6dasuXSo1oTHvTkTrY1epN6cg/72/8Qd/xyuTMAbOn13tzfckPzek15X2Dx2PANdLxweXhLuTA5vLpdsinQz4d8umQT4d8OuTTIZ8O+XTIp0M+HfLpkE+HfDrk0yGfDvl0yKdDPh3y6ZBPh3w65NMJO1+iOz5Ip4fMf97LGQKabn7ZzLyoPmvnBzolFI6ODwAAAAAAAAAAAAAA1yV2qAvp4CCdHhbMaugz3IBMS51cV+wwCWE58fgPm63b3vPmyqNSHiNKMxdssZ05+iunXb0xtjYDAAAAAAAAAAAAAChNYjs+uOzccbXmF7/c4c2VR6U8RpSW3DTGnsGiv/LqgxP7dKKpJDLUhcvkVDYuI58O+XTIp0M+HfLpkE+HfDrk0yGfDvl0yKdDPh3y6ZBPh3w65NMhnw75dMinQz4d8umQTyfsfAx1UQbPbOw2X7rrddNyzzhz0ohjvNpwVcpjIBqpVMqbAgAAAAAAAAAAAIDKkuiOD0I6P9z4gzZvrsfCrzZk7fQgouj4IL7/8Dvm3p93mtuuPNF89tNDzajhH/auCU+lPAYAAAAAAAAAAAAAAKVKfMeHYkXV8UHIGRP+ZUWXef7lbvP2I2d6teGqlMcAAAAAAAAAAAAAAKAUR3mXKIPPTKw1//P/O7WsnQUq5TFQXu3t7d6Um8inQz4d8umQT4d8OuTTIZ8O+XTIp0M+HfLpkE+HfDrk0yGfDvl0yKdDPh3y6ZBPh3w65NOptnx0fAAAAAAAAAAAAAAAAImVqKEuunYeME03v2wWzGowE04ZbKdb2/d51/Y1dnSNWTt/nBk5ZIBX0yPKoS4AAAAAAAAAAAAAAEB5JarjQxjo+AAAAAAAAAAAAAAAQOVgqAugCjDGkA75dMinQz4d8umQT4d8OuTTIZ8O+XTIp0M+HfLpkE+HfDrk0yGfDvl0yKdDPh3y6ZBPh3w6YedLfMeHRcs77FkcgmX1hl3etQAAAAAAAAAAAAAAoJIleqgL6fSw5MkOs3b+ODNyyABb17XzgGm6+WUz86J6M3t6va0LYqgLAAAAAAAAAAAAAAAqR2LP+CAdHKTTw4JZDb2dHoRMS51cJ7cBAAAAAAAAAAAAAACVK/FDXQDIjzGGdMinQz4d8umQT4d8OuTTIZ8O+XTIp0M+HfLpkE+HfDrk0yGfDvl0yKdDPh3y6ZBPh3w65NMJO19iOz74Z3a48s7XzEtb9ni1PWeCuGlxmx3qIngmCAAAAAAAAAAAAAAAUHlSqRGNaW86Uge7Wr2p0kgHh6abXzat7fu8mv6NHV1j1s4fZztCpKa0mPSaSd41AAAAAAAAAAAAAAAgyRLb8aFUdHwAAAAAAAAAAAAAAKByJHaoCwCFY4whHfLpkE+HfDrk0yGfDvl0yKdDPh3y6ZBPh3w65NMhnw75dMinQz4d8umQT4d8OuTTIZ8O+XTCzkfHBwAAAAAAAAAAAAAAkFgMdQEAAAAAAAAAAAAAABKLMz4AAAAAAAAAAAAAAIDEouMDUAUYY0iHfDrk0yGfDvl0yKdDPh3y6ZBPh3w65NMhnw75dMinQz4d8umQT4d8OuTTIZ8O+XTIp0M+nbDz0fEBAAAAAAAAAAAAAAAkVio1ojHtTUfqYFerNxWt1JQWk14zyZsDAAAAAAAAAAAAAABJxhkfAAAAAAAAAAAAAABAYtHxAagCjDGkQz4d8umQT4d8OuTTIZ8O+XTIp0M+HfLpkE+HfDrk0yGfDvl0yKdDPh3y6ZBPh3w65NMhn07Y+ej4AAAAAAAAAAAAAAAAEiuVGtGY9qYjdbCr1ZuKVmpKi0mvmeTNAQAAAAAAAAAAAACAJOOMDwAAAAAAAAAAAAAAILHo+ABUAcYY0iGfDvl0yKdDPh3y6ZBPh3w65NMhnw75dMinQz4d8umQT4d8OuTTIZ8O+XTIp0M+HfLpkE8n7Hx0fAAAAAAAAAAAAAAAAImVSo1oTHvTkTrY1epNRSs1pcWk10zy5gAAAAAAAAAAAAAAQJJxxgcAAAAAAAAAAAAAAJBYdHwAqgBjDOmQT4d8OuTTIZ8O+XTIp0M+HfLpkE+HfDrk0yGfDvl0yKdDPh3y6ZBPh3w65NMhnw75dMinE3Y+Oj4AAAAAAAAAAAAAAIDESqVGNKa96Ugd7Gr1pqKVmtJi0msmeXMAAAAAAAAAAAAAACDJOOMDAAAAAAAAAAAAAABILDo+AFWAMYZ0yKdDPh3y6ZBPh3w65NMhnw75dMinQz4d8umQT4d8OuTTIZ8O+XTIp0M+HfLpkE+HfDrk0wk7Hx0fAAAAAAAAAAAAAABAYqVSIxrT3nSkDna1elPRSk1pMek1k7w5AAAAAAAAAAAAAACQZJzxoYye2dhtvvid18xJl2/wasIXxWMAAAAAAAAAAAAAAOAqOj6Uyfcffsd86a7XzX8e/xHzwuLxXm24ongMVAbGGNIhnw75dMinQz4d8umQT4d8OuTTIZ8O+XTIp0M+HfLpkE+HfDrk0yGfDvl0yKdDPh3y6ZBPJ+x8DHVRBnIWBumQ0HLPOHPSiGO82nBF8RioHKlUyptCKZqamszatWt7p5966ikzaNAgOy/27t1rLrzwwt7bAAAAINl4/wcAAAAAAFBeYX//QseHMpChJ+QsDNd/ts6rCV8UjwHgSM3Nzeaaa64xl156qVdjzGOPPWYeeOABs2LFCq8GAAAAlYL3fwAAAAAAAOUVxvcvDHVRBs+/3G0+++mh3lx5RPEYAI4kB96VK1d6cz1kXuoBAABQeXj/BwAAAAAAUF5hfP9Cx4cyeOfd98yo4R/25vJ7acsec/zF6+3ZKDLLaVdvNF07D3i3PKzYx0B16+7u9qbctH//fm/KTcF8F1xwwRE9y+TAK/VxSdL6cxH5dMinQz4d8umQT4d8OknKx/u/4pFPh3w65NMhnw75dMinQz4d8umQT4d8OuTTIZ8O+XSC+cL4/oWODzHbs/8Dc9uP3jKXnjfMDsGRWV59cKIZOWSAd2sAcRszZoypr683LS0tdl4u6+rqbD0AAAAqD+//AAAAAAAAyiuM71/o+BCz3fsOmraO/eZzk4Z5NUD4amtrvany2Lx5s5kwYYJJpVK2PPTQQ941hRk4cKA35abMfMFeZ3IZ57/9RNLWn2vIp0M+naTkCx7n5RgvRaalTq6bO3eunZ82bZrZvn27vU8U2L465NMhn07S8vH+rzjk0yGfDvl0yKdDPh3y6WTm035fFza2rw75dMinQz4d8umQTydp+bTfv9DxIWbH1hxlGurdbnRALvID14033mjmzJlj0um0aW1tNfPmzevtkVWJguMMxX2aYwCIwqOPPmouueQSe5yXzg1Lly4169atM5s2bbLXy7Qc/1etWmWGDaMzJ4DKw/s/AACQJNX4fR0AAEg+7fcvdHyI2eCBR5vZ008wNy1uM107D3i1QLi6u7u9qfDJj1wnn3yymT59up1vbGy0H6rkR7F9+/bZunySNgbSpEmTTGdnp3n22Wft5TnnnONdEw/GkNIhnw75dJKQT47lW7duNQ0NDbZu27Zt9ouz4cOH987Lv4f8+SixfXXIp0M+naTl4/1fccinQz4d8umQT4d8OuTTCeYL4/u6sLF9dcinQz4d8umQT4d8OknLp/3+hY4PMZAODqddvdGkprTYMu3WV0xr+z5Td8n63jq/yO3oEFHdXtqyxxx/8Xozc8EWr8aY1Rt22fYhl3Fra2szo0aNMjU1NV6NMWeccYbtbLF3716vpvJIL7MlS5bwbz8AFW3Hjh3m4osvNvfff7+58sorzdlnn23Gjh1rnn76aXv5+c9/3r75XL16te34EPepUwGgnHj/BwAAkqJav68DAADJp/n+hY4PMRg5ZIB59cGJJr1mki27V5xtmj81xCz8asMR83I7uT2q1/gxg82y20419z3ZaTs6SEcYOUOItI+pZx7n3Sq32tpabypcmf8CDpIfy+RfwIVI4hhIcsBdu3atE198M4aUDvl0yKfjer4TTjjBPPHEE+a6664zy5YtMy+88II9Rer5559vL3/2s5/ZYS6mTp1qj/lXXHGFd89osH11yKdDPp0k5uP9X+HIp0M+HfLpkE+HfDrk0/HzhfV9XdjYvjrk0yGfDvl0yKdDPp0k5tN8/0LHBwfcct+b9vLvm0fYSxn+4oGvfdwsebLDLFreYetQ3aSDw/UX1Zk7ftpupn/zVdNQP7C3vSAe5513nnn33XftJQAAACof7/8AAAAAAADKS/P9Cx0fYib/3l+7qdvMnn6C7fDgk7M8LJjVYFZv2Gn27P/Aq0U1+/ZVo82OP79vXntnv7nz2o/2aS/5yGnsXJbEMZCee+45c/zxx9vLuDGGlA75dMinQz4d8umQT4d8OknMx/u/wpFPh3w65NMhnw75dMinQz4d8umQT4d8OuTTIZ8O+XSy5dN8/0LHB8e1dew3u/cd9OZQzTp3vGe2db9/qBw4NH3Aq42XjBMo4wXKuIGZhg4dasd7r1QrV640TU1N9hIAAACVj/d/AAAgCar5+zoAAJB8mu9f6PgQs2NrjrLDFmx+e59Xc5jUyXVyG1Q3OevHbT96y5w19ljznWs+am5a3GbPFlKo2tpabyp8Ml6gjBso4wf6XnzxRfuYgwYN8mpyS+IYQ3LAnTlzphNffDOGlA75dMinQz4d8umQT4d8OknMx/u/wpFPh3w65NMhnw75dMinE8wXxvd1YWP76pBPh3w65NMhnw75dJKYT/P9C7+ox0yGK5BhLuYufdu8tGWPV2vstNRlDoGB6vQvK/5oz/7xwNc+bm66tN52iPn2T9q9a+M1bdo08+abb5rly5fb+c2bN5t58+aZGTNm2B7mlailpcXU1dWZyZMn28t169Z51wAAAKAS8f4PAAAkSTV+XwcAAJJP+/0LHR8cMPXM48yy2041E768yaSmtNgi01In16G6rd6wy9z4gzazYFaDGTlkgO0Ic+e1HzWPPbfdLFre4d0qt+7ubm8qfMOGDTMLFy60H55SqZQZO3asmTNnjpk0aZJ3i/ySNsbQihUrzAUXXGCn5TLuf/0xhpQO+XTIp0M+HfLpkE+HfDpJy8f7v+KQT4d8OuTTIZ8O+XTIpxPMF8b3dWFj++qQT4d8OuTTIZ8O+XSSlk/7/QsdHxwhHRzSayb1KXR6gPDbRrA9jB8z2Lz7xFlm9vR6ryZejY2NZtOmTSadTttyxRVXeNdUJjnQNjc322m5jPuLbwAoJ/k30H333dd7bJdj/urVq+2lkC/OVq1aZb9YA4BKxfs/AACQNNX2fR0AAEg+7fcvdHyIWdfOA+a0qzfaf/Vnkjq5Tm4DaMj4fS5L0hhDW7ZsMR0dHb095OWys7PT1seFMaR0yKdDPh3y6ZBPh3w65NNJUj7e/xWPfDrk0yGfDvl0yKdDPh3y6ZBPh3w65NMhnw75dMinE8wXxvcvdHwAgCIEe5v5XDjdMQAAAMqD938AAAAAAADlFcb3L3R8iMmi5R0mNaXF1F2y3rS27zPTbn3FzgeL1DVNqDUjhwzw7gWUpru725tyU5LGGAqOL+STeamPC2NI6ZBPh3w65NMhnw75dMink6R8vP8rHvl0yKdDPh3y6ZBPh3w65NMhnw75dMinQz4d8umQTyeYL4zvX1KpEY1pbzpSB7tavaloSYeC9JqeU2SUSzGPIcNYNN38slkwq8FMPfM4rza/KJ4HKkcqlfKmUIqmpiazdu3a3umnnnrKDBo0yM6LvXv3mgsvvLD3NgAAAEg23v8BAAAAAACUV9jfv9DxoQwq5TEAAAAAAAAAAAAAAHAdQ1044KUte8zxF6+3nRkyy2lXb7RnhQAAAAAAAAAAAAAAAEei40PM9uz/wNz2o7fM7TNOMrtXnG2aPzXErLrrdNP5+Flm7OgaOwTGyCEDvFsDpWlvb/em3EQ+HfLpkE+HfDrk0yGfDvl0yKdDPh3y6ZBPh3w65NMhnw75dMinQz4d8umQT4d8OuTTIZ9OteWj40PMdu87aNo69pvGk2rM4IFHm9EjjzGb395nOztIp4dFy/9gO0cAAAAAAAAAAAAAAIAjpVIjGtPedKQOdrV6U9GS4SPSayZ5c+VRzGPIMBZNN79sOzlMPfM4s2h5h3m1fa9ZctMYs3rDLnPT4jazdv64I876EMXzAAAAAAAAAAAAAADAdZzxIWbSoaFpQq35ect2Oy9nfli7qdt2iJAzPzTUDzTH1rCZAAAAAAAAAAAAAADIhl/UHXD39Seb9q6/2LM9yFkfpCNE3SXrzdylb5s7r/2oHQID0GCMIR3y6ZBPh3w65NMhnw75dMinQz4d8umQT4d8OuTTIZ8O+XTIp0M+HfLpkE+HfDrk0yGfDvl0ws5HxwcHSMeGp773CTN7er2dl2EuZBiLd584y4wfM9jWAQAAAAAAAAAAAACAI6VSIxrT3nSkDna1elPRSk1psZ0KyqmYx9iz/wNz2T9uNrOnn2DP9lCoKJ4HAAAAAAAAAAAAAACu44wPMdu976Bp69jvzQHlkUqlKBRKP2Xy5Ml9pvfu3evtOT1kPngbCoXiTmH/1RXWH4WS3ML+qyuurz/X81EolOQWji+64vr6cz0fhUJJbuH4oiuurz/yUSqp0PEhZiOHDDAzL6o3i5b/wZ79ASiHXbt2mXQ67WzZt29f1npXCvl0xfV8K1eu7J2uqakxK1as8PacHjIv9cH7RFnYvrpCPl1h/9UV1p+usH/oCvl0hf1XV1h/usL21RXy6Qr5dMX1fBxfdIXXD11h/9UV8ukK+XSF44uu8PqhK7Q/Xam2fHR8iFnXzgNmyZMdZsWvdppjm1+wQ1gEy2lXb7S3AQCUX3Nzs30jFSTzUg/Abey/Oqw/ILnYf3VcX39sXwDlwvFFx/X1x/YFUC4cX3RcX3/kQ9KlUiMa0950pA52tXpT0ZLOBOk1k7y58ij2MeRMD5f942Yz9cwhZvb0+iPms4nieQBAtdmyZYs555xzTEdHh1djzAknnGCef/55M2bMGK8GgIvYf3VYf0Bysf/quL7+2L4AyoXjiw6vHwCqFccXHV4/dGh/yIczPjjglvvetJd/3zzCXg4eeLR54Gsft2eCWLT88M4LACgveXNUX19vWlpa7Lxc1tXV8aYJSAD2Xx3WH5Bc7L86rq8/ti+AcuH4ouP6+mP7AigXji86rq8/8iHp6PgQMxnGYu2mbjN7+gm2w4Nv5JABZsGsBrN6w057BghAo7u725ty0/79+70pN2Xm27x5s5kwYYJJpVK2PPTQQ9418Uja+nNNZr4LLrigd5wwuZT5OLF985s7d67dF6dNm2Zef/11eynzUv/b3/62d3+VfVWKTEud7MvB+27fvj3nsoL7flj7PdtXJ2n7r+uvHxz/iuNCPo5/5ZO0fEnZf6WtfeELX7BtKk7lXn/a431St68rKjFfMcdo7fF+/PjxvctyEe1PJzNfUo4vvH4UJqnb1xWVmI/Xj8NofzqZ+Vw/vvjt2S9xt8uo1l+pr5flzsfrW7yqLR8dHxzX1rHf7N530JsDEDd583DjjTeaOXPmmHQ6bVpbW828efN6exgi+YLjhMll3G+ckJu8cV63bp3dF1etWmXWr19vTj75ZLN3715z++23m8cff9xccskldn+VD+VLly61t9+0aZO9f/C+27Zty7msRx99tHdZV1xxhb0/3OLy/puE1w+Of8nC8Q9BSdh/5Tgo7efVV1/1atwR5vorx/Ge43N1y3e8Dx6jwzjef+5zn+N4X0V4/dDh9QMu4/UD5eTy8UV+VJf2LO1W2qRcyrxLnXLKsf7CfL3k9Q1JRseHmB1bc5RpqB9oNr+9z6s5TOrkOrkNoFFbW+tNuWngwIHelJuC+eTNvbyxnz59up1vbGy0L9ry5mnfviP34ygkaf25KDPfpEmTTGdnp3n22WftpYwZFie2b27y4UV6Cg8fPtzOt7W1mVGjRpmamhq7T3Z1dZmGhgZ7nf+Bx79t5n3zLWvr1q29ywoL21cnSftvEl4/OP4VJ+58HP/KK2n5XN9/5UstaV/SDkeOHOnVxqec6y+M433Stq9rKi1fMcfoMI73p556qr3OVbQ/ncx8vH4Up5zrj9eP+FVaPl4/+qL96WTmc/X4Iu3x+eefNzNmzDDDhg2zdXIp81Jf6PE0bOVef9rXy3Lm4/UtflWXLzWiMR1HiYuZvM6bKp9iH2PV+p3p4Z/7VXrTG7u9mrSdljq5Lpsongfc0F/7aPyvv+5Th2jccccdtgS1tram/+7v/i596EOAV4Oku+aaa9Kf//zn7SXctWzZsvShtzK9ZcqUKb3T/+E//If0oTe9vfOf+tSneqelXHrppX3mZ86c2Wc+17KmTp3K/u4wV/ffpLx+cPxLBo5/yMbV/Xfv3r3p6667Lr1u3Tp73Dv//PPtpWvCWn/lOt67un1RXhzvEQVXjy+8fvD6gdLx+oEoJOn4IvuEvKbIa4srwlp/5Xq9DCsfr2+IGqcScMDUM48zy2471Uz48iaTmtJii0xLnVyH6jbhlMFmeO2HzHMv/cmrMXZ6zAkDzSmjCusJ1d3d7U25KSljDGX2hg7asWOH7f0cB8aQ0smWT06PtXbtWidOk8X27Z+cvk1OtXjog7Xd/5555hlz6I20LS+//LJ5+umnzbXXXmsOfbgxL7zwgj2V2qE3//byZz/7WZ/73nvvvXmXdehDhF2W9FT2e41rsX11krL/Jun1g+Nf4eLMx/Gv/JKYz9X9V/4JeN9999l/5biiXOsvrON9kraviyopXyHHe/8YHdbx/sc//nGox/uw0f50suVz9fjC60cPXj+iU0n5eP04Eu1PJ1u+pBxf5BgrZ3vwz1ISh3KuvzBeL8uVj9c3N1RbPjo+OEI6OKTXTOpT6PQAMXLIANM0odas3rDT7Nn/gS0yPfXMIWbwwKO9WwEI03nnnWfeffddewkgWdh/dVh/QHKx/+q4vv7YvgDKheOLjuvrj+0LoFyScny5++67zZtvvmm+8pWveDVucH39kQ9JRccHIAE+N2mYWd+627yxdb8tW/6w35w3/iPetfnV1tZ6U25iDCQd8ulky/fcc8+Z448/3l7Gje2rc/TRbncQY/vqsP/qsP50XM/H8U+H/VeH9afD9tUhn86AAQO8KTexfXWy5eP4Urgkrj+2b+HIp8Prh04S8yXh+DJ37lzz+OOPm4ULF8Z6NpIkrj/yFa6/9ueKastHxwcHdO08YE67eqNZvWFX77QMdyGXMg+cM+6vzFljj7VDXBQ7zAXCI6eNklNitbW1eTWHDR061AwfPtybQ9KtXLnSNDU12UsAyeLi/puk1w+Of0Bysf/qhLH+ynm8Z/sCKBeOLzphrD9ePwAkkevHF7/TwyOPPGIaGxu9Wne4vv7CyMfrG+JAxwcHfPsn7XYoAxna4pFne8a06Xz8LDPzonp7HSBDWsjQFi/87s8lDXPR3d3tTbkpSWMMyXhUMi6VjE/le/HFF+1ZNQYNGuTVRIsxpHSy5ZM3TDNnznTijRPbV+eDDz7wptzE9tVJ0v6blNcPjn+Fcz0fxz+dJOZj/y1cOddfGMd7tq8O+XQOHHD7DzhsX51s+Ti+FK6c64/Xj/iRT4fXD50k5nP5+CKdHlpaWswzzwzjGoEAAIeVSURBVDzjRKeHpK0/EVY+Xt/iV2356PgQMzmjw9pN3XYogz37P7A/aksniJFDBpjGk2rsdZz1AUKGtvjfv95lh7woZpgLhGvatGl2TLDly5fb+c2bN5t58+aZGTNm2B6MSD55U1xXV2cmT55sL9etW+ddA8B1Lu+/SXj94PgHJBf7r06Y668cx3u2L4By4fiiw+sHgGrl8vHloYcesvnkMs7hLXJx/fjM6xuSjI4PDtm976Bp69hvThsdz7/+4DYZ2kKGu5BS7DAX0nvOZUkaY0jeLMmYYPLinEqlzNixY82cOXPMpEmTvFtEjzGkdDLzrVixwlxwwQV2Wi7j7jXK9tVhjHsd9l+dYL4kvH5w/CuO6/k4/ukkLR/7b3HKuf7CON6zfXXIp8MY7TpJy8fxpTjlXH+8fsSPfDq8fugkLZ+rx5ft27ebpUuXmtWrV9thFOR46hf5AV6uj0NS1p+P17fiZOZzTbXlS6VGNKa96Ugd7Gr1pqKVmtJi0mvK+wVzMY8hZ3m47B8326EL5AwPV975mvn3u08348cMNjMXbLG3WXLTGHsZFMXzgFuCbWX29HqvFkDYJk6caO655x775kt6j95www1m48aN3rUAXMb+q8P6A5KL/VfH9fXH9gVQLhxfdHj9AFCtOL7o8PqhQ/tDLpzxIWaDBx5t7rz2o2bu0rfNtFtfMZeeN6y300N711/M3def7N0S1e6NrfvNrt3vm8snD/dqCtfd3e1NuYkxkHTIpxPMt2XLFtPR0WHfNAm57OzstPVxYfvqkE8nSfnYf4vH+tMhnw75dIL52H+Ll6T1x/YtHvl0yKeTpHwcX4qXpPXH9i0e+XTIp5OkfBxfipek9Ue+4iWp/bko7Hx0fHCAdHR494mz7Bkc/LM7yOVT3/uE7RiRzYnHf9hs3faeN4dKJx1hJnx5k/nmfx1tRg5x+7RhQJLJabGam5u9uR4unC4LQH7svzqsPyC52H91XF9/bF8A5cLxRcf19cf2BVAuHF90XF9/5EPS0fEhoc4dV2t+8csd3hwqnXSEkY4xU888zqspTm1trTflJsZA0iGfTjBfcHwwn8xLfVzYvjrk00lSPvbf4rH+dMinQz6dYD723+Ilaf2xfYtHPh3y6SQpH8eX4iVp/bF9i0c+HfLpJCkfx5fiJWn9ka94SWp/Lgo9X2pEYzqOEhczeZ03VT5RPMa//3pX+qTLNqTbu/Z7NUD/Du3qFAqln9LU1NRnes+ePd6e00Pmg7ehUCjuFPZfXWH9USjJLey/uuL6+nM9H4VCSW7h+KIrrq8/1/NRKJTkFo4vuuL6+iMfpZJKSjohHJqI3MGuVm8qWqkpLfaf8+UUxWOI7z/8jrn3553mtitPNJ/99FAzaviHvWuAvtrb283o0aO9OfeQT4d8OuTTIZ8O+XTIp0M+HfLpkE+HfDrk0yGfDvl0yKdDPh3y6ZBPh3w65NMhnw75dMinU235GOoiwf7hCyeaH9/6cfN/XvqTOXvWS14tAAAAAAAAAAAAAADVgzM+lEFUZ3wAAAAAAAAAAAAAAKDaccYHAAAAAAAAAAAAAACQWHR8AKqAjJHjMvLpkE+HfDrk0yGfDvl0yKdDPh3y6ZBPh3w65NMhnw75dMinQz4d8umQT4d8OuTTIZ8O+XSqLR8dHwAAAAAAAAAAAAAAQGKlUiMa0950pA52tXpT0UpNaTHpNZO8ufKI4jEAAAAAAAAAAAAAAABnfEi8ZzZ2my9+5zVz0uUbvBoAAAAAAAAAAAAAAKoHHR8S7PsPv2O+dNfr5j+P/4h5YfF4rxY4EmMM6ZBPh3w65NMhnw75dMinQz4d8umQT4d8OuTTIZ8O+XTIp0M+HfLpkE+HfDrk0yGfDvl0yKcTdj6GuiiDKB5DzvQgnR5a7hlnThpxjFcLZJdKpbwpAAAAAAAAAAAAAKgsdHwogygeQ4a3kDM9XP/ZOq8GAAAAAAAAAAAAAIDqw1AXCfX8y93ms58e6s0BAAAAAAAAAAAAAFCd6PiQUO+8+54ZNfzD3hyQW3d3tzflpv3793tTbiKfDvl0yKdDPh3y6ZBPh3w65NMhnw75dMinQz4d8umQT4d8OuTTIZ8O+XTIp0M+HfLpkE8n7Hx0fAAAAAAAAAAAAAAAAIlFxwcgZl07D5jTrt5oVm/Y5dWEr7a21pty08CBA70pN5FPh3w65NMhnw75dMinQz4d8umQT4d8OuTTIZ8O+XSSlm/z5s1mwoQJJpVK2fLQQw9518SD7atDPh3y6ZBPh3w65NMhnw75dMLOR8cHIGYjhwwwrz440Uw98zivBgAAAAAAACif7du3mxtvvNHMmTPHpNNp09raaubNm2daWlq8WwAAAADJQscHoAp0d3d7U25iDCQd8umQT4d8OuTTIZ8O+XTIp0M+HfLpkE+HfDrk0yGfTjDfqlWrzMknn2ymT59u5xsbG20niKVLl5p9+/bZuqixfXXIp0M+HfLpkE+HfDrk0yGfTtj56PgAxCxzqAt/PjWlxRaZljqxaHmH+eJ3XjMXfv139jqZBwAAAAAAAIrR1tZmRo0aZWpqarwaY8444wz755m9e/d6NQAAAEBy0PEBcMie/R+Ya/7pdTPzonqTXjPJlqYJtebbP2n3bmHMw2veNbOnn2Cvmz293qvNrba21ptyE2Mg6ZBPh3w65NMhnw75dMinQz4d8umQT4d8OuTTIZ8O+XT8fHJGh61bt5qGhgY7H7Rjxw6zbds2by5abF8d8umQT4d8OuTTIZ8O+XTIpxN2Pjo+AA7Zve+gaevoe1qXJTeNscU3dnSNmXDKYG8OAAAAAAAAAAAAAKobHR/yCA5DEByCIDj8ABCWkUMG2LM93PiDtn7bWUP9QHNsTXG7rpym0GWMgaRDPh3y6ZBPh3w65NMhnw75dMinQz4d8umQT4d8OuTTIZ8O+XTIp0M+HfLpkE+HfDrk06m2fHR8yEOGGJChBqaeeZx55Nme07x1Pn6W/XE6OPwAEBYZvkKGsZB2JuouWU9HGwAAAAAAAISipqbGjBo1yrS1tXk1hw0dOtQMHz7cmwMAAACSg44POcgPzWs3dZvPTRpm9uz/wKzesNN2gpB/5TeeVGOv48dolIu0s1cfnNjbAWLTG3vsZSlqa2u9KTcxBpIO+XTIp0M+HfLpkE+HfDrk0yGfDvl0yKdDPh3y6ZBPJ5ivoaHBbN261ezbt8+rMebFF1+03yENGjTIq4kW21eHfDrk0yGfDvl0yKdDPh3y6YSdj44PBdq976Bp69hvThsdzxt/VAfpSCNnd1i0vMOrOdzhYcIpg+0lAAAAAAAAoDFt2jTz5ptvmuXLl9v5zZs3m3nz5pkZM2bYM0IAAAAASUPHhxyOrTnKNNQPNJvf3md/fN7W/b45b/xH7HU/b9nee/YHICzSnv719kYzd+nbJjWlxZYr73zN1mnaWnd3tzflJsZA0iGfDvl0yKdDPh3y6ZBPh3w65NMhnw75dMinQz4d8ukE8w0bNswsXLjQdnZIpVJm7NixZs6cOWbSpEneLaLH9tUhnw75dMinQz4d8umQT4d8OmHno+NDDoMHHm3uvPaj9kfoabe+Yi49b5gZP2awmblgi2nv+ou5+/qTvVsCpfOHtJh65nF2XtrYu0+cZdJrJtki01InZk+vN0997xO2bQIAAAAAAAClamxsNJs2bTLpdNqWK664wrsGAAAASJ5UakRj2puO1MGuVm8qWvIPevkxuZxKeQwZ2uDGH7R5cz0WfrXB/tCdTRTPAwAAAAAAAAAAAAAA13HGBwdIp4clT3aYzscP/8tfpqVOrgMAAAAAAAAAAAAAANnR8SGHrp0HzGlXb7RnV8hVZOiLUsljSAeHBbMa7JAHPpmWOrlObgNodHd3e1NuYgwkHfLpkE+HfDrk0yGfDvl0yKdDPh3y6ZBPh3w65NMhnw75dMinQz4d8umQT4d8OuTTIZ9OteVjqIs8/LMxrJ0/rrdjgnREaLr5ZTPzonrz980jzGX/uNmMHnmMWXLTGHt9MY/hL0s6OUw98zivtsfqDbvMTYvb+jy2r9jngeqWSqW8KQAAAAAAAAAAAACoLHR8yKHQTgmb3tjTp4NC2J0rZk+vt3VBdHwAAAAAAAAAAAAAAIChLpwgHRukg0PdJetthwYpMt1fpwcAAAAAAAAAAAAAANCDjg85yNkXpPOBnM1BzsDgk2mpk+vkNpvf3mca6geaY2tKX53SwUHO4BAsdHpAWNrb270pN5FPh3w65NMhnw75dMinQz4d8umQT4d8OuTTIZ8O+XTIp0M+HfLpkE+HfDrk0yGfDvl0yKdTbfno+JCHdD6QoS4yz8YgdXKdDFMxd+nb5s5rP2oGDzzau1du0nHitKs32uEygtMAAAAAAAAAAAAAAKA4qdSIxrQ3HamDXa3eVLSk44KcTaGc8j2GdHZouvll23liwimDe6ennnmcd4v8ongeAAAAAAAAAAAAAAC4jo4PZVDIY8iZIm78QZs317+xo2vM2vnj7JAaQXR8AAAAAAAAAAAAAACAoS5iI8NkSMeFzsfPsp0bVt11up3PLK8+OPGITg9AsRhjSId8OuTTIZ8O+XTIp0M+HfLpkE+HfDrk0yGfDvl0yKdDPh3y6ZBPh3w65NMhnw75dMinQz6dsPPR8aEAcnYGOcOClNUbdtn5C7/+O7Nn/wfeLUonnRqkc0Mxw1wAAAAAAAAAAAAAAIAeDHWRx8wFW0x711/MPbMbbGeHBbMazDnj/spc9o+bzeiRx5glN43xbnlYvsfo2nnANN38sl3WhFMG2+nW9n3etX0x1AUAAAAAAAAAAAAAADlIx4c4SlzM5HXeVH6dO95Lj73q1+lV63f2mRZyKfNSn6mYxyhVFI+BynFoV3e6NDU19Znes2ePl7yHzAdvE3VxPZ/rhfWnK6w/XXF9/ZGvsgvrT1dYf7ri+vojn66QjxJnYftWdnF9+5JPV8hHibOwfSu7uL59yacrruejUOIsru8frucLuzDURQzkjA+nXb3RDpsRnAbKZdeuXebQ8cvZsnLlyt7pmpoas2LFCi95D5mX+uB9oiyu59u3b1/WelcK609XWH+6wvFFV2h/usL60xXWn65wfNEV8ukK+6+ucHzRFbavrnB80RXy6QrHF13h+KIrbF9d4fiiK+TTFfZfXSGfrrD/6krY25eODznI8BIzL6o3i5b/wezZ/4FX29Nx4abFbfa6zCEoAOg0NzfbA3GQzEu9C1zP5zrWnw7rT8f19Ue+ysb602H96bi+/sinQz7Eie1b2VzfvuTTIR/ixPatbK5vX/LpuJ4PiBP7b/xSMuyENx2pg12t3lS0UlNaTHrNJG+uMHI2hmm3vuLN9Vj41QYze3q9N9dXIY+xaHmHufEHbd5c/8aOrjFr5487ooNFKc8DSIItW7aYc845x3R0dHg1xpxwwgnm+eefN2PGjPFq4uN6Ptex/nRYfzocX3RofzqsPx3Wnw7HFx3y6bD/Vja2b2Xj+KJDPh2OL5WN7VvZOL7okA9ILvbf+HHGhxzkLA8Xfv13dlo6GQRLf50eCiX3l+V0Pn6W7dyw6q7Tj3gMKa8+OJGzSqCqyMG1vr7etLS02Hm5rKurc+ag63o+17H+dFh/Oq6vP/JVNtafDutPx/X1Rz4d8iFObN/K5vr2JZ8O+RAntm9lc337kk/H9XxAnNh/40fHhxx27zto2jr2e3PlIZ0apHPD1DOP82qA4m3evNlMmDDBpFIp89BDD9ki01In133jG9+w89OmTTPbt2+3RaalTsrcuXO9JfXIvH/mvNw+uDyt/fv77mcXXHBB7zhDcinzpci3Xgp9HuXKF5bMfMHn7T/3OLm2/uTF3F83sp5++9vfetf0yLf+ol6/tD+dYtdfML9klyLTUifXZR43ij2eZt7/W9/6Vp/5sLZvsc+jP7Q/HdfWn7/d/fLss8961/TIt/6iXr+0P53MfGeddZb5b//tv9l9Prj+tNtdxmK8/vrre6+XaakLkvv418uyZJl+Pv84+pvf/Mbcdttt9rpLLrnEzsv9go/vz3/hC1844tgVfH2X4n+I9xX7PL785S/3eR7lan/yPOT5SL5ilHv/yLe+8kna/qsVbOPZ1pd/vd/+M+czhZ0vbNW2fTOFvX+4JjMfrx/FPQ9eP8LdP8q1/kql3X8z349ntjdte9TmK7dK3775hL1/uMbP57dzOR7Lv4qlHQe3b771kO/6KF8/giXs/TXq14/gOsmWJ59q33+1yp0vX3vLp9rXn5Z2/8j3/iDf9s13vTZfuYW+fWWoizhKXMzkdd5UYRY+/od08z+8kt69732vJr9iH6MUUTwGkuOOO+6wRWzbti09derU9Lp1PW2ktbU1PWXKFHvpz48fPz69bNkyO+/fPnPev3+25Z1//vm9ywvDoTd13lQPeaxPfvKTdloun3/+eTtdrHzrpdDnUa58YQnmy9ye/vb2n3ccXFp/8tiyPvztLvN/+7d/a9ebyLf+4li/tD+dYtdfMccN//llHj8z53Pd/2/+5m9650VY25fj3+Ht4z/vOLi0/qQ9XHfddem9e/faeVk/f/3Xf927fvKtvzjWL+1PJ5hP8pxyyinpj3zkIzarv/7C2O7BtiVFpv3jj5BpWYYsS8iyZH7r1q2983KfZ555xuaS29fX1/duX5n3l+c/fnB5IjOXXMq81ItSnse1117b+7hCbht2+/NzBbMWqpz7RyHrK58k7b9afpv222Tm+vPn/fWXOZ9NmPnKoZq2b6Zy7B+uCeaT58frR3HPg9ePcPePcqw/Dc3+G2wrIlv7M8b0zvvrM3M+1/pN0vFFSPZK2b75lGP/cI3kC7ZzeW6f+MQn7PM89dRT7fbNtx4KWU+Zx12ZDh53ZVqWIcsSsiyZL+b1Q75Lz7W/Zs7LpcxLvSjleZTz9cNfB/46ycxXiGref8PA8UUnafmK2T+CxwKRuf3ybd9Ctr8mXxTC3r6c8SGHrp0HzJInO8yKX+00xza/YFJTWvqU067eaG8DxOnQQcEceuNmGhoa7PyhA505tG+b4cOH984PGDCgd/7RRx81Z599tpk+fbqdHzZsmJkxY4Ydw0eWle3+mfPSa8yfD8PAgQO9qR6TJk0ynZ2d9p+ocim9g4tVyHop9HmUI1+YgvlWrVplTj755N7t29jYaObMmWOWLl3ap9dwlFxaf2vWrLHrQ9aLmDhxom0jh94Q2Pl86y+O9Uv70ylm/RV73CjleBq8v8wfffTRfY5DHP+KU0ntr5zkHy3SW1zaZ01Nja2T9XPppZfa46Lg+Fe8pLQ/6ek/duxY8x//4380f/nLX8yhD7i960+73eVfBbK8m2++2bYtKTItdXKdlMcff9zcfvvt9hgp5N9V4ve//729bGtrM6NGjTJTpkyxY0xu2LDBLlvyyaV/PPOfh5RMcjyWf2lJGxFyKfNSL0p5Hrfcckvv8xBhtz/ZJ+U4LMfnkSNHerWFK+f+EUZ7TtL+qyHrQ1735fjqt/FiP19lE1a+cqmW7ZtNOfYP1/j5eP3g9aNYvH70r7/349Le/PfjcnnHHXf0tkdp+7IPFLpfiaQcX3yVsn0LUY79wzV79uzp085l++7cudN+9ybHadm++dZDKcfdsF8/ZPx7eb+Wa39N0uuHPF6+96uFqOb9NwwcX3SSlq/Q/aOQ9wfa46YoNV9Uwt6+dHzIwR+GIr1mUtYi18ltgGKt3rCrTyeaRcs7vGt6OtxIp5psHWzkdl/8zmvmwq//zl73vZ/8zlx88cXm/vvvN1deeaX9AU4+zD/99NP28vOf/7w9aK1evdp+MP7xj39sP/yfe+65vQdSccUVV5j77rvPbNy4sc/95RRbuZaXecqcMMnpdZYsWVLSaXbkBaOY9VLK89DkKyf/zXtw+55xxhmmu7vb7N2716uJX1zrTz74SHvP9Oabb9rLfOvPlfVL+9PJtv6KPW4UezzNvP9XvvKVfo9Dmu3L8Y/jXzbypYZ8EJIPNv3h+KfjavuTY8K//du/2Q5+N9xwQ+/xy19/2u2erSPV6NGjzcc+9jF7nRQZK1KOPz6/PcoXoHJq129+85u2jBs3zv6I84tf/MLs2rXLfOYznzH/5b/8l97jmXxwf+GFF+zzCJIP8sHOXj75IlPq5Xrt8/CF1f4kk3wJIV9sLlq0yKvVCytfudpzWPlcIutIXvezvb8Uv/zlL/u8Dmd+vpJTmlaKSty+2bh6vA8brx+8fpSC14/+5Xs/3l97lLZV6H6VVJWwfQtRqdsvKFs7l+26fv168/GPf9zO51sP2uNuGK8fP/nJT+ywuPI+TV4PMyXt9UMy5Hq/qlEt+6/rquH4kkSF7B/53h8I7XGzP5W8/9LxAYiYdF648s7XzKYfTrAdaORy7tK3bf2e/R+Ya/7pdTPzovreDjZNE2rNt3/S7t3bmIfXvGtmTz/BXvf1qz5hnnjiCXPdddeZZcuW2Q/z8sXE+eefby9/9rOf2Q/E8sZN3jRddNFF9gfeESNG9BlDzP/CTQ6wwfv/8Ic/zLq8qVOn2uWF9YYp2xg+csBdu3ZtSQdeecEoZL0U+jzCzhc2P19/b7zFjh07+rxxjpLL62/58uX2zYH0/s63/t55551Y1i/tT6fQ9VfscaPY42nm/e+99147/7d/+7d2Pngc0mxfjn8c/wolX+DIvztknXH8K00S2p8cEx5++GHb418cf/zx9hgg6y+M7S7HQflnwaBBg7xrDpPr/OulM5h/nJRxJ+VfTDItX8DJPxulvPzyy+af//mfbU//2bNnm2eeecb+6OYfz/7whz+YT33qU97SD5MP8v7jZJJ6yVrK8/C3r1znC6v9+V8+5vpyI59y7R9hteek7L/lIOtQjq/y5ZN8AR58Hc78fCWdcrMpZ74wVOv2Lef+4RLJx+sHrx/F4vWjePJ+XP7lKetMtq28bsj3E0Gy3l599dWC34+Hma8cqmn7BlXT60cm+ePF66+/bi+T9vohP0bK66EI7q9JfP3IJNvCf78a/LE0l2rdf8NSrnzVfHxxSZj7R/B4E8ZxU4SZrxzC3r50fAAiJB0bVm/YaW6fcZIZP2awrZNLmZf6P+46YNo6+u7kS24aY4tv7OgaM+GUnvuWSv7xIKfSkl6tcvCTA6lr/zY677zzzLvvvmsvXeR6PtfFvf6kzcsHHvkH0Be/+MXeDzJJQfvTCXP9leN46vr2dT2f61xYf/LB6Rvf+Ib56Ec/2nsqvKSg/ekMGTLEfoiOcv3JP26lE5YcJ6XIcfPyyy83r732mneLw+QsOvKB97TTTvNq3OJ6+yOfG+6++277hbWc3amaVMv2rVa8fui4vn+QL3r++3H54dN/Py6d5eRf6PKZUsht5Awfla4Sty96SBt+7rnnzHvvvWeHcYhK2K8f2fbXqJRr/wjr/Sr7L9C/UvaPKI83lbz/0vEBiNDufQdtx4bGk/r2pDxv/EfMrt3vm0HHHG3P9nDjD9qOGObC11A/0BxbU9yu+6EPfcib6rF48eLef27ID77yTyMZ/8wfQyxq2cbwkTfG8q8SuYxbEvO5xMX1J/+QkQ8/0ktbPgy51vEniPanU+71pz2eHnXUkcdz17ev6/lc4uL6kw9R0llHvuT4/ve/X/C/O+JA+9PJlk/G2JVjVZTrT/4xFfyiUz68yzA8/+t//S+v5jD515Hkln82xi2J7Y98hcuWLwzynlLeByxcuFDVsbZc+cJSrds3LEnMx+tH4ZK4f5CvcNnyFSv4fvy73/1u7/tx+Z5Czqwi/4yXP2p8+tOftv/CHDlypL2+EGHkK6dq2L7llKR8fjt/6aWX7OvHr371K++a8gvz9aO//bUcoto/Sn2/GlW+UiVp/3AR+XTC2D/KebwJI185hb196fgAOKBzxwGz48/v2+nZ03uGueh8/Cw7X3fJ+qwdIMIk44kV80EqCitXrjRNTU320kUu5pMXw2ynRhRDhw7tM25c3FxZf7LOZsyYYf9RIZ0gcq2/E0880Zn1S/vTKef6C+N46uL2DXIxH+2vMMEPUQ899FDvlxz51h/Hv9yS1P6kN798mS7rL4ztLv9CkPYkr6GZ5Lps/MfN5umnnzYnnHCC/YK0UHJ6WD9HJqmXrGE9DxfbX1AY+crZnl1ff1r+l8iPPPJIb6fIalLp21ck6XgfNl4/+ir2ebi+f4SRj9ePwvT3ftzn/0lDyqZNm+x6k04QLr0fD1slbd/+VNvrR7Cdn3766fZsJrJ9k/b60d/+muTXj7Dfr1bD/uu6aju+JEkx+0cc39dV8v5LxwcgQnKmBjljw+a393k1PWQ+80wOI4cMMK8+OLG3A8SmN/bYy1K8/35Ppwo5YMqHqMw3ZnJ6dvkgFdcLYbYxfOSAO3PmTCcOvEnKJ+M5ybhO8mLpe/HFF01tbW3W8e+i4Mr6k3Vy/fXX2zcPQXLKPV++9RfH+qX96ZRr/YV1PD148KA3dZir29fnaj6Of7nJepEPUeKJJ56wbbiY9cfx70hJbH9yjPrSl77Uu/60212OdfLFvCzX197ebn7/+9/b68444wzT3d3d5ws9WZYs86STTvJqDlu9erX9crSYH676+yJgzZo1tl6uL+V5yFjE/vPwudr+fGHlC6M9J2n/DYN8iSwdaWVs6DC+RA47X9iqbfsGlWv/cEm2fLx+8PpRCF4/cpP1kvl+PEi+q5DvLILrT9qjfO6U2xayfpN4fKmU7ZtPufYPl0i+zHYubTi4ffOth1KOu+V4/ZDvCvvbX5P6+qF9v1rN+28YOL7oJDFfofuHbLdc7w+0x02hyReFsLcvHR+ACA0eeLSZeuYQM3fp2+alLT0dGeRS5qVehsKQszssWt5hrxN+h4cJpwy2l1qXXXaZ+elPf9p7GnYZp1Pe+PgfpFwgb8Lq6urM5MmT7aWc6s8lLuebNm2a/SF2+fLldl6287x58+xZDeSNtwviWn/y/GXsPlkfwfb/ve99z64faf/51p8L65f2pxPm+ivH8ZTjX+k4/uUmY3iK+fPnZ10fHP90ktD+Xn75ZXPMMcfYf+z660+73eULM1metCv5kC1FpqVOrpPyiU98wtx77732/kKWJcNMTZw40avpIdtXzpgj/7g67rjjitq+cjyWfy7JMoRcyrzUi1Kexz333NP7PITL7U+Ema8c7dn19achP1TJ8wv+M6faVPL2zZSE433YeP3g9aNQvH7klu/9uPxgK21848aNdr7Y9phElbR986nE7ZdNsJ1LW87cvvnWQynH3XK8fqxYscJe9re/Ju31oxzvV8PMB51qOb4kSTH7Rxzf11X6/kvHByBiMpTFsttONRO+vMmkprTYy9tnnGTr5SwP/3p7o+0IIddJufLO12ydXFeqD33oQ96UsW+eFi1aZC6//PLefyXLj3QyLn1cMsfwkTeXMo6hkMu4e50lKZ+8eZUx2uTFTbbv2LFjzZw5c+w2jotL6++KK66w60PWi9/+r7rqKlsv8q2/ONYv7U+nnOsvjOPpUUf1fSvG8a841dz+iiEfeuRLmPvvv9/29pb1I0U+APn/KuP4V7yktb9f/vKXvf8e8tdfGNvdHz9X2pb/b4LgmLr+MVHuL0WWJadW/eu//mtb75PtO3XqVDst1xWzfeV4vHjxYvtFoTyGXMq8/6VhKc/j6KOP7vM8qun4HEZ7TtL+qyGdHpcuXWr/LSj7l9/OpcgXUHJ9KcLKVy7Vsn2zKcf+4ZrMfLx+8PpRKF4/+tff+3Ep/vvxzPY4a9asPqejL2T9Ju34wuuHbv9wzVtvvdWnnUtb/s1vfmOfr/jFL36Rdz2UctwVYb5+7Nq1y6xfv76o/dXl14+w3q9W8/4bBo4vOknLV+j+Ucj7gzCOm6Xmi0ro2zc1ojEdR4mLmbzOmyqfSnkMIC6f/OQn0+vW9bRxuZR5l7iez3WsPx3Wn47r6498lY31p8P603F9/ZFPh3yIE9u3srm+fcmnQz7Eie1b2VzfvuTTcT0fECf233hxxgegCsjYZi4LjuGzZcsW09HR0dsjTS47OzttfVySlM9FrD8d1p9OktYf+YpH+9Nh/emw/nTIp0M+nWA+FyUpH9u3eGxfHfLpkE8nmM9FScrH9i0e21eHfDpJyuci8ukkKR/7b/HC3r50fEioE4//sNm67T1vDqgcclqd5uZmb66HC6fb8bmez3WsPx3Wn47r6498lY31p8P603F9/ZFPh3yIE9u3srm+fcmnQz7Eie1b2VzfvuTTcT0fECf23/jR8SGhzh1Xa37xyx3eHJBbbW2tN+Wm4Bg+wfGFfDIv9XFJUj4Xsf50WH86SVp/5Cse7U+H9afD+tMhnw75dIL5XJSkfGzf4rF9dcinQz6dYD4XJSkf27d4bF8d8ukkKZ+LyKeTpHzsv8ULffumRjSm4yhxMZN7xi0ppyge499/vSt90mUb0u1d+70aoH+HdnWnS1NTU5/pPXv2eMl7yHzwNlEX1/O5Xlh/usL60xXX1x/5Kruw/nSF9acrrq8/8ukK+ShxFrZvZRfXty/5dIV8lDgL27eyi+vbl3y64no+CiXO4vr+4Xq+sEtKOiEcmojcwa5WbypaqSktJr2mZ+ySconiMcT3H37H3PvzTnPblSeaz356qBk1/MPeNUBf7e3tZvTo0d6ce8inQz4d8umQT4d8OuTTIZ8O+XTIp0M+HfLpkE+HfDrk0yGfDvl0yKdDPh3y6ZBPh3w65NOptnwMdZFg//CFE82Pb/24+T8v/cmcPeslrxYAAAAAAAAAAAAAgOrBGR/KIKozPgAAAAAAAAAAAAAAUO044wMAAAAAAAAAAAAAAEgsOj4AVUDGyHEZ+XTIp0M+HfLpkE+HfDrk0yGfDvl0yKdDPh3y6ZBPh3w65NMhnw75dMinQz4d8umQT4d8OtWWj44PAAAAAAAAAAAAAAAgsVKpEY1pbzpSB7tavalopaa0mPSaSd5ceUTxGAAAAAAAAAAAAAAAgDM+JN4zG7vNF7/zmjnp8g1eDQAAAAAAAAAAAAAA1YOODwn2/YffMV+663Xzn8d/xLyweLxXCxyJMYZ0yKdDPh3y6ZBPh3w65NMhnw75dMinQz4d8umQT4d8OuTTIZ8O+XTIp0M+HfLpkE+HfDrk0wk7H0NdlEEUjyFnepBODy33jDMnjTjGqwWyS6VS3pSbmpqazNq1a3unn3rqKTNo0CA7L/bu3WsuvPDC3tsAAAAAAAAAAAAAgI+OD2UQxWPI8BZypofrP1vn1QCVobm52VxzzTXm0ksv9WqMeeyxx8wDDzxgVqxY4dUAAAAAAAAAAAAAQA+Gukio51/uNp/99FBvDqgc0vFh5cqV3lwPmZd6AAAAAAAAAAAAAMhEx4eEeufd98yo4R/25oDcuru7vSk37d+/35sy5oILLjjizA7S8UHq4xLM5yLy6ZBPh3w65NMhnw75dMinQz4d8umQT4d8OuTTIZ8O+XTIp0M+HfLpkE+HfDrk0yGfTrXlo+MDAKeMGTPG1NfXm5aWFjsvl3V1dbYeAAAAAAAAAAAAADLR8SFmXTsPmNOu3mhWb9jl1RwmdXKd3AZuWbS8w1z49d+ZPfs/8GqKE9zuudpAWGpra72pHps3bzYTJkwwqVTKloceesi7Jh4DBw70pnoEz/ogl3Ge7UFk5nMN+XTIp0M+HfLpkE+HfDrk0yGfDvl0yKdDvtJs377dTJs2zdTU1NjP4XPnzvWu6RH8nC6f0aXItNTJdXJ7mZdlyLLKhe2rQz4d8umQT4d8OuTTIZ8O+XTIp0M+nbDz0fEBKMHs6fXmqe99wgweeLRXU7qRQwaYVx+caKaeeZxXU17yBcmNN95o5syZY9LptGltbTXz5s3rPcOCC5qbm+3wFiLuYS4AAAAAANCQjguf+cxnzIwZM+zn8G3bttnP4ME/ITz66KPmkksusddL54alS5eadevWmU2bNtnrZVo+v69atcoMGzbM1gEAAAAADqPjQ0zkjAGpKS2m7pL1prV9n5l26yt2PlikrmlCrf1hHNDo7u72poz9kuTkk08206dPt/ONjY22E4R8qbJv3z5bF7XMMXwmTZpkOjs7zbPPPmsvzznnHO+aeDBGkw75dMinQz4d8umQT4d8OuTTIZ8O+XTIp+NiPunUcPbZZ9vP4ZJPOi5IJ4jnn3/efg6XsnXrVtPQ0GBvLx0jpAPE8OHDe+flbA/+fDmxfXXIp0M+HfLpkE+HfDrk0yGfDvl0yKcTdj46PsREzhiQXjPJdD5+lhk7usasuut0O59Zltw0xrsHojRzwRbzxe+8Zoez8DuiSJ0vONTFS1v2mLFXbTQPrvqjOf7i9b23Dw5d4Q9n4V/3zz/b6l1z5HAn8ji3/o83e28fHA7Dv79MS10p2trazKhRo+zpNX1nnHGG7Ryxd+9eryZ+cpaHJUuWcLYHAAAAAEBi+Z0azj333D6fw6+44gpz33332c/hF198sbn//vvNlVdeaTtIjB071jz99NP28vOf/7z9M8Dq1attx4e4h6oEAAAAAFfR8SFmUQ9zgMI9vObdQ9tliO2AIh1U1m7qth0estn+p/fNz57bZt58+D/a2y/8aoO5aXGb7ZwgnSOu+afX7dk75LrdK842/+/3e+2ZPvrzwMo/mn+9vdHe/pxxf2XvP/Oins4yUmRZ3/5Ju3fr/Gpra+1l5r9Ignbs2GH/RRKHbGP4SIeHtWvXOtHxgTGadMinQz4d8umQT4d8OuTTIZ8O+XTIp0M+HdfySceGN99804wYMcJcf/31tvODnL1h7ty59no5+8MTTzxhrrvuOrNs2TLzwgsv2CEtzj//fHv5s5/9zA5zMXXqVPuZXTpMlBPbV4d8OuTTIZ8O+XTIp0M+HfLpkE+HfDph56PjQ8wy/8mfWTT/7IdO86eGmL9vHmGnpYPKglkNZsmTHf1uj9nTTzCDBx5tp88b/xGTThvTueM9s+7lP5u2jv3m21eNttfJbe689qNmeG3/Q5icNfZYc8qonp19976D9v5BciaQSj8byHnnnWfeffddewkAAAAAQJLJEJM333yzHcJCOjC0tLT0dn4AAAAAAOjR8SFm/hkf/H/y+0XOMPCfTv8r+69/uQ2iN3rkMb0dGUTd0AG9nRkyDfvIh+z12Wx+e59pqB9ojq05vLvVDf2wGV77IW/uSMHHlu0vZ3u48QdtJXeGkWEsXJZtDJ/nnnvOHH/88fYybozRpEM+HfLpkE+HfDrk0yGfDvl0yKdDPh3y6biab/HixaaxsdHmk7M83H777ebxxx83mzdv9m7hBravDvl0yKdDPh3y6ZBPh3w65NMhnw75dMLOR8cHR8mP3d/8r6PNbT96yw6VgOo2e3rPMBfSIUbUXbK+pA4QckrNUaNGmba2Nq/msKFDh9rxQl2xcuVK09TUZC8BAAAAAKgk8vl75MiR3hwAAAAAQIuOD46TIQ5kqANEr73rL306nXTuOGBSqZ6zNRSj8aSaI7ajnDViW/f73lzh/DOE+B0gNr2xx17mU1tb600Z09DQYLZu3Wr27dvn1Rjz4osv2tsMGjTIq4lWtjF8pMPDzJkznej4wBhNOuTTIZ8O+XTIp0M+HfLpkE+HfDrk0yGfjmv55OwOkyZNMm+++aad9/PJcBepVMqpPyAItq8O+XTIp0M+HfLpkE+HfDrk0yGfDvl0ws5HxweH/bxl+xFDJCA6K3610/zLij/aaTmzwk2L2+yQE8UOPXLOuL+y2/HbP2m389KZQs7ksa27sLM1yGPL2R0WLe/wag53eJhwymB7WYxp06bZL1yWL19u5+W0mvPmzTMzZsywZ4RwgYx1WldXZyZPnmwv161b510DAAAAAECyXHbZZeanP/1p77AW27dvN3PnzrUdIqRjBAAAAABAj1/UY+b/qJ2a0nJEeey57ebOaz9qBg882rs1ovSFKceb1Rt22m0hQ0tIpwcZcqJYsv0e/VajPYOELOvY5hfMf/jYIDN2dGGdDKSjxb/e3mjmLn27t21ceedrtq7QThjd3d3eVM+/TRYuXGg7O8i/S8aOHWvmzJljv3CJS+YYPitWrDAXXHCBnZbLuM/6wBhNOuTTIZ8O+XTIp0M+HfLpkE+HfDrk0yGfjov5GhsbzaJFi8zll1/ee5YH+Qx+++23e7dwB9tXh3w65NMhnw75dMinQz4d8umQT4d8OmHnS6VGNKa96Ugd7Gr1pqIlPxqn15T3B95KeYxqNnPBFnu55KYx9jLppONDcLgL18iBLXg6m4kTJ5p77rnHfhEkZ3+44YYbzMaNG71ro5eZzzXk0yGfDvl0yKdDPh3y6ZBPh3w65NMhnw75dMinQz4d8umQT4d8OuTTIZ8O+XTIp0M+nWrLxxkfgCrgcqcHETyobdmyxXR0dPSegUIuOzs7bX1cXH5REOTTIZ8O+XTIp0M+HfLpkE+HfDrk0yGfDvl0yKdDPh3y6ZBPh3w65NMhnw75dMinQz6dastHxwcATpFhLZqbm725Hi4MdwEAAAAAAAAAAADATXR8cMSi5R12+IpgkTrEQ4a4qJRhLoQMdeEyOZWNb8WKFbajQ5DMS31cgvlcRD4d8umQT4d8OuTTIZ8O+XTIp0M+HfLpkE+HfDrk0yGfDvl0yKdDPh3y6ZBPh3w65NOptnyp1IjGtDcdqYNdrd5UtKRDQXpNzyn0y6XYx5AODkue7DBr548zI4cMsHVdOw+YpptfNjMvqjezp9fbuqAongcqRyqV8qbc1NTUZNauXds7/dRTT5lBgwbZebF3715z4YUX9t4GAAAAAAAAAAAAAHx0fCiDYh7D7+CwYFaDmXrmcV5tj9UbdpmbFrf16RDho+MDAAAAAAAAAAAAAAAMdQEAAAAAAAAAAAAAABKMjg8xkzM5yHAWcmYHOfuDT6alTq7LPNsDUKz29nZvyk3k0yGfDvl0yKdDPh3y6ZBPh3w65NMhnw75dMinQz4d8umQT4d8OuTTIZ8O+XTIp0M+HfLpVFs+Oj44YPb0etvBoe6S9XYICykyLXVyHQAAAAAAAAAAAAAAyC6VGtGY9qYjdbCr1ZuKlnQqSK+Z5M2VR6U8BgAAAAAAAAAAAAAAruOMDwAAAAAAAAAAAAAAILHo+OCAl7bsMcdffHiYi2A57eqNpmvnAe+WQGkYY0iHfDrk0yGfDvl0yKdDPh3y6ZBPh3w65NMhnw75dMinQz4d8umQT4d8OuTTIZ8O+XTIp0M+nbDz0fEhZnv2f2Bu+9Fb5tLzhtmhKzLLqw9ONCOHDPBuDQAAAAAAAAAAAAAAglKpEY1pbzpSB7tavaloyVkUpENBORXzGHI2h6abXzYLZjWYqWce59XmF8XzAAAAAAAAAAAAAADAdZzxIWbH1hxlGuoHenNAeaRSKQqFktAyefLkPtN79+719uweMh+8DaVvYf1RKMktru+/5KNQKNVaXD++kE9XXM9HoVD6L67vv67nc724vv5cz0ep7EL7o8RZXG9/1ZaPjg8xGzzwaDN7+gnmpsVt9uwPQDns2rXLpNNpZ8u+ffuy1rtSyKcr5NOVlStX9k7X1NSYFStWeHt2D5mX+uB9oiysP11h/9AV8ukK+6+ukE9X2D90hXy6Qj5d4finK+TTFfZfXSGfrnB81hWOL7rC9tUVji+6wv6hK2xfXaH96Uq15aPjQ8yks4N0emht32fqLllvh7AIltOu3kiHCACA1dzcbN8IBMm81CM/1h+QXK7vv+QDUK04/umQD0C5cHypbGxfoH+0P8TJ9fZXDflSqRGNaW86Uge7Wr2paElngvSaSd5ceVTKYwAA3LJlyxZzzjnnmI6ODq/GmBNOOME8//zzZsyYMV4N+sP6A5LL9f2XfACqFcc/HfIBKBeOL5WN7Qv0j/aHOHF81gkjH2d8AAAgIeTFvb6+3rS0tNh5uayrq+NNe4FYf0Byub7/kg9AteL4p0M+AOXC8aWysX2B/tH+ECfX21815KPjQwxk6AoZwmL1hl290/7QFpmFoS4q00tb9pixV220l1Ho7u72pty0f/9+b8pNhebbvn27mTZtmkmlUkcUqZfrhRysg9f5B3Hf5s2bzYQJE3qvf+ihh7xresiYVtdff33v9V/+8pdtnasqZfvGJTPfBRdc0DvOlVzKfDkU2p6fffbZ3nppt9J+g4ptzzIdZnuOa/0Viv2jMHPnzrXtw297weNoKe0u3/VhYfvqFLr/Fnq88tuRX8J+/S30+JLZnrW5+ru+0PUXF/YPnULzubJ/uIb2p5OZr9jjS2Z7kyJ1vsx2G7xOBNujtEUpMi11cp02XyZZvrRvv027ki9zudpcvrDXX9iStn+4wt/e48ePt9vbn/eLzAcV2l7CxvbVKXX/zXwdD5bgNte2m1LzhaG/5xh8Dr/97W9782deJ4KfQ6Vkvl/KfIzga0cYCl1/hb7/C24vKdrnW+rno6jEtf8Wuj2+9a1v9bkuc3271v5cE+fxpRCurD//fbjf9vx5vxTb7vIdR8JS6e1PtkPme/dcij0eFHN8zryvX4rZtvnahSZfUGZ77iVDXcRR4mImr/OmyqdSHgOVY9euXd6Umw4d1LwpN2nybdu2LT116tT0smXL7Hxra2t6/Pjx6XXrevZhuZR5qRf5bi/uuOOO9HXXXZfeu3evLddee62tc1Ulb98oZOaTtvDJT37STsvl888/b6ejkNk+Jctf//Vf97ZfmZfr5XailPYs02G2Z5fWXzbsH/lJuzn//PP7tDP/uCn5im13hbTLsLB9dTLzFbP/Zm7n4LFGlNIu8r3+FpJPlhtsz9pcua7XrL8osH/oaPLFsX+4hvank5mvmOOLtA9pK357yuS3L//6zPYnpG357cu/PtgeNfmykcf227cr+TKXG0YuX9jrL2xJ2z9cENzekk/ahcxLffD6UtpL2Ni+Opn5NPuvf7z220EY7SbMfMXK146l3hjTe33m+53M67MtT5578P1QcP2FQbP+MrdX5vMJ4/mW8vkoSi7tv5nbQ9abrD9ZjyIJ7c81cR5fCuHC+pN21d/3EZKv2HaX2Y4z7x+mSm9/si0K3V/zbReReTwo5vicbXnFKKRdaPL5MttzEGd8AKpAbW2tN+WmgQMHelNu0uS79957zcknn2ymT59u5x999FFzySWXmEmTJtl5uZR5qRerVq3qc/vGxkYzZ84cs3TpUtvrTXrLHTrwm5tvvtnU1NTYcsstt9g6uc5Flbx9o5CZT9pMZ2enPdOCXMqYV1HJbM9r1qwxX/va12w7FRMnTrTXH3rDYedLac8yHWZ7dmn9ZcP+kd+hN8y29+7w4cPtvLQ7aUfSniRfse0u3/VhYvvqZOYrZv8NHq+k17f0fp8xY4Y9zgjZ7vL6K+1JhPH6W0i+YHsOI1eu6w991rN1Po5/xankfHHsH66h/elk5ivm+LJ3717z5ptv2jaVjXwuOvvss3vb27Bhw2z7fP755217k7J161bT0NBgr5fjqhzv/PcJQpMvH1fyZS43jFy+cq6/MCRt/3BBcHvLpbQLaR/SToSmvYSN7asT5v67fPlye7z+yle+YttEGO0mzHzFytWOJbu8r7njjjtsJpH5fkgug9fL87/99ttzvh9y6fuN4Pu/cj3fUj4fRcml/Tfb+/Grr77arkeRhPbnmjiPL4VwYf3JcbC/7yMkX7Htju/XDouy/ZX7+Kx93xfH92uZ6PjgiEXLO44Y5kKGwkAyyfa88Ou/M1/8zmu921Pm9+z/wF4fHOrCH+7kwVV/7DPsiSzDlzkkCkOgJIO8eXj88cd7D+JyYA9+CPRNmTLF1sv1bW1tZtSoUfb2vjPOOMMOVyJfEmY7oI8ePdp87GMfs9ehOsjpnZYsWdLvaZ7KIbM9C3lTdcUVV9jpIPlyRLjanuNYfyiNnApN3tyuXr3athOZ17a7fNfDbYXsv5nHK/kQKB+8/A+F2YR1vMqVL7M9SyZtrmLbcyHrD5Utzv0Dla3Q44u0iVw/PMnnonPPPbdPe5PX/fvuu8+2t4svvtjcf//95sorr7Q/9I8dO9Y8/fTT9jLX6WGLOf7J8VratBQ5beof//hHW+9KPtmPg8v95je/WbZcvmLywS2Z7eXuu++27SLb+2mxY8cOdXuBW0rZf+WHh3nz5tnPXvJeQY4t5Wo3UR1fsr1f8clxUj5PyvdzQfL8pfT3fZ4sK+73Q4Wsv8z3f1E+36i2b5IU+37c5fbnOtrfYcV+H1FIu+P7tdxytT95XZR9VooM+fDnP//Zu6Zn3WcONeEP5RDF8Tnb/YNy5RNxfL8m88FcdHxwgPzAveTJDtP5+FkmvWaSLTJ90+K2Pj9+I1lW/GqnqT32aLs9d68429bdcl/PjzLZ3PWv75i188fZ26+663Qzd+nbtmOEdJa45p9eNzMvqu9tH00Tas23f9Lu3TM/Oai4LGljNBVCDrTSi016SUqvNiEHdvlgke3fTVIvHxSzvXAJuU4O/P79Bw0a5F1zOJ9c56JK3L5RypZPXvDXrl2b9YW/HLK1Z18wn/+PEHmz098bMZGrPfvCas8urL9c2D9yky/WpMfv1KlTbZvJ/KJN8hXT7t5555287TJMbF+dbPny7b+5jldB/r8bpC2Uerzy8wWPV7ny5WvPophc+dqzXJcp3/qLEvuHTin54t4/XEL708mWr9Dji7QZ/4cw/4sy/wcx//PSiBEj+nyZ5l8vPww88cQT5rrrrjPLli0zL7zwgj3j0/nnn28v5ccaocknbV9+7JPlSQcNWeZ//+//3V4n+0Pc+YR8QR1c7o033hhKLp82X7klcf+IU2Z7kX/cZZK2Lf/aly+ppRTTXsLG9tUJa/991DuLjJxdrz+ltJuw8pVCjpP+DyT+cVJ+KBHy2iTH/Pfee89+rsy8Xn68kecoP+YEyf1effXVft8P+eS6MJSy/rK9//Ofrwjz+fr5gs83qu1bCBf232zbwxfMF3w/7nL7c0kp+0eU4l5/hXy/Vky74/u1voppf3KslfUs60iOxdJ5WT5/+KSTqqx7uU6Kvy7lTDFRHJ/lNv29Xopc+eQYF9b3B/3lE9naczAXHR9iJv/al04PC2Y1mJFDBni1xk5LnVzHP/uTaezoGvPtq0bb6cEDjzZ3XvtR8+xvum1nhmykY4PfBiacMtgMr/2Q6dxxwOzed9C0dfQ9cC65aYwtcFd7e7v5/e9/by677DKvBgjPeeedZ9599117GYV87VnerMmbIPlnR/DUl66Kev2hPKTdyRv+pLQ7hCPf/lvI6698EPvGN75hP2j5p94Li+b4Us5cPk0+JF/c+wcqW6HHF/kya/z48faHMPlSSjo7yJdj/o/0Qn6YlX9B+l+kyWt+8PpSFJLP/zFCHt//MUJ+NJZTyQbFlS+fcuTyhZEP7pIvimXflCENUHmK3X/9H77805/3J6x2E9XxRX4k8n8g8Y+Tcsz3f8zp6uoy3/ve9+y8XC+vU/JDlH+9nB1BzrAj60b4rxlxy7f++nv/J89XXiPK/Xyj2r5JUer7cVfbn+tof4Wj3YUvW/uT11hZh9Ih0P8eU9a3dBz0yXXBjqZyu+CZOcp9fM73epkvX1j6y9efYC46PgBl0lA/0Bxbc3gXqxv6YZNKGduZIZvGk7J/mJDOENIp4sYftJU8zEVtba035aakjdFUiBdffNGenkdO01Nulbj+opTEfM8995w5/vjj7WUUcrVnySdvbuSNkHxxLf/4COsL1jC4sP5yYf8oncvtzsf21Sll/833+isfCOVHIfmS9rvf/W7OL3PzKSVff8LM5TvmmGO8qcNKzVcO7B86peSLe/9wCfl0suUr9Pgi/8bZtGlTb8cCaWfy45qc8vmNN96wdYsXL+69Xr5Iky+w5Hp/zNd8Ss3X3xn6Mv+xFFe+fLS5fOXKF5Yk7h8uycwn76GlnSxcuNC2m7ixfXWy5St2/5UfwMXYsWPtZTaltpsw8pVKjolyWnc/r1zK64/8mLNr1y4zcuRIc8899/ReL8dT6VAm18sPVfL5U/5dKqfWlj9+fPrTn7b/QpX7RaWU9dff+z/JHdx+YTzfOLdvIVzYf/N9v9bf+3FX259LaH+lk3b39a9/3cl256uU9ud3JggO8yDrW85UkEk6Gsh6lyIdHXzlPj7ner2U1wdff/lKEeb+K7no+BAz/8wOV975Wp8zAcgP2zLURfAsAKhes6f3DHMhQ6CIukvWl9QBAtGQNwvyI1zmGKty+h75Ek3eRGSS+qFDh2Y9VZGQ6+QF0b+/fCmXKfMLOlSulStXmqamJntZbv2152zkenkjJD1OpY262p6jXH8ov2La3Yknnpi3XcJtufbffMer4JdI8kHI/xAntw3reFXK8aXUXKW051LyoTK4sH+gsmmOL9KOcn1Rl+/6QpTz+OdqvjBy+cq5/hAf/8frRx55pLfTDCpPsfvvmjVr7I8q/nuBTGG3mziPL/nep2ReL+tFfrCSIp345DgrP/jIZVzvh3Ktv3zv/zKV4/nGuX1dU+r7cZ+L7c91tL/8Sm13fL+WX6ntT15nZR1LRwO/o0TmGeiiPj4H75crX5jfHxS7/oK56PgQM7+Dw7buA2bClzfZf/RLkR+2W9v39f7Lv9R/+iM+MjyFDFPh69zx3qGDgJz5ofSOLNIJ5tUHJ/Z2gNj0RvZhMzJ1d3d7U25K4hhNuchBWw7ewQO16O/ALx8qpV6ul38Tyale5U2HT3oDy1k7pOOEvDjIi4m8qPhef/11e5o0V99QVNr2jVq2fPKCP3PmzIJf+DX6a8/SRmUM4QcffNCrOVIp7dk/7V9Y7Tnu9ZcP+0dx/HYnH8ZEtnz52l2+68PE9tXJli/X/tvf8UrI9pYP80LGH878MB/W62+xxxdtrlzXH3XUkR/1is1XTuwfOsXmc2H/cAntTydbvkKPL/KFlJQgaTvyJdUpp5xiv8STthrkX19oeyo1n7Rn2UcyH9///CZf1sWZrz+yz4aRyxd2vrAlcf9wiZ9P9kPpOPzMM8841emB7auTLV8x+6+81strvrz2Z6NtN9p8pZLnFfwc6fPfG3384x+3/8L/wx/+4F3Tw79eXh/kvrKM4PuhYCeRbO+H4v5+o7/3f3K2AXm+waxC+3zD+HxUTnHvv/nej8+ePdtOZ3s/7mr7c0lcx5dCubj+pD35nwMffvjhottdvs+JYaqU9if7o7w/D+6rsv5kPQp/uCk5o4N/1oXg9aKcx2dZpixbHiPIP3bJ88yXL6zvD7Ll60/meqPjQ8z8H7Ll3/z5ityOsz8kh3Rc+fZP2u30nv0fmNt+9JaZ/MlaM37MYFtXKOnsIp1eFi3v8GoOd3iYcEpxy0I05KAtB+/ggdonY7hJz3g5EAu5lHl/bLdp06bZF5Lly5fbeTktqYyxJ/9mlo4R8sFSTmM0f/58++IhRU7FJ3X8Q6M6SJupq6szkydPtpfygl5O/bVnaY/SS13aon/6XHmTIV+ESHuVNz6ltGeZLmd7jnr9IVx+u5N2VGq7y3c93JVv/831+itjEAs5xmTbzmG8/pZyfNHmKqY9c/yrbnHvH6hsxRxfZExa+fwj7Uhkvo7L56Kf/vSnR1zvf5FXikLzSXuWHNK+/ceX+wZP3RpnvlzKkcvH60flkS+zZbvKpbZ9wG3F7r+5fpgtR7uJ6vgix3f5HCn/ApXjo5Djpf9+Rjq2yeX3vve9I673/51/xhlnmBdeeMFs3LjRXi/Zg9/nZXs/JNPlfD+Ub/3l+j5Hnq+8ToT5fMP4fFTJNO/HXWx/rqP95adtd3y/1r/+2p+8fmYef2X93X///XbaJ+vVJ9speH05j8+y3XK9XvpDUuTKF9f3a8LPRccHoEyaPzXEdO/+wJ6t49jmF8zokceYJTeN8a4tnHR2+dfbG83cpW/3nv1DhkaRukI7wkhvKpclcYymXOSNbH//rJGDt4y9KgdyuY1cZo7FKmPsyYuBXC9jKsoYe/KFle+WW26xl9JDTsrRRx/dW+eiStu+UcvMt2LFCjtul5DLQno9auRqzzJG89e+9jXbTv3byJsYqReltGcRZnuOe/3lw/5RPGlf0o6kPckb5mLbXSHtMixsX51i99/+jlfyIUs+BMoHMTnOyG384veSD+P1t9jjSxi5cl1f7PqLGvuHTrH54t4/XEP708nMV8zxRdqNfP6RduS3yeDruHwuWrRokbn88st7r5f7yFizhQozn3wp+c///M/etfHn608YuXzlyBempO0frtmzZ4/9Mnv16tW2nUh78Yt8Ue1/yR0Xtq+Odv/t74dZaRdhtBttPg15nZHXGz+/HOfleC/HSiGX3/rWt/pcL+93gq9Pwe/zZs2adcRwH5nvh0SY74eKXX+5vs/xXyPCfL7az0flFvf+m+/9+I9+9CO7HuU2fvHfj7vY/lwT5/GlEK6tv8zPgfL9WrHtju/XDium/WW+HskQOLLeROY6lSKWLVtmOwPI620px4Nijs+5Xi8LyRfG9wfF7r+Zj2lSIxrTcZS4mMnrvKnyqZTHQOkWPv6HdPM/vJLeve99rwYAwvHJT34yvW5dz2uAXMo8Csf6A5LL9f2XfACqFcc/HfIBKBeOL5WN7Qv0j/aHOLne/io9H2d8AKpAd3e3N+WmJI7R5BLy6SQp35YtW0xHR0dvD0m57OzstPVxYf3psH/okE8nSflc33/JVzz2Dx3y6ZBPJ5iP41/xyKeTpP3DReTTSVI+ji/FY/vqsH11yKdD+9Mhn06S2l815Ku6jg8nHv9hs3Xbe95ceVTKYwAA3CKndWpubvbmehRyuif0YP0ByeX6/ks+ANWK458O+QCUC8eXysb2BfpH+0OcXG9/1ZCv6jo+nDuu1vzilzu8ufKolMdA6WZPrzdPfe8TZvDAo72aeNXW1npTbkraGE2uIZ9OkvIFx7fyybzUx4X1p8P+oUM+nSTlc33/JV/x2D90yKdDPp1gPo5/xSOfTpL2DxeRTydJ+Ti+FI/tq8P21SGfDu1Ph3w6SWp/VZEvNaIxHUeJy7//elf6pMs2pNu79ns14auUx0DlOLSrUyiUhJampqY+03v27PH27B4yH7wNpW9h/VEoyS2u77/ko1Ao1VpcP76QT1dcz0ehUPovru+/rudzvbi+/lzPR6nsQvujxFlcb3/Vli8lnRAOTUTuYFerNxW97z/8jrn3553mtitPNJ/99FAzaviHvWvCUymPgcrQ3t5uRo8e7c25h3w65NMhnw75dMinQz4d8umQT4d8OuTTIZ8O+XTIp0M+HfLpkE+HfDrk0yGfDvl0yKdDPp1qy1d1Q12If/jCiebHt37c/J+X/mTOnvWSVxuuSnkMAAAAAAAAAAAAAABcVpVnfAAAAAAAAAAAAAAAAJWhKs/4AAAAAAAAAAAAAAAAKgMdH4AqIGPkuIx8OuTTIZ8O+XTIp0M+HfLpkE+HfDrk0yGfDvl0yKdDPh3y6ZBPh3w65NMhnw75dMinQz6dastHxwcAAAAAAAAAAAAAAJBYqdSIxrQ3HamDXa3eFAAAAAAAAAAAAAAAQGk44wMAAAAAAAAAAAAAAEgsOj4AVYAxhnTIp0M+HfLpkE+HfDrk0yGfDvl0yKdDPh3y6ZBPh3w65NMhnw75dMinQz4d8umQT4d8OuTTCTsfHR8AAAAAAAAAAAAAAEBipVIjGtPedKQOdrV6UwAAAAAAAAAAAAAAAKXhjA8AAAAAAAAAAAAAACCx6PgAVAHGGNIhnw75dMinQz4d8umQT4d8OuTTIZ8O+XTIp0M+HfLpkE+HfDrk0yGfDvl0yKdDPh3y6ZBPJ+x8dHwAAAAAAAAAAAAAAACJlUqNaEx705E62NXqTQEAAAAAAAAAAAAAAJSGMz4AAAAAAAAAAAAAAIDEouMDUAUYY0iHfDrk0yGfDvl0yKdDPh3y6ZBPh3w65NMhnw75dMinQz4d8umQT4d8OuTTIZ8O+XTIp0M+nbDz0fEBAAAAAAAAAAAAAAAkVio1ojHtTUfqYFerNwUAAAAAAAAAAAAAAFAazvgAAAAAAAAAAAAAAAASi44PQBVgjCEd8umQT4d8OuTTIZ8O+XTIp0M+HfLpkE+HfDrk0yGfDvl0yKdDPh3y6ZBPh3w65NMhnw75dMLOR8cHAAAAAAAAAAAAAACQWKnUiMa0Nx2pg12t3hQAAAAAAAAAAAAAAEBpOOMDAAAAAAAAAAAAAABILDo+AFWAMYZ0yKdDPh3y6ZBPh3w65NMhnw75dMinQz4d8umQT4d8OuTTIZ8O+XTIp0M+HfLpkE+HfDrk0wk7Hx0fAAAAAAAAAAAAAABAYqVSIxrT3nSkDna1elMAAAAAAAAAAAAAAACl4YwPAAAAAAAAAAAAAAAgsej4AFQBxhjSIZ8O+XTIp0M+HfLpkE+HfDrk0yGfDvl0yKdDPh3y6ZBPh3w65NMhnw75dMinQz4d8umQTyfsfHR8AAAAAAAAAAAAAAAAiZVKjWhMe9OROtjV6k0BAAAAAAAAAAAAAACUhjM+AAAAAAAAAAAAAACAxKLjA1AFGGNIh3w65NMhnw75dMinQz4d8umQT4d8OuTTIZ8O+XTIp0M+HfLpkE+HfDrk0yGfDvl0yKdDPp2w89HxAQAAAAAAAAAAAAAAJFYqNaIx7U1H6mBXqzcFAAAAAAAAAAAAAABQGs74AAAAAAAAAAAAAAAAEouOD0AVYIwhHfLpkE+HfDrk0yGfDvl0yKdDPh3y6ZBPh3w65NMhnw75dMinQz4d8umQT4d8OuTTIZ8O+XTCzle1HR+e2dhtvvid18xJl2/wasJXKY8BAAAAAAAAAAAAAICrUqkRjWlvOlIHu1q9qeh9/+F3zL0/7zS3XXmi+eynh5pRwz/sXROeSnkMAAAAAAAAAAAAAABcVnUdH+QMCV+663XTcs84c9KIY7zacFXKYwAA3Ld3715z4YUXmrVr13o1AFB5mpqazFNPPWUGDRrk1QAAAAAAAADAYVU31MW/rOiyZ0goZ2eBSnkMVA7GGNIhnw75dPLlW7FihampqTHpdDqW8tZbb2Wtd6WQT1fIpyvk05VgPjnOyfHOJby+6ZBPh3w65NMhnw75dMinQz4d8umQT4d8OuTTIZ8O+XTIp1Nt+aqu48PzL3fbYSHKqVIeAwDgvpUrV5rm5mZvDgAqkxzn5HgHAAAAAAAAANlU3VAXqSktJr1mkjdXHpXyGAAA951wwgnm+eefN2PGjPFqAKDybNmyxZxzzjmmo6PDqwEAAAAAAACAw6rujA8AAFSKlpYWU1dXR6cHABVPjnP19fX2uAcAAAAAAAAAmej4AMRs5oIttuSyesMue5YPv8h8MRhjSId8OuTTyZVPxru/4IILvLl4sH11yKdDPp2k5ZPjnRz3XMH21SGfDvl0yKdDPh3y6ZBPh3w65NMhnw75dMinQz4d8umQT6fa8tHxAXDcS1v2mCvvfM2suut0O7yJXMq81AOobjLefdwdHwAgKs3Nzfa4BwAAAAAAAACZUqkRjWlvOlIHu1q9qWjJv+Xlx+NyqpTHQDT8sz0suSn7qeqzXZ/vPgAqn4x3f+6555o//OEPXg0AVL4TTjjBPP/88wzxAwAAAAAAAKAPzvgAhKBr5wFz2tUbe4eikGmp80lHBf+64y9ef8TZGrp3f2Au/Prvem/jd2zYs/8D0971F3Pa6EF23ve5ScNsvVwPoDpxtgcA1UiOe5z1AQAAAAAAAEAmOj4AStLBoenml03ThFp7Fg4pMn3NP71u/rjrgO3QIPzrlt12qvmbW17p0/nh4TXvmtnTT7DXdz5+llm7qdssWt5hdu87aNo69pvGk2q8Wx4m9XJ9IRhjSId8OuTT6S+fjHPvQscHtq8O+XTIp5PEfHLck+OfC9i+OuTTIZ8O+XTIp0M+HfLpkE+HfDrk0yGfDvl0yKdDPh3y6VRbPjo+AEqb3ujpwPDtq0bbSyFDUDz1vU+Yju3vmV273+9z3dQzjzOXnjfM3PeLTq/GmOsvqrP1YuSQAWbBrAaz5MkO8+6uw2eNAADfnj17OOMDgKrkn/FBjoMAAAAAAAAA4EulRjSmvelIHexq9aaiJcMIyL/qy6lSHgOFkTMzrN6w0zz6rUYzeODRXm2P1Rt2mWm3vuLN9SWdHaSDhAxrIUNZzJ5e711j7NkgLr9js7n30PWzFm6xHSH8jhFClnvT4jazdv4421ECQHV57LHHzAMPPODMv54BIErNzc3mmmuuMZdeeqlXAwAAAAAAAKDaccYHoIw2v73PjB1dY4evkI4qwSKdHvIZdMxRpqF+oF1OJqk/toZdGKhG8m9n+eEPAKqRHP/kOAgAAAAAAAAAPn41BZQaT6oxbR37ze59B72aw+S6bd3vm84d73k12b3avteb6tG544BJpYz5WP1AM3rkMUdc//OW7bY+8wwT/WGMIR3y6ZBPJ1s+l4a5YPvqkE+HfDpJzecPdxE3tq8O+XTIp0M+HfLpkE+HfDrk0yGfDvl0yKdDPh3y6ZBPh3w61ZaPjg+A0oRTBtvLR57dZi+FDEVx2tUbzakn1Zizxh5rbvvRW2bP/g/sdV07D9jrZIgM331Pdtr7CLlehrGYeVG9Hcbi+s/Wmcee2957vVzKvNQDqD4tLS2mrq7OjBmT/6wxAFCJ5Pgnx8F169Z5NQAAAAAAAACqXSo1ojHtTUfqYFerNxWt1JQWO8xAOVXKY6Bw0lmh6eaXTWt7z5AUMrzF2vnjbMcF6fBw2T9uNit+tdNeJxZ+tcHMnl5vp2cu2GK6d39guve833ub4PVCOjtMu/UVb86YVXedbqaeeZw3B6CafOMb37CX3/3ud+0lAFQjjoUAAAAAAAAAguj4UAZ0fAAAlMvEiRPNPffcYyZN4jUAQPWSs9/ccMMNZuPGjV4NAAAAAAAAgGrGUBdAFWCMIR3y6ZBPJ5hvy5YtpqOjw6lOD2xfHfLpkE8nyfnkONjZ2WmPi3Fh++qQT4d8OuTTIZ8O+XTIp0M+HfLpkE+HfDrk0yGfDvl0yKdTbfno+OAAGSbhtKs32uEM/Gk5o4NcyjwAAGLlypWmubnZmwOA6nbBBRfY4yIAAAAAAAAAMNRFGRT7GDMX9PxTbclNY8yi5R1myZMdZu38ceaRZ7eZV9v32vpMDHUBANVHOj1cc8015tJLL/VqAKB6PfbYY+aBBx4wK1as8GoAAAAAAAAAVCs6PpRBMY8hZ3Rouvlls2BWgzln3F+Zy/5xsxk98hjb2UHOAHHT4jbbCWLkkAHePXrQ8QHFSKVS3hSAJGtqajJPPfWUGTRokFcDANVr79695sILLzRr1671agAAAAAAAABUK4a6cMjufQdNW8d+c9poftBCuN566y2TTqedLeTTFfLpSpLyPfvss851emAMMx3y6ZBPJ+n55Hgox8XgMTPKwuubrpBPV8inK+TTFfLpCvl0hXy6Qj5dIZ+ukE9XyKcr5NMV8ukK+XSFfLpSbfno+BCzY2uOMg31A83mt/eZTW/sMdu63zfnjf+Ive7nLdtN04TaI872AAAAAAAAAAAAAAAAejDURRkU+xgvbdlj/uaWV8y27gPm+ovq7DAXMxdsMe1dfzGPfqvRDB54tHfLwxjqAgAAAAAAAAAAAAAAhrpwwimjBpqzxh5rFn61wXZ62LP/A9vpYeqZQ7J2egAAAAAAAAAAAAAAAD3o+OCAW+57017+ffMIeymdHR742sfNkic7zKLlHbYO0GCMcR3y6ZBPh3w65NMhnw75dMinQz4d8umQT4d8OuTTIZ8O+XTIp0M+HfLpkE+HfDrk0yGfDvl0ws5Hx4eYde08YNZu6jazp5/Q5+wOI4cMMAtmNZjVG3baM0AAAAAAAAAAAAAAAIAjpVIjGtPedKQOdrV6U9FKTWkx6TWTvLnyKOYxpOND080v204OU888zqvtsXrDLnPT4jazdv442xEiKIrnAQAAAAAAAAAAAACA6zjjQ8yOrTnKNNQPNJvf3ufVHCZ1cp3cBgAAAAAAAAAAAAAAHIlf1GMmw1vIMBdzl75tXtqyx6s1dlrqMofAAErBGEM65NMhnw75dMinQz4d8umQT4d8OuTTIZ8O+XTIp0M+HfLpkE+HfDrk0yGfDvl0yKdDPh3y6YSdj6EuyqCUx5BhLabd+oo312PVXacfMfyFj6EuUAw5cIwePdqbcw/5dMink/R8e/fuNRdeeKFZu3atVwMAAAAAAAAAAFBd6PhQBpXyGAAA9z322GPmgQceMCtWrPBqAAAAAAAAAAAAqgtDXQAAkGArV640zc3N3hwAAAAAAAAAAED1oeMDUAXkVPkuI58O+XSSnk86PlxwwQXeXPTYvjrk0yGfDvl0yKdDPh3y6ZBPh3w65NMhnw75dMinQz4d8umQT4d8OuTTIZ9OteWj4wMAAAnV0tJi6urqzJgxY7waAAAAAAAAAACA6pNKjWhMe9OROtjV6k1FKzWlxaTXTPLmyqNSHgPRmLlgi71cclP+Hy5f2rLHfOXQ7ZffcZoZOWSAVwugWn3jG9+wl9/97nftJQAAAAAAAAAAQDXijA9AQkinh7+55RWz48/vezUAql3cw1wAAAAAAAAAAAC4gI4PQAIsWt5hJnx5kzll1ECvpjiMMaRDPh3y6fSXb8uWLaazs9Occ845Xk082L465NMhnw75dMinQz4d8umQT4d8OuTTIZ8O+XTIp0M+HfLpkE+HfDrk0yGfTrXlo+MDEIKunQfMaVdvtEOQSJFpqfPJcBb+dcdfvN6evSGoe/cH5sKv/673Nv7wF0KW88iz75pNP5xgvn3VaK8WQLXjbA8AAAAAAAAAAAA9UqkRjWlvOlIHu1q9qWjJj8rpNZO8ufKolMdAYaRjQtPNL5umCbVmyU1jbJ10XGjv+ov58a0fN1+663UzeuQxvdet3rDLXHnna+bf7z7djB8z2N72vic7zaq7TjdTzzyud3kzL6o3s6fX2/v45L43LW4za+ePMyOHDPBqAVSj5uZmc80115hLL73UqwEAAAAAAAAAAKhOnPEBUNr0Rs/ZG4JnY5BODk997xOmY/t7Ztfu9/tcJ50bLj1vmLnvF51ejTHXX1Rn64V0aFgwq8EsebKjz1kjAMC3Z88ezvgAAAAAAAAAAADgoeMDoLT57X2moX6gObbmyN2pc8cB839f+bOpu2R97zAWUv7/9u4Gxq7yPPT9u0sAf7XGhIzHDji6HsJAkAX1lWkim1PHreR4UFDroPSmyjnlEB0pPiSukaJLAznl5Ca04SoSjgkxumopUnKDgoiLHDGOpdRxS0btiSULCwFDmrEKTpiZhgBO8QcQZp+8y2vMYI/HM3725+zfT1qatdYes/+ebWcp3s9eb77Dw0RXLZtX7p3QffH5qVrNv/6N8kyMNYZi9MXoi5msb3zoYf78+eWZ5vH6xuiL0RejL0ZfjL4YfTH6YvTF6IvRF6MvRl+Mvhh9Mfpi9MXoi9EX02l9Bh+gjvJQxJXL5qaR715XLE0ycRtf+gJgpvLgQ17qAgAAAAAAgJQqla7earnfUGOjg+VeY+VP2+c3netptjwH07N736tpy/0H0957VxTLVEyUH/vkX/0k/eCrV6dreib/ZPamrUPF14mDEGf6b071XEDnWLp0aXriiSdST48BKgAAAAAAAHd8gKBrLz8x0PCdH75UfM3ygMJVN+9PV1w2N1135YJ0x988n44cf6t4bPSVN4vHtu0YLo6zvPRF/jVZfjwPN2y6cYnhBuA0AwMDqbu729ADAAAAAABAyeADBOXhhHwHhu07h4s7ceRt/K4M/0f3hemRu3qL71vQ9y/FY90f+3Ex1LB545LifPaJde9J23a8eMbHo6wxFKMvRl/MqX39/f1pw4YN5VHzeX1j9MXoi9EXoy9GX4y+GH0x+mL0xeiL0RejL0ZfjL4YfTH6YvTF6IvptD6DD1ADefjh2YdWFsuP5C3vj9+tYf6c89Ljf/2Bk4/lbeJQQ17i4ttfuOId33OmoYf1qy56x38b6Dy7du1KfX195REAAAAAAACVSldvtdxvqLHRwXKvsfIn6vMby/U0W54DgNYyNDSU1qxZk4aH314qBwAAAAAAoNO540ObuvQ9F6Sfv/RGeQRAJ3C3BwAAAAAAgNMZfGhT169YmL73zy+XRzA1awzF6IvRFzOxr7+/P23YsKE8ag1e3xh9Mfpi9MXoi9EXoy9GX4y+GH0x+mL0xeiL0RejL0ZfjL4YfTH6Yjqtz+BDm/pU3+L0V9/6WTr076+XZ+DM3ve+96VKpdKym77Ypi+2tVPfsWPH3PEBAAAAAADgFJVKV2+13G+osdHBcq+xKusGUnXP6vKoPhrxHNlXHv5Z+sZjI+mOT16aPvqhi9N7L7mgfAQAAAAAAAAAOoM7PrSxv/jEpenvbn9/+qcDv0ofvPVAeRYAAAAAAAAAOofBhzb3BysXpm9/4Yp06DuryjNwOmsMxeiL0RejL0ZfjL4YfTH6YvTF6IvRF6MvRl+Mvhh9Mfpi9MXoi9EXoy9GX4y+GH0xte4z+AAAAAAAAAAAtK1Kpau3Wu431NjoYLnXWJV1A6m6Z3V5VB+NeA4AAAAAAAAAwB0fAAAAAAAAAIA2ZvABOoA1hmL0xeiL0RejL0ZfjL4YfTH6YvTF6IvRF6MvRl+Mvhh9Mfpi9MXoi9EXoy9GX4y+mFr3GXxoc/+w/3D60y//JF32J/vKMwAAAAAAAADQOSqVrt5qud9QY6OD5V5jVdYNpOqe1eVRfTTiObKvPPyz9I3HRtIdn7w0ffRDF6f3XnJB+QgAAAAAAAAAdAZ3fGhT+U4Peehh4L4V6dMf7Tb0AAAAADTd0aNH04c//OFUqVRsbb7l1zG/ngCN4PoxezbXDwCaxeBDm/rb/tHiTg+XdV1YnoEzs8ZQjL4YfTH6YvTF6IvRF6MvRl+Mvhh9Me3e19/fn+bOnZuq1WpTtueff37S862ytVNffh3z69lK/P2N0RejL+Zsfa4fU2+uHzH+/sboi9EXoy+m0/oMPrSpJ546XCxvAQAAANAqdu3alfr6+soj2ll+HfPrCdAIrh+zh+sHAM1SqXT1Vsv9hhobHSz3GquybiBV96wuj+pjtjwHAAAAwEwsXbo0PfHEE6mnp6c8Q7saGhpKa9asScPDw+UZgPpx/Zg9XD8AaBZ3fAAAAAAgbGBgIHV3d3vTapbIr+OSJUuK1xWgnlw/ZhfXDwCaxeADtJjRV95MV928P+3e92p5Js4aQzH6YvTF6IvRF6MvRl+Mvhh9Mfpi9MW0c19ez3vDhg3lUXN4fWNO7cuvZyut0+71jdEXoy9mqj7Xj7Nrtz7Xj5nRF6MvRl+Mvpha9xl8AAAAACAsr+fd7DeuqC3rtAON4Pox+7h+ANAMlUpXb7Xcb6ix0cFyr7Eq6wZSdc/q8qg+Zstz0Bz5jg9rb3sqbb11eVq/6qLyLAAAALSuvJ739ddfn1588cXyDLOFdfeBenL9mL1cPwBoNHd8gCYZX9IiD7HkLe/nc5PJy16Mf1/etu0YLh8BAACA5vNp3dkrv64+tQvUi+vH7OX6AUCjGXyAJhi/q8PaaxcWd+7IW96/5f/913T09bfK7zohDzlsuf9gGvnudcX35a/bdw7PaPjBGkMx+mL0xeiL0RejL0ZfjL4YfTH6YvTFtGtfK6zPnnl9Yybry69rq6zT7vWN0RejL+ZMfa4f09OOfa4f06cvRl+Mvhh9MbXuM/gATfDkT48UX//nny0rvmbbt/Skx//6A2neheeVZ1I6cvyttHvfK8WyF4sXnV+cy1/zcR5+ONMdIgAAAKBRjhw54hO7s1h+XfPrm19ngFpy/ZjdXD8AaLRKpau3Wu431NjoYLnXWHmZgPyp+Xqa6XMcGDqS/vBzT6eXDp/+JvaVy+amvfeuOPmm97hG/D6on3y3hjzQ8MhdvWn+nLcHHbLxu0Hk4YZrL59f7A++cKx89G1n+rMBAAAAjfToo4+mBx98sGU+1Unt9fX1pVtuuSXddNNN5RmAONeP2c/1A4BGcseHJsuf6L/jb55PN/3+u4tBhlO3Zx9a6Y3tDjby8hvppcO/Tt+/52p/NgAAAGhJ+dOc+Y0NZq/8+ubXGaCWXD9mP9cPABrJ4EOTvXZsLB0cPp7+aPW7yzN0gt7L5have379p9J98QXpkoXvSs8dOv2ODzNhjaEYfTH6YvTF6IvRF6MvRl+Mvhh9Mfpi2rEvv6HRKrcp9/rGnKlv/Hblzeb1jdEXoy9msj7Xj+lr1z7Xj+nRF6MvRl+Mvpha9xl8aLIFc38rLV8ypzyiU+QlLLLv/PCl4mu2e9+r6aqb96dfvPr2kif5jg6bblySvvTNQ8WSKOM2bR1KN3z+meKOIQAAANAsAwMDqbu7O/X09JRnmI3y65tf5x/96EflGYAY14/O4PoBQCNVKl291XK/ocZGB8u9xqqsGyiWCainmT5HfsN7y/0H0957V0x76YJG/D6or9FX3kxrb3sqDb5w4m4OVy6bW/wZyPL5rbcuT+tXXVQcb9sxnP786weL/azv9xalR+7qTfPnnFeeAQAAgMa78847i69333138ZXZy2sN1JL/TekcXmsAGsXgQx2c7TlOfcN7KuNvhp86EGHwAQAAAGi2lStXpvvuuy+tXu3fKGa7/Onsz372s2n//v3lGYBz5/rROVw/AGgUS100QR5iePahlcXgQt5e6/9g8Qn+r31m+WnH+fumexcIOBNrDMXoi9EXoy9GX4y+GH0x+mL0xeiL0RfTTn1DQ0NpeHi4pd608vrGTNWXX+eRkZHidW8Wr2+Mvhh9MRP7XD9mrp37XD/OTl+Mvhh9Mfpiat1n8KEFfO6Bfyu+fqqvq/ialy948P9+f9q+c7hY4gAAAACg1ezatSv19fWVR3SCDRs2FK87QITrR+dx/QCgESx1UQczeY7xZS+23ro8rV91UXn2hN37Xk3bdryYHrmrtxiGmMhSFwAAAEAz5TetbrnllnTTTTeVZ5jtHn300fTggw+m/v7+8gzAzLl+dB7XDwAaweBDHdRy8GHL/QfT3ntXnLbchcEHZqJSqZR7AAAAUBtr165Njz/+eJo3b155htnu6NGj6YYbbkh79+4tzwDMnOtH53H9AKARLHXRZAvm/lZavmROeu7QsfLM2/K5/Fj+Hoh4/vnnU7VabdlNX2zTF9v0xTZ9sU1fbNMX2/TFNn2xTV9s0xfb9MW2iX0//OEPW+5NK2vsxpytL7/e+XWf+GeikZu/v7FNX2zTF9sm9rl+zJzrR2zz9ze26Ytt+mKbvtjWaX3eUW+yvITF5o1L05e+eSgdGDpSnk3Ffj6XHzt1mQsAAAAAAAAA4ARLXdTBuTxHXtbiI7c/XR6d8P17rj5t+YtxlroAAAAAAAAAAEtdtIw84JAHGSZuZxp6AAAAAAAAAABOMPjQZKOvvJmuunl/cceHU+Vz+bH8PRBhjboYfTH6YvTF6IvRF6MvRl+Mvhh9Mfpi9MXoi9EXoy9GX4y+GH0x+mL0xeiL0RejL6bWfQYfAAAAAAAAAIC2Val09VbL/YYaGx0s9xqrsm6gWEainqbzHNt2DKc///rB8ujMPn1jd9q+pac8elsjfh8AAAAAAAAA0OoMPtTBTJ4jL2Ox9ran0tZbl6f1qy4qz56dwQcAAAAAAAAAsNRF0y1edH569qGVMxp6gJmyxlCMvhh9Mfpi9MXoi9EXoy9GX4y+GH0x+mL0xeiL0RejL0ZfjL4YfTH6YvTF6IvRF1PrPoMPU8h3Y7jq5v1p975XyzNvy+fyY/l7og4MHUnv+eMfF3dxOHWr1XMAAAAAAAAA0BhHjx5NH/7wh1OlUmnK9r73vW/S862y1b7PUhdnNNUyFHnwYcv9B9Pee1cUd22YaCbPceT4W+njX3zuN//9RelTfV3F/uaNS9O1l8+fcgmMmTwHAAAAAAAAAI3z6KOPpgcffDD19/eXZ6gnd3yYxLYdw8VgQffHfpwGXziWPnL708XxxC2fW3vtwtOGHmbqtWNj6eDw8dR72dw0f855adniC9Nzh44V/9089LBtx4vFcAQAAAAAAAAA7WHXrl2pr6+vPKLeDD5MYvPGJcXdFEa+e126ctnc9P17ri6OT922b+kpf0XtXLVsXnr2haPlUSqGIvJwBERYYyhGX4y+GH0x+mL0xeiL0RejL0ZfjL4YfTH6YvTF6IvRF6MvRl+Mvhh9Mfpi9MWcrS8PPmzYsKE8arxOe30NPkwh33Xh2YdWTrrURK3k58h3jnhs4JfFcb7zw94nDxfLbOQ7PyxfMictmOtlAgAAAAAAAGgHAwMDqbu7O/X01P6D9EyuUunqrZb7DTU2OljuNVZepiLfrWE68vDB2tueKpa7mEy+G8Tee1ecttzFTJ4jy0tZfPyLz6X1qxYVd5vYtHUoPbBzJF2y8Pz0g69ena7pmV9+59tm+hy0j/E/d3mpk3oO3QAAAAAAAAC1d+eddxZf77777uIr9Wfw4RzkN6Y3/uWz6Rtbepo2lGDwYfYy+AAAAAAAAADta+XKlWnbtm1pzZo15RnqzRoK5yDf4eEv/8uydMffPF/crQFanTWaYvTF6IvRF6MvRl+Mvhh9Mfpi9MXoi9EXoy9GX4y+GH0x+mL0xeiL0RejL0ZfzJn6hoaG0sjISNOHHjrt9TX4EHBw+Hh67dhYeQTTd2DoSHrPH/+4uHPH+JaXODmT3ftefcf3btsxXD4CAAAAAAAAtIpdu3alDRs2lEc0iqUuzlF+k/qF0dfTI3f1pvlzzivPnnC25xhfymDwhWPlmTO7ctnctPfeFcVdJiaq1e+DxptsKYs82PCR259O37/n6nTt5fPf8Xgecti+c/jkn4PxX7/pxiVp88Ylxa8HAAAAAAAAmq+vry/dcsst6aabbirP0AgGH6Yw1YDCJQvPTz/46tXpmp755Zm3NWIoweDD7DJxGGLi4MOaFb+dPv7F59LmjUtPDklkeVBiy/0HJx2KAQAAAAAAABrvyJEjacGCBem1115L8+ef/j4y9WOpiynkN5SffWhlMWBw6vaLv79u0qEHmK4jx99KN3z+mWKIpftjP550wCYvpZKXVMl3g8jfN77l45mwRlOMvhh9Mfpi9MXoi9EXoy9GX4y+GH0x+mL0xeiL0RejL0ZfjL4YfTH6YvTF6IuZrG98mYtWGHrotNfX4AM0WL67w1U3708L+v4lLVt8YTFIM/Ld64plTU418vIb6aXDvy6WwDh1+CYP5bjbAwAAAAAAALSGPPiQl7qg8Sx1MQ3bdgynP//6wfLohK99ZnnavHFJefRO5/IcM9WI56A+Jlum4sDQkfSHn3s6feuOK96x1MX4/qYbl5zxzxsAAAAAAADQfEuXLk1PPPFE6unpKc/QKO74cBZ56GH7zuHiE/njn7TP+/lcfgzORb6LQ76bQ5bvAPF/fem535x7szieKA9G5KGHL33zUDEcMW7T1qFimYy8XAYAAAAAAADQXAMDA6m7u9vQQ5MYfJhCfkM6DzjkT95PXFIg7+dz+bH8PTAT61ddlP7Hf74sXfvfnizu3NH9sR+nL9/yvtT3e4vSYwO/LL/rbflODxO/P28vjL6eHrmrN82fc175XVOzRlOMvhh9Mfpi9MXoi9EXoy9GX4y+GH0x+mL0xeiL0RejL0ZfjL4YfTH6YvTF6Is5ta+/vz9t2LChPGq+Tnt9DT5AE+RhhvE7iOTtY//p3enxv/5A2r6lpxisefahlcWAxLhTvz9/73SHHgAAAAAAAID62rVrV+rr6yuPaLRKpau3Wu431NjoYLnXWPnT8vmN4+kaX+pi770rTt71Id/lYe1tTxVLEOQ3pE810+c4F414DgAAAAAAAACmNjQ0lNasWZOGh4fLMzSaOz6cRR5syAMOeTmC8WUG8v6Zhh4a5dL3XJB+/tIb5REAAAAAAAAAzeBuD81n8GEaTl1mIG/NHHrIrl+xMH3vn18uj2Bq1miK0RejL0ZfjL4YfTH6YvTF6IvRF6MvRl+Mvhh9Mfpi9MXoi9EXoy9GX4y+GH0xE/v6+/vThg0byqPW0Gmvr6Uu6qARz/EP+w+n/3rPv6aB+1aky7ouLM/C5CqVSrkHAAAAAAAA1NLatWvT448/nubNm1eeab48WLBs2bLyqPXUus/gQx004jmyrzz8s/SNx0bSHZ+8NH30Qxen915yQfkIAAAAAAAAAHQGS120sb/4xKXp725/f/qnA79KH7z1QHkWAAAAAAAAADqHwYc29wcrF6Zvf+GKdOg7q8ozcLpOW8On1vTF6IvRF6MvRl+Mvhh9Mfpi9MXoi9EXoy9GX4y+GH0x+mL0xeiL0RejL0ZfjL6YWvcZfAAAAAAAAAAA2lal0tVbLfcbamx0sNxrrMq6gVTds7o8qo9GPAcAAAAAAAAA4I4PAAAAAAAAAEAbM/gAHcAaQzH6YvTF6IvRF6MvRl+Mvhh9Mfpi9MXoi9EXoy9GX4y+GH0x+mL0xeiL0RejL0ZfTK37DD60uX/Yfzj96Zd/ki77k33lGQAAAAAAAADoHJVKV2+13G+osdHBcq+xKusGUnXP6vKoPhrxHNlXHv5Z+sZjI+mOT16aPvqhi9N7L7mgfAQAAAAAAAAAOoPBhzpoxHPkOz3813v+NQ3ctyJd1nVheRYmV6lUyj0AAACojbVr16bHH388zZs3rzxD1NGjR9MNN9yQ9u7dW54BmH1cP2rP9QOg+Vzfam+m1zdLXbSpv+0fLe70YOiB6Xj++edTtVpt2U1fbNMX2/TFNn2xTV9s0xfb9MU2fbFNX2zTF9v0xbaJfXPnzk39/f3l//NsDe2+hm3+eeaf68SfeSM3fz9im77Ypi+2tVOf68fMuX7ENn2xTV9s0xfb2qnP9W3man19M/jQpp546nCxvAUAAABAM/T19aVdu3aVR9RC/nnmnyvAbOb6UXuuHwDN5/pWezO9vlnqog5my3MAAAAAnMnQ0FBas2ZNGh4eLs8QtXTp0vTEE0+knp6e8gzA7OP6UXuuHwDN5/pWezO9vrnjAwAAAAAzlv/xacmSJWlgYKA8Q0T+OXZ3d3vTCpj1XD9qy/UDoDW4vtXWuVzfDD5Ai9u0dajYItp9DZ9m0xejL0ZfjL4YfTH6YvTF6IvRF6Mvpt36NmzY0FLr2Lbz65t/jvnn2Uz+fsToi9EX0259rh8zM1Wf68fZ6YvRF6Mvpt36XN9mZqq+c7m+GXwAAAAA4JxYx7Z28s+x2W9cATSK60ftuH4AtA7Xt9o5l+tbpdLVWy33G2psdLDca6zKuoFU3bO6PKqP2fIctIbxuz1s3+JWZQAAALQe64rH5fWAr7/++vTiiy+WZwBmP9ePONcPgNbj+hZ3rtc3d3yAGtu979V01c370+grb5ZnTl+u4sDQkXTln+0vvmb51+RhlvFt247h4vy4w6+9lW74/DMnH48ufQEAAAC1kj+F41NNMT6tC3Qi14841w+A1uP6Fneu1zeDD1Bj114+v/j65E9PDDXkAYi9Tx5OL4y+no4cf6s4948HfpV6ls5Jl793TjHksOX+g2nku9cVd/HIX7fvHH7H8MPDe36RNm9cevLx/N87dThiKtZoitEXoy9GX4y+GH0x+mL0xeiL0RejL6Yd+/I/SLXKOrbt+vq2wvrsmb8fMfpi9MW0Y5/rx/Sdqc/1Y3r0xeiL0RfTjn2ub9N3pr5zvb4ZfGgR+U3s8U/z50//5+P8Cf/xN8ppH4sXnZ/WXrswPTbwy+I4D0D87uUL0sL570o//fnx4jXdve+VtH7VouLxvL/11uXFr8vy13ychx/G7xrx6Ru7f/P9FxX7kz0OAAAAzZL/QSp/IufIkRMfAGBm8s/NJ3aBTuT6EeP6AdCaXN9iItc3gw8tIC9bkN/8Hvr//8905bK5xblP9XUVXz/3wL8VX2kvf7T63Sfv8PDcoWPpgx/47bRwwXnFnR5eOzaWXn3t1+n3r/mdYv/g8PH0kdufPjn4krd8PNFVy+aVeyd0X3x+qlZTGnn5jfLM1JYtW1butSZ9Mfpi9MXoi9EXoy9GX4y+GH0x+mL0xUzWN3/+/JP/uNds7fjzG/9HvfxzbDZ/P2L0xeiLacc+14/pm6zP9WP69MXoi9EX0459rm/TN1lf5Ppm8KHJxpdByMsYzJ9zXnn2N38pfrOfz+XHfKq//eTBhKEXj6cDQ0fTvzzzH8WQQx6GePaFo8UdIC5a8K5imYs8uPDS4V+n799zdbGMxcTt2YdWnrwLBAAAALSyvr6+lviHvXaUf2755wfQiVw/zp3rB0Drcn07d5Hrm8EHqIM81NCzdE76+t8Pnzy+9vL5xV0gtu14MS1bfGEx3NJ98QXpkoXvKu4KMZU8MDHRyMtvpkolD1hcUJ6ZmjWaYvTF6IvRF6MvRl+Mvhh9Mfpi9MXoi2nXvlb5RFM7/vzyzy3//FqBvx8x+mL0xbRrn+vH9EzW5/oxffpi9MXoi2nXPte36ZmsL3J9M/jQZPkT/ZtuXFK8GZ6XRRiX7/Kw5f6DxWM+9d9+8lDD+lWL0sN7flEscZGPF8w98det/3+9Utz9IRt//b/0zUPpwNDba/3k5U9u+PwzJ/9MPLBzJO3e92qx788GAAAAraanpyd1d3enH/3oR+UZpmNgYKD4ueWfH0Ancv04N64fAK3N9e3cRK9vlUpXb7Xcb6ix0cFyr7Eq6waKZQTq6VyeI7+p/ZHbny6PTvjaZ5anzRuXlEfv1IjfBzF5kOEPP/d0+tYdV6T1qy4qzm3bMZy27xxOe+9d8Y6hhXz+z79+sDxKqe/3FqVH7uotBibyEMTh195Kh4/8uhiayKb6swEAAADNcOeddxZf77777uIrZ+dnBuB/C8+FnxlA6/O/1TMX/ZkZfKiD2fIcAAAAANOVP53z2c9+Nu3fv788w9msXLky3XfffWn1av/GA3Qu14+Zc/0AaH2ubzMXvb5Z6gI6gDWaYvTF6IvRF6MvRl+Mvhh9Mfpi9MXoi2nnvvyPUyMjI2loaKg803jt9PPLP6fh4eGWetPK348YfTH6Ytq5z/Xj7Cb2uX7MnL4YfTH6Ytq5z/Xt7Cb21eL6ZvChyUZfeTNddfP+4g4OU215uQMAAACAVrZhw4a0a9eu8oip5J9TX19feQTQ2Vw/ps/1A6B9uL5NXy2ub5a6qIOZPse2HcNp+87htPfeFWnxovOLc3kgYu1tT6VNNy5Jn+rrSh//4nNp2eIL0/YtPcXjjfh9AAAAAMzEo48+mh588MHU399fnuFM8j/q3XLLLemmm24qzwB0LteP6XP9AGgfrm/TV4vrmzs+NFkecMhDD1tvXX5y6CHL+/lcfuy1Y2Np88alae+Th4vvBwAAAGhF+R+rjh07liqViu0sW/45RT/RBDBbuH5Mf3P9AGgfrm/T32pxfTP4AB3AGk0x+mL0xeiL0RejL0ZfjL4YfTH6YvTFtHvfvHnz0g9/+MNUrVabsj3//POTnm+VbWJf/jnln1cr8fcjRl+Mvph273P9mHpz/YjRF6MvRl9Mu/e5vk291fr6ZvChyfKdHfJyFlvuP/iOuznk/XwuP5a/57lDx9LyJXPSgrleMgAAAAAAAAAYV6l09VbL/YYaGx0s9xqrsm4gVfesLo/q41yeY/e+V9NHbn+6PDrh+/dcndavuiht2zGcvvTNQ+kHX706XdMzv3isEb8PAAAAAAAAAGh1Bh/qYLY8BwAAAAAAAAC0OusmQAewRlOMvhh9Mfpi9MXoi9EXoy9GX4y+GH0x+mL0xeiL0RejL0ZfjL4YfTH6YvTF6IvRF1PrPoMPTTD6ypvpqpv3F3dtONuWvy9/PwAAAAAAAABwOktd1MFMn2PbjuG0fedw2nvvirR40fnFuTzssPa2p9LWW5en9asuKs5N1IjfBwAAAAAAAAC0Ond8aLI84JCHHvKAw/jQQ5b387kt9x90xwcAAAAAAAAAOAODD9ABrDEUoy9GX4y+GH0x+mL0xeiL0RejL0ZfjL4YfTH6YvTF6IvRF6MvRl+Mvhh9Mfpi9MXUus9SF3VQy6UuNt24JG3euKQ4N5GlLpiJSqVS7gEAAAAAAADMLgYf6uBcnmP3vlfTR25/ujw64fv3XJ3Wr7qoPHongw8AAAAAAAAAYKmLlpEHHPIgw8TtTEMPAAAAAAAAAMAJBh+gA1hjKEZfjL4YfTH6YvTF6IvRF6MvRl+Mvhh9Mfpi9MXoi9EXoy9GX4y+GH0x+mL0xeiLqXWfwYcWsW3HcLF8Rd7yshf5+IbPP5OOHH+r/A4AAAAAAAAA4FSVSldvtdxvqLHRwXKvsfJgQV5Gop5m+hybtg6lF0ZfT/dtXl4MO2y9dXlas+K308e/+FxatvjCtH1LT/mdb2vE74PWkP98ZJP9OQAAAAAAAADodO740GSjr7yZ9j55OG3euDTNn3NeeTYV+/lcfix/DwAAAAAAAABwOoMP0AGsMRSjL0ZfjL4YfTH6YvTF6IvRF6MvRl+Mvhh9Mfpi9MXoi9EXoy9GX4y+GH0x+mL0xdS6z+BDky1edH7adOOStG3Hi+nI8bfKsyfuBLHl/oPFY/l7mB3yshW3/3//lq66eX+xXMnufa8W5/PXfDy+bdsxXJwfd/i1t4plUMYfH1/+AgAAAAAAAKDTVSpdvdVyv6HGRgfLvcbKbxpX96wuj+rjXJ4jv/H9kdufLo9O+NpnlqfNG5eUR+/UiN8HtZcHFh79x1+mH3z16nRNz/ziXB5y2L5zOO29d0Ux5JKHXtbe9lQx9JJf//xrHtg5kr5/z9Vp/aqLTnscAAAAAAAAoJO540OLyG9o50GGiZs3tWen665ckC5/75xiP9/lY/e+V9LWW5efvLNH/pqP8zBEHnLIPn1jd/FnJJvscQAAAAAAAIBOZfABGmzZ4gvT/DnnFfuvHRtLB4ePF3f7GF/GIm+n3v3jqmXzyr0Tui8+P1WrKY28/EZ5ZmrWGIrRF6MvRl+Mvhh9Mfpi9MXoi9EXoy9GX4y+GH0x+mL0xeiL0RejL0ZfjL4YfTH6YmrdZ/ABmigPLrx0+NfFMhan3vHj2YdWnrwLBAAAAAAAAACTq1S6eqvlfkONjQ6We42VP02f31Sup9nyHNTepq1DxdftW3qKr3mpirW3PZU23bjkjEubnPprst37Xk1b7j+Y9t67wnAEAAAAAAAA0NHc8QGaKA8t5KGHL33zUDowdKQ8e2LY4YbPP5OOHH+rOH5g50gx7JDlYYk89JB/naEHAAAAAAAAoNMZfIAmy3d6+B//+bJ07X97sriTR95eGH09PXJXb5o/57ziez6x7j1p244Xi8e6P/bjKe8QMRlrDMXoi9EXoy9GX4y+GH0x+mL0xeiL0RejL0ZfjL4YfTH6YvTF6IvRF6MvRl+Mvhh9MbXuM/gADZSXq5i4ZMW4PMSQly4Z3x7/6w+cHHrI3//tL1xRnBt/fCZDDwAAAAAAAACzWaXS1Vst9xtqbHSw3Gus/In5/MZxPc2W5wAAAAAAAACAVueOD23q0vdckH7+0hvlEQAAAAAAAAB0JoMPber6FQvT9/755fIIpmaNoRh9Mfpi9MXoi9EXoy9GX4y+GH0x+mL0xeiL0RejL0ZfjL4YfTH6YvTF6IvRF6MvptZ9Bh/a1Kf6Fqe/+tbP0qF/f708AwAAAAAAAACdp1Lp6q2W+w01NjpY7jVWZd1Aqu5ZXR7VRyOeI/vKwz9L33hsJN3xyUvTRz90cXrvJReUjwAAAAAAAABAZ3DHhzb2F5+4NP3d7e9P/3TgV+mDtx4ozwIAAAAAAABA5zD40Ob+YOXC9O0vXJEOfWdVeQZOZ42hGH0x+mL0xeiL0RejL0ZfjL4YfTH6YvTF6IvRF6MvRl+Mvhh9Mfpi9MXoi9EXoy+m1n0GHwAAAAAAAACAtlWpdPVWy/2GGhsdLPcaq7JuIFX3rC6P6qMRzwEAAAAAAAAAuOMDAAAAAAAAANDGDD5AB7DGUIy+GH0x+mL0xeiL0RejL0ZfjL4YfTH6YvTF6IvRF6MvRl+Mvhh9Mfpi9MXoi9EXU+s+gw8AAAAAAAAAQNuqVLp6q+V+Q42NDpZ7jVVZN5Cqe1aXR/XRiOcAAAAAAAAAAAw+1IXBB1pNpVIp9wAAAAAAAABmF4MPdWDwgVaT18hZtmxZedR69MXoi9EXoy9GX4y+GH0x+mL0xeiL0RejL0ZfjL4YfTH6YvTF6IvRF6MvRl+MvphO6/ut8isAAAAAAAAAQNtxx4c6cMcHAAAAAAAAAGgMd3wAAAAAAAAAANqWwQdocZu2DhVbRF4jp5Xpi9EXoy9GX4y+GH0x+mL0xeiL0RejL0ZfjL4YfTH6YvTF6IvRF6MvRl+Mvhh9MZ3WZ/ABAAAAAAAAAGhblUpXb7Xcb6ix0cFyr7Eq6wZSdc/q8qg+GvEcdI7xuz1s39JTfAUAAAAAAADgbe74ADW2e9+r6aqb96fRV94sz5y+XMWBoSPpyj/bX3zN5//0yz9JN3z+mWJoJm+nLm1x+LW3pnwcAAAAAAAAoFMZfIAau/by+cXXJ396pPiaByD2Pnk4vTD6ejpy/K3i3D8e+FXqWTonXf7eOcXxw3t+kdavWlTcKWTku9cV379tx3DxWJYf37xx6RkfPxtrDMXoi9EXoy9GX4y+GH0x+mL0xeiL0RejL0ZfjL4YfTH6YvTF6IvRF6MvRl+Mvhh9MbXuM/gANbZ40flp7bUL02MDvyyO8wDE716+IC2c/670058fL4Yfdu97pRh0mD/nvOJ7+n5vUfpUX1exn3/91luXp+07h0/eNeLTN3b/5vsvKvYnexwAAAAAAACgU1UqXb3Vcr+hxkYHy73GyssE5E/N11MjnoPWlpe72LbjxfTIXb3pb/v/vTj37AtH01XL5qU/+fAlaeNfPpu+saUnXdMz/+SyFdt/czwuL4HxJ//Pc+k7f9mbHvjeSPHrNm9cUj76zsfzfwMAAAAAAACgU7njA9RB98Xnp6EXj6cDQ0fTvzzzH+n3r/md9Eer310MP+Q7QFy04F0nl7kAAAAAAAAA4NwZfIA6yEMNPUvnpK///fDJ42svn59eGH29uBPEssUXnlzmIsvn8xIY40ZefjNVKnmA4oLiOA9MTHTq42djjaEYfTH6YvTF6IvRF6MvRl+Mvhh9Mfpi9MXoi9EXoy9GX4y+GH0x+mL0xeiL0RejL6bWfQYfoA7yUMP6VYvSw3t+kRYuOK84XjD3xF+3/v/1SnH3h4nyufElMUZfeTNtuf9g2nTjkrR40fnFuQd2jhTLZ2STPQ4AAAAAAADQqSqVrt5qud9QY6OD5V5jVdYNpOqe1eVRfTTiOWh9B4aOpD/83NPpW3dckdavuqg4t23HcNq+czjtvXfFyaGFTVuH0uHX3kqHj/y6GIDIvvaZ5WnzxiXF/tkeBwAAAAAAAOhkBh/qwOADM5EHG7LtW3qKrwAAAAAAAABMn6UuoANYYyhGX4y+GH0x+mL0xeiL0RejL0ZfjL4YfTH6YvTF6IvRF6MvRl+Mvhh9Mfpi9MXoi6l1n8GHOrj0PRekn7/0RnkEAAAAAAAAANSLpS7q4E+//JP0n675nfTpj3aXZwAAAAAAAACAenDHhzr4VN/i9Fff+lk69O+vl2cAAAAAAAAAgHow+FAHf7ByYfrvf9SdVn/2qfTA90Yse0HTWWMoRl+Mvhh9Mfpi9MXoi9EXoy9GX4y+GH0x+mL0xeiL0RejL0ZfjL4YfTH6YvTF6IupdZ/Bhzr5i09cmv7u9venfzrwq/TBWw+UZwEAAAAAAACAWqpUunqr5X5DjY0OlnuNVVk3kKp7VpdHAAAAAAAAAEA7c8cHAAAAAAAAAKBtGXyADmCNoRh9Mfpi9MXoi9EXoy9GX4y+GH0x+mL0xeiL0RejL0ZfjL4YfTH6YvTF6IvRF6MvptZ9Bh8AAAAAAAAAgLZVqXT1Vsv9hhobHSz3GquybiBV96wujwAAAAAAAACAduaODwAAAAAAAABA2zL4AB3AGkMx+mL0xeiL0RejL0ZfjL4YfTH6YvTF6IvRF6MvRl+Mvhh9Mfpi9MXoi9EXoy9GX0yt+ww+AAAAAAAAAABtq1Lp6q2W+w01NjpY7jVWZd1Aqu5ZXR4BAAAAAAAAAO3MHR8AAAAAAAAAgLZl8AE6gDWGYvTF6IvRF6MvRl+Mvhh9Mfpi9MXoi9EXoy9GX4y+GH0x+mL0xeiL0RejL0ZfjL6YWvcZfAAAAAAAAAAA2lal0tVbLfcbamx0sNxrrMq6gVTds7o8AgAAAAAAAADamTs+AAAAAAAAAABty+ADdABrDMXoi9EXoy9GX4y+GH0x+mL0xeiL0RejL0ZfjL4YfTH6YvTF6IvRF6MvRl+Mvhh9MbXuM/gAAAAAAAAAALStSqWrt1ruN9TY6GC511iVdQOpumd1eQQAAAAAAAAAtK+U/jenJEXNDZIWAQAAAABJRU5ErkJggg==;" parent="1" vertex="1">
                    <mxGeometry x="80" y="121" width="2110" height="928" as="geometry"/>
                </mxCell>
                <mxCell id="4" value="" style="shape=curlyBracket;whiteSpace=wrap;html=1;rounded=1;flipH=1;labelPosition=right;verticalLabelPosition=middle;align=left;verticalAlign=middle;fillColor=#008a00;fontColor=#ffffff;strokeColor=#005700;strokeWidth=5;size=0.5;" parent="1" vertex="1">
                    <mxGeometry x="580" y="120" width="70" height="240" as="geometry"/>
                </mxCell>
                <mxCell id="5" value="NAND IC / PIOとのやりとりをデータ出力 / Verify" style="rounded=0;whiteSpace=wrap;html=1;strokeWidth=5;fillColor=#008a00;fontColor=#ffffff;strokeColor=#005700;fontSize=54;fontStyle=1" parent="1" vertex="1">
                    <mxGeometry x="670" y="180" width="1360" height="120" as="geometry"/>
                </mxCell>
                <mxCell id="6" value="" style="shape=curlyBracket;whiteSpace=wrap;html=1;rounded=1;flipH=1;labelPosition=right;verticalLabelPosition=middle;align=left;verticalAlign=middle;fillColor=#1ba1e2;fontColor=#ffffff;strokeColor=#006EAF;strokeWidth=5;size=0.5;" parent="1" vertex="1">
                    <mxGeometry x="1220" y="440" width="70" height="140" as="geometry"/>
                </mxCell>
                <mxCell id="7" value="FIFO Status" style="rounded=0;whiteSpace=wrap;html=1;strokeWidth=5;fillColor=#1ba1e2;fontColor=#ffffff;strokeColor=#006EAF;fontSize=54;fontStyle=1" parent="1" vertex="1">
                    <mxGeometry x="1320" y="480" width="1010" height="80" as="geometry"/>
                </mxCell>
                <mxCell id="8" value="" style="shape=curlyBracket;whiteSpace=wrap;html=1;rounded=1;flipH=1;labelPosition=right;verticalLabelPosition=middle;align=left;verticalAlign=middle;fillColor=#60a917;fontColor=#ffffff;strokeColor=#2D7600;strokeWidth=5;size=0.5;" parent="1" vertex="1">
                    <mxGeometry x="1220" y="370" width="70" height="60" as="geometry"/>
                </mxCell>
                <mxCell id="9" value="Program Counter / Opcode" style="rounded=0;whiteSpace=wrap;html=1;strokeWidth=5;fillColor=#60a917;fontColor=#ffffff;strokeColor=#2D7600;fontSize=54;fontStyle=1" parent="1" vertex="1">
                    <mxGeometry x="1320" y="360" width="1010" height="80" as="geometry"/>
                </mxCell>
                <mxCell id="10" value="" style="shape=curlyBracket;whiteSpace=wrap;html=1;rounded=1;flipH=1;labelPosition=right;verticalLabelPosition=middle;align=left;verticalAlign=middle;fillColor=#6a00ff;fontColor=#ffffff;strokeColor=#3700CC;strokeWidth=5;size=0.5;" parent="1" vertex="1">
                    <mxGeometry x="1220" y="610" width="70" height="180" as="geometry"/>
                </mxCell>
                <mxCell id="11" value="PIO / GPIO Register&amp;nbsp;" style="rounded=0;whiteSpace=wrap;html=1;strokeWidth=5;fillColor=#6a00ff;fontColor=#ffffff;strokeColor=#3700CC;fontSize=54;fontStyle=1" parent="1" vertex="1">
                    <mxGeometry x="1320" y="650" width="1010" height="80" as="geometry"/>
                </mxCell>
                <mxCell id="12" value="" style="shape=curlyBracket;whiteSpace=wrap;html=1;rounded=1;flipH=1;labelPosition=right;verticalLabelPosition=middle;align=left;verticalAlign=middle;fillColor=#a20025;fontColor=#ffffff;strokeColor=#6F0000;strokeWidth=5;size=0.5;" parent="1" vertex="1">
                    <mxGeometry x="1220" y="820" width="70" height="210" as="geometry"/>
                </mxCell>
                <mxCell id="13" value="NAND 接続 pin の Timing chart" style="rounded=0;whiteSpace=wrap;html=1;strokeWidth=5;fillColor=#a20025;fontColor=#ffffff;strokeColor=#6F0000;fontSize=54;fontStyle=1" parent="1" vertex="1">
                    <mxGeometry x="1320" y="860" width="1010" height="80" as="geometry"/>
                </mxCell>
            </root>
        </mxGraphModel>
    </diagram>
</mxfile>